<svg width="29" height="33" viewBox="0 0 29 33" fill="none" xmlns="http://www.w3.org/2000/svg">
<path d="M23.9983 31.6711C22.1975 33.4082 20.2106 33.1374 18.3168 32.3184C16.3033 31.4829 14.4627 31.43 12.3363 32.3184C9.68821 33.4545 8.28279 33.1242 6.68798 31.6711C-2.31602 22.4571 -0.987018 8.42141 9.24632 7.89301C11.7282 8.02511 13.4659 9.25694 14.9278 9.35932C17.1007 8.92009 19.1806 7.66183 21.5064 7.82696C24.3006 8.05153 26.3905 9.14796 27.7859 11.1196C22.038 14.5542 23.4002 22.0839 28.6797 24.1975C27.6231 26.9551 26.2675 29.6797 23.9949 31.6942L23.9983 31.6711ZM14.7285 7.79393C14.4593 3.69881 17.7985 0.330251 21.6393 0C22.1676 4.72259 17.32 8.25628 14.7285 7.79393Z" fill="white"/>
</svg>
