<?xml version="1.0" encoding="UTF-8"?>
<svg version="1.1" xmlns="http://www.w3.org/2000/svg" width="640" height="640">
<path d="M0 0 C211.2 0 422.4 0 640 0 C640 211.2 640 422.4 640 640 C428.8 640 217.6 640 0 640 C0 428.8 0 217.6 0 0 Z " fill="#000000" transform="translate(0,0)"/>
<path d="M0 0 C3.75307485 1.50122994 6.87723639 2.97735903 10.33203125 4.984375 C11.88144409 5.8813208 11.88144409 5.8813208 13.4621582 6.79638672 C15.12057739 7.76342529 15.12057739 7.76342529 16.8125 8.75 C17.9818629 9.42881021 19.15138042 10.10735414 20.32104492 10.78564453 C23.31327686 12.52207008 26.30306206 14.26265911 29.29199219 16.00476074 C31.87079811 17.50740545 34.45117444 19.00734912 37.03125 20.5078125 C45.37543346 25.36523139 53.70913734 30.24042184 62.03515625 35.12890625 C77.02760176 43.93064423 92.05296768 52.67041503 107.12109375 61.34228516 C119.30194792 68.35619287 131.44989721 75.42591492 143.58618164 82.51660156 C151.22847283 86.97739021 158.89260881 91.39937455 166.5625 95.8125 C173.34613771 99.71650626 180.11924481 103.63018407 186.8125 107.6875 C197.24912846 114.0018985 207.88390332 119.9811654 218.50390625 125.98046875 C225.68606315 130.05245508 232.79059922 134.24368461 239.88571167 138.46524048 C252.19436931 145.78806354 264.58756564 152.94765714 277.03515625 160.03125 C284.03799759 164.01655883 291.02173291 168.03434539 298 172.0625 C299.54699585 172.95497437 299.54699585 172.95497437 301.12524414 173.86547852 C303.09281292 175.00163058 305.05893114 176.14029919 307.0234375 177.28173828 C309.14599017 178.50701106 311.27720385 179.71733117 313.4140625 180.91748047 C314.51492188 181.54154785 315.61578125 182.16561523 316.75 182.80859375 C317.75546875 183.37247803 318.7609375 183.9363623 319.796875 184.51733398 C320.52390625 185.00661377 321.2509375 185.49589355 322 186 C322 186.66 322 187.32 322 188 C321.38406982 188.3403125 320.76813965 188.680625 320.13354492 189.03125 C306.69424083 196.47128436 293.38644643 204.08069764 280.19140625 211.94726562 C266.95311535 219.83374457 253.61623769 227.55299285 240.2109375 235.15234375 C231.72392407 239.96445931 223.34396304 244.94960151 214.96109009 249.93994141 C207.0657974 254.63625948 199.12075901 259.21803035 191.06542969 263.63549805 C186.0468404 266.39479408 181.128692 269.28700996 176.234375 272.26000977 C169.95932505 276.05690522 163.60589854 279.71548796 157.25 283.375 C155.54807495 284.35496948 155.54807495 284.35496948 153.81176758 285.35473633 C151.56884712 286.64562696 149.32576803 287.93624201 147.08251953 289.2265625 C135.00062829 296.17752543 122.95767187 303.19295917 110.9375 310.25 C94.89469874 319.66854984 78.80745443 329.01051884 62.625 338.1875 C56.31455199 341.78127297 50.10513364 345.53550677 43.88891602 349.28881836 C36.79225692 353.55888182 29.61339707 357.67291543 22.40673828 361.75390625 C16.26882236 365.2406981 10.25117997 368.8747334 4.30078125 372.671875 C2 374 2 374 0 374 C0 250.58 0 127.16 0 0 Z " fill="#020202" transform="translate(176,163)"/>
<path d="M0 0 C7.44384673 5.9109657 12.41763884 12.21632484 15.9375 21.125 C15.9375 22.115 15.9375 23.105 15.9375 24.125 C16.65035156 23.71507812 17.36320312 23.30515625 18.09765625 22.8828125 C27.74461088 17.45558903 35.82576666 14.52837085 46.89453125 16.70703125 C57.55176156 19.70309471 65.27191979 26.74138278 70.9375 36.125 C73.21982564 41.12437997 73.15296855 45.73828613 72.9375 51.125 C73.5975 50.795 74.2575 50.465 74.9375 50.125 C84.32879404 48.98382682 93.6122137 51.45618933 101.3125 56.9375 C108.94493036 63.28730202 114.00366434 70.17796086 115.35546875 80.234375 C115.80720232 90.44111179 112.5204218 100.22549383 105.9375 108.125 C103.41604898 110.40466804 100.85314445 112.37652876 97.9375 114.125 C97.39247833 114.45620157 96.84745667 114.78740314 96.28591919 115.12864113 C88.83841845 119.05715929 81.19284239 118.67478003 73.00390625 118.61083984 C71.40143525 118.61298879 69.79896578 118.61687106 68.19650269 118.62234497 C63.86583567 118.63199552 59.53558428 118.61678867 55.2049675 118.59643888 C50.66082018 118.57879733 46.11668435 118.58239435 41.57250977 118.5831604 C33.94312641 118.58129049 26.31390266 118.56396903 18.68457031 118.53662109 C9.87937562 118.50517366 1.07435558 118.49462513 -7.73089123 118.4960922 C-17.12738204 118.49744605 -26.52380605 118.48354764 -35.92027664 118.46519899 C-38.61814887 118.46094829 -41.31601023 118.45951826 -44.0138855 118.45872116 C-48.26243283 118.45670313 -52.51083518 118.44441935 -56.75933456 118.42438889 C-58.31328314 118.41857755 -59.86724842 118.41608026 -61.42120743 118.41724396 C-74.4575676 118.42330902 -84.13925078 117.93845824 -93.75390625 108.45703125 C-101.44355375 100.03503637 -103.54787057 91.37079998 -103.3359375 80.21484375 C-102.95450223 71.97999611 -99.58199113 65.81657319 -93.9921875 59.87890625 C-87.49285154 53.97161506 -80.89961957 50.77844629 -72.0625 51.125 C-72.22105469 50.49851563 -72.37960937 49.87203125 -72.54296875 49.2265625 C-74.76900849 35.9372726 -74.21581044 22.18784082 -66.3125 10.9375 C-65.2501834 9.6490467 -64.16615984 8.37822122 -63.0625 7.125 C-62.51078125 6.45726562 -61.9590625 5.78953125 -61.390625 5.1015625 C-45.37238572 -12.76493516 -18.97780477 -13.19971807 0 0 Z " fill="#FAFAFA" transform="translate(441.0625,139.875)"/>
<path d="M0 0 C3.75307485 1.50122994 6.87723639 2.97735903 10.33203125 4.984375 C11.88144409 5.8813208 11.88144409 5.8813208 13.4621582 6.79638672 C15.12057739 7.76342529 15.12057739 7.76342529 16.8125 8.75 C17.9818629 9.42881021 19.15138042 10.10735414 20.32104492 10.78564453 C23.31327686 12.52207008 26.30306206 14.26265911 29.29199219 16.00476074 C31.87079811 17.50740545 34.45117444 19.00734912 37.03125 20.5078125 C45.37543346 25.36523139 53.70913734 30.24042184 62.03515625 35.12890625 C77.02760176 43.93064423 92.05296768 52.67041503 107.12109375 61.34228516 C119.30194792 68.35619287 131.44989721 75.42591492 143.58618164 82.51660156 C151.22847283 86.97739021 158.89260881 91.39937455 166.5625 95.8125 C173.34613771 99.71650626 180.11924481 103.63018407 186.8125 107.6875 C197.24912846 114.0018985 207.88390332 119.9811654 218.50390625 125.98046875 C225.68606315 130.05245508 232.79059922 134.24368461 239.88571167 138.46524048 C252.19436931 145.78806354 264.58756564 152.94765714 277.03515625 160.03125 C284.03799759 164.01655883 291.02173291 168.03434539 298 172.0625 C299.54699585 172.95497437 299.54699585 172.95497437 301.12524414 173.86547852 C303.09281292 175.00163058 305.05893114 176.14029919 307.0234375 177.28173828 C309.14599017 178.50701106 311.27720385 179.71733117 313.4140625 180.91748047 C314.51492188 181.54154785 315.61578125 182.16561523 316.75 182.80859375 C317.75546875 183.37247803 318.7609375 183.9363623 319.796875 184.51733398 C320.52390625 185.00661377 321.2509375 185.49589355 322 186 C322 186.66 322 187.32 322 188 C321.38406982 188.3403125 320.76813965 188.680625 320.13354492 189.03125 C306.69424083 196.47128436 293.38644643 204.08069764 280.19140625 211.94726562 C266.95311535 219.83374457 253.61623769 227.55299285 240.2109375 235.15234375 C231.72392407 239.96445931 223.34396304 244.94960151 214.96109009 249.93994141 C207.0657974 254.63625948 199.12075901 259.21803035 191.06542969 263.63549805 C186.0468404 266.39479408 181.128692 269.28700996 176.234375 272.26000977 C169.95932505 276.05690522 163.60589854 279.71548796 157.25 283.375 C155.54807495 284.35496948 155.54807495 284.35496948 153.81176758 285.35473633 C151.56884712 286.64562696 149.32576803 287.93624201 147.08251953 289.2265625 C135.00062829 296.17752543 122.95767187 303.19295917 110.9375 310.25 C94.89469874 319.66854984 78.80745443 329.01051884 62.625 338.1875 C56.31455199 341.78127297 50.10513364 345.53550677 43.88891602 349.28881836 C36.79225692 353.55888182 29.61339707 357.67291543 22.40673828 361.75390625 C16.26882236 365.2406981 10.25117997 368.8747334 4.30078125 372.671875 C2 374 2 374 0 374 C0 250.58 0 127.16 0 0 Z M18 32 C18 134.3 18 236.6 18 342 C32.88296908 334.55851546 47.1971095 326.01896563 61.48095703 317.50195312 C73.19807444 310.51574394 85.00610982 303.69721044 96.8571167 296.9413147 C105.86691732 291.80418945 114.83328548 286.60055595 123.76025391 281.32080078 C138.03846715 272.90079493 152.39228487 264.60971091 166.75708008 256.33862305 C173.58360091 252.40466956 180.3838402 248.42963773 187.16503906 244.41821289 C191.63913282 241.779377 196.15068996 239.21673604 200.6875 236.6875 C208.81873137 232.1483425 216.82280896 227.40252857 224.83203125 222.65234375 C231.66663382 218.60010666 238.51954309 214.57930399 245.375 210.5625 C245.98277283 210.20632599 246.59054565 209.85015198 247.21673584 209.48318481 C259.46759912 202.30459808 271.73102783 195.14759143 284 188 C282.68596821 184.05790462 281.21143347 183.69942468 277.62109375 181.69921875 C276.48406006 181.05879639 275.34702637 180.41837402 274.17553711 179.75854492 C272.92953 179.06818712 271.6835175 178.37783906 270.4375 177.6875 C268.51437301 176.60840643 266.59313877 175.5259915 264.67189026 174.44355774 C263.36361058 173.70686916 262.05471521 172.97127298 260.745224 172.23674011 C254.60219606 168.78917461 248.51430103 165.25041599 242.4375 161.6875 C240.47406188 160.53888548 238.51052236 159.39044427 236.546875 158.2421875 C235.61423828 157.6965918 234.68160156 157.15099609 233.72070312 156.58886719 C227.26458813 152.81855165 220.78920685 149.08141117 214.31640625 145.33984375 C211.90799838 143.9467849 209.50073362 142.55176815 207.09375 141.15625 C205.45835801 140.20829077 203.82294147 139.26037387 202.1875 138.3125 C201.38465576 137.84714844 200.58181152 137.38179688 199.75463867 136.90234375 C195.34830212 134.35094813 190.93032434 131.82209987 186.5 129.3125 C179.55421371 125.35511179 172.68540079 121.269791 165.8125 117.1875 C150.52421879 108.10778368 135.13790806 99.21119733 119.68945312 90.40698242 C113.62610833 86.94565505 107.60415874 83.42009405 101.59765625 79.86132812 C95.5694793 76.30436443 89.47588746 72.86788872 83.375 69.4375 C76.40058122 65.5148147 69.47339347 61.54024684 62.63793945 57.38037109 C56.45709777 53.63394264 50.15853367 50.09832905 43.86938477 46.5378418 C37.39513058 42.85105609 31.05172637 38.99381423 24.79711914 34.94555664 C21.65288271 32.73141416 21.65288271 32.73141416 18 32 Z " fill="#F8F8F8" transform="translate(176,163)"/>
<path d="M0 0 C5.95283915 4.66110016 11.92306927 9.75765079 16.13671875 16.078125 C16.96042969 15.91957031 17.78414063 15.76101562 18.6328125 15.59765625 C33.55866473 13.38457002 48.56878876 15.16948832 61.13671875 24.078125 C69.03057619 30.28914046 75.8861003 37.04494235 79.01171875 46.8125 C79.89696875 49.25248451 79.89696875 49.25248451 82.1328125 49.79296875 C82.93847656 49.86644531 83.74414062 49.93992188 84.57421875 50.015625 C96.91525461 51.96888247 106.91286643 60.51766418 114.51171875 70.078125 C117.37703934 74.1332821 119.31884009 78.47558677 121.13671875 83.078125 C121.47606445 83.84358643 121.81541016 84.60904785 122.16503906 85.39770508 C125.62552762 94.94361058 124.70325296 109.19664215 120.57421875 118.390625 C119.48807051 120.32127257 118.34388414 122.22074249 117.13671875 124.078125 C116.58371094 124.98691406 116.03070312 125.89570313 115.4609375 126.83203125 C107.61285745 138.93792025 95.30170046 147.0147186 81.13671875 150.078125 C78.41141744 150.28354972 75.8749637 150.22748382 73.13671875 150.078125 C73.13671875 147.768125 73.13671875 145.458125 73.13671875 143.078125 C74.19246094 142.98337891 74.19246094 142.98337891 75.26953125 142.88671875 C87.26736513 141.39873674 99.53146367 136.26155869 107.1484375 126.5 C115.2420035 113.5955731 116.73708903 101.72305747 114.57421875 86.703125 C112.20216501 77.01723889 105.2901237 68.57777075 97.13671875 63.078125 C89.66551818 59.11310778 82.62018024 56.37065815 74.13671875 56.078125 C73.73453125 54.84449219 73.73453125 54.84449219 73.32421875 53.5859375 C68.76476853 40.59750364 62.39106782 32.52585425 50.13671875 26.078125 C43.45821065 23.02023894 36.90925791 22.91930152 29.69921875 22.953125 C28.87873047 22.94925781 28.05824219 22.94539063 27.21289062 22.94140625 C23.38081175 22.9475229 20.08304196 23.0895724 16.30859375 23.89453125 C13.13671875 24.078125 13.13671875 24.078125 10.8359375 22.05078125 C9.84013672 20.61025391 9.84013672 20.61025391 8.82421875 19.140625 C-0.30670775 7.01240621 -12.83561696 -0.40751872 -27.86328125 -2.921875 C-44.57400589 -4.24352494 -58.87771541 -0.24485738 -72.21484375 9.8046875 C-78.70745088 15.37798742 -83.62496548 22.17097533 -86.86328125 30.078125 C-87.14945312 30.71621094 -87.435625 31.35429687 -87.73046875 32.01171875 C-90.65766387 39.38546265 -90.58465465 47.24775665 -90.86328125 55.078125 C-93.17328125 55.078125 -95.48328125 55.078125 -97.86328125 55.078125 C-98.74413843 37.3875766 -94.24635819 22.71780731 -82.23828125 9.390625 C-73.91961294 0.53250758 -64.57657826 -5.53446795 -52.86328125 -8.921875 C-52.15042969 -9.14617187 -51.43757813 -9.37046875 -50.703125 -9.6015625 C-33.79773165 -14.21499695 -14.35294581 -9.63390087 0 0 Z " fill="#EBEBEB" transform="translate(448.86328125,124.921875)"/>
<path d="M0 0 C25.301134 -0.85041158 47.01253998 8.37956295 66.12109375 24.6640625 C68.04296875 27.19140625 68.04296875 27.19140625 67.90234375 30.4375 C67.04296875 33.19140625 67.04296875 33.19140625 66.04296875 34.19140625 C62.60687474 34.54653328 60.71774123 34.66278986 57.83984375 32.65234375 C57.164375 31.96398437 56.48890625 31.275625 55.79296875 30.56640625 C51.24061691 26.24281581 46.53430176 23.1936771 41.04296875 20.19140625 C40.29789062 19.74925781 39.5528125 19.30710938 38.78515625 18.8515625 C22.61974352 9.83728998 2.08824672 8.71026667 -15.62890625 13.16015625 C-28.38974063 17.11421761 -39.0725067 23.23837119 -49.16015625 31.9375 C-51.95703125 34.19140625 -51.95703125 34.19140625 -54.70703125 34.69140625 C-56.95703125 34.19140625 -56.95703125 34.19140625 -58.95703125 31.19140625 C-58.81904164 27.91149945 -58.20700104 26.48252333 -56.05859375 23.98046875 C-39.9245219 9.88224193 -21.52805617 1.04133737 0 0 Z " fill="#0A0A0A" transform="translate(441.95703125,179.80859375)"/>
<path d="M0 0 C4.76416016 -0.21191406 4.76416016 -0.21191406 6.88671875 1.6953125 C7.48097656 2.49710937 8.07523437 3.29890625 8.6875 4.125 C9.36941406 5.03378906 10.05132812 5.94257813 10.75390625 6.87890625 C11.86572266 8.42384766 11.86572266 8.42384766 13 10 C13.84233871 11.15502756 14.68479034 12.30997279 15.52734375 13.46484375 C19.79147979 19.35058653 23.94283461 25.29091141 27.84375 31.42578125 C28.9294451 33.15477883 28.9294451 33.15477883 31 34 C31.2371875 33.30777344 31.474375 32.61554688 31.71875 31.90234375 C33.23957032 28.45731479 35.2780428 25.57573432 37.5 22.5625 C38.39472375 21.33086899 39.28924881 20.09909361 40.18359375 18.8671875 C40.64491699 18.23522461 41.10624023 17.60326172 41.58154297 16.95214844 C44.37375197 13.1093768 47.11308164 9.22860097 49.86328125 5.35571289 C52.88958005 1.11041995 52.88958005 1.11041995 54 0 C55.65 0 57.3 0 59 0 C59 22.44 59 44.88 59 68 C56.525 68.495 56.525 68.495 54 69 C54 50.19 54 31.38 54 12 C51.03266662 14.96733338 48.77309934 17.51766092 46.375 20.875 C45.68664062 21.82890625 44.99828125 22.7828125 44.2890625 23.765625 C42.63853886 26.09776421 41.01064909 28.43864373 39.3984375 30.796875 C38.95838379 31.43254395 38.51833008 32.06821289 38.06494141 32.72314453 C37.20092985 33.97280105 36.3461046 35.22886864 35.50146484 36.49169922 C32.47469358 40.85088782 32.47469358 40.85088782 29.85644531 41.67333984 C29.24381836 41.7811377 28.63119141 41.88893555 28 42 C27.64808594 41.51233154 27.29617188 41.02466309 26.93359375 40.5222168 C25.28926896 38.24382878 23.64463487 35.9656642 22 33.6875 C21.44699219 32.92115234 20.89398438 32.15480469 20.32421875 31.36523438 C15.89686001 25.23308808 11.44864298 19.1168841 7 13 C6.67 31.15 6.34 49.3 6 68 C3.525 68.495 3.525 68.495 1 69 C0 68 0 68 -0.12025452 65.29820251 C-0.11803391 64.09241043 -0.11581329 62.88661835 -0.11352539 61.64428711 C-0.11367142 60.98089828 -0.11381744 60.31750946 -0.1139679 59.63401794 C-0.11326881 57.43176044 -0.10547665 55.22958655 -0.09765625 53.02734375 C-0.09579206 51.50419664 -0.09436816 49.98104893 -0.09336853 48.457901 C-0.08954346 44.44162349 -0.07971328 40.42538192 -0.06866455 36.40911865 C-0.05845019 32.31376634 -0.05387086 28.21840824 -0.04882812 24.12304688 C-0.038091 16.08201472 -0.02101472 8.04101183 0 0 Z " fill="#E4E4E4" transform="translate(319,312)"/>
<path d="M0 0 C1.58203125 2.02734375 1.58203125 2.02734375 1.9453125 4.6484375 C1.58203125 7.02734375 1.58203125 7.02734375 -0.41796875 9.02734375 C-2.98046875 9.58984375 -2.98046875 9.58984375 -6.41796875 9.02734375 C-8.68291179 7.47103635 -10.74152787 5.73670983 -12.8515625 3.9765625 C-22.38759259 -3.26617573 -32.39544858 -6.32492828 -44.16796875 -6.28515625 C-45.575625 -6.30932617 -45.575625 -6.30932617 -47.01171875 -6.33398438 C-59.51304566 -6.34261789 -69.55133985 -2.06867432 -79.10546875 5.83984375 C-82.0858063 8.25548576 -83.06587464 8.98410412 -86.98046875 9.46484375 C-87.78484375 9.32046875 -88.58921875 9.17609375 -89.41796875 9.02734375 C-90.85174487 6.15979151 -90.7722413 4.20398762 -90.41796875 1.02734375 C-83.03072804 -7.88257311 -69.07493224 -15.27675479 -57.7109375 -16.75390625 C-35.2333265 -18.24708088 -17.67397236 -15.13585374 0 0 Z " fill="#0C0C0C" transform="translate(491.41796875,221.97265625)"/>
<path d="M0 0 C0 1.65 0 3.3 0 5 C-4.12103642 4.40806931 -7.025021 2.98977913 -10.625 0.9375 C-16.60277706 -2.09534277 -21.36493304 -3.31349215 -28 -2 C-33.02350081 -0.17578513 -36.99390435 1.49085653 -40 6 C-40.6589289 11.75847381 -40.6589289 11.75847381 -38.125 16.75 C-32.43497933 20.84681488 -26.53361517 22.86666166 -19.625 23.875 C-11.13199432 25.23822392 -2.39355473 29.1185681 3 36 C4.75141462 41.25424385 4.70791687 46.04426277 2.5625 51.125 C-0.67243103 56.95246441 -6.18670471 60.0523982 -12.3515625 62.12890625 C-23.79017164 64.85996603 -32.07509188 63.32546848 -42.07421875 57.82421875 C-44.49291132 56.31616877 -46.76631094 54.76629913 -49 53 C-48.67 51.68 -48.34 50.36 -48 49 C-43.9904625 49.57484409 -41.28064567 50.83371774 -37.875 53 C-30.66558879 57.55792563 -24.42458857 57.53308131 -16 57 C-10.0553128 55.62737273 -5.34988549 52.02482823 -2 47 C-1.65868609 42.98956157 -1.91039473 40.42831174 -4 37 C-9.35022345 32.25971529 -15.66074194 30.82467696 -22.5 29.5 C-31.37290877 27.78143087 -39.02290102 25.17251878 -45 18 C-46.55632538 13.33102386 -46.7078365 8.86637593 -46 4 C-43.21598772 -1.43876684 -38.37900481 -4.45719773 -33 -7 C-20.09673517 -10.17293397 -10.98390352 -6.43270276 0 0 Z " fill="#E5E5E5" transform="translate(260,318)"/>
<path d="M0 0 C4.02147571 2.24856706 7.80438222 4.60721299 11.1875 7.75 C11.6875 11.375 11.6875 11.375 11.1875 14.75 C8.1875 16.75 8.1875 16.75 5.875 16.6875 C2.9126942 15.65413751 1.16739327 14.06534262 -1.171875 12.02734375 C-7.79959098 6.86719345 -15.80694291 7.01857864 -23.8125 7.75 C-28.21060354 8.67252904 -31.57315903 10.39496591 -34.875 13.4375 C-38.46362448 16.26258735 -40.35379326 16.27455373 -44.8125 15.75 C-45.8125 14.75 -45.8125 14.75 -46.375 12.125 C-45.61167133 7.54502796 -43.50381042 6.11462136 -39.96875 3.2890625 C-28.50778926 -4.89140585 -12.57994944 -6.56174265 0 0 Z " fill="#0D0D0D" transform="translate(463.8125,232.25)"/>
<path d="M0 0 C1.65 0 3.3 0 5 0 C5 22.44 5 44.88 5 68 C2.525 68.495 2.525 68.495 0 69 C0 50.19 0 31.38 0 12 C-1.32 13.32 -2.64 14.64 -4 16 C-6.75 15.75 -6.75 15.75 -9 15 C-8.36854198 11.09981812 -6.50133463 8.449265 -4.25 5.25 C-3.23679687 3.77273438 -3.23679687 3.77273438 -2.203125 2.265625 C-1.47609375 1.51796875 -0.7490625 0.7703125 0 0 Z " fill="#F0F0F0" transform="translate(373,312)"/>
<path d="M0 0 C3.45729018 3.2262731 6.17136899 6.83191868 8.875 10.6875 C9.31263672 11.30455811 9.75027344 11.92161621 10.20117188 12.55737305 C13.18438696 16.78157476 16.06859271 21.06136238 18.84375 25.42578125 C19.9294451 27.15477883 19.9294451 27.15477883 22 28 C22.22816406 27.32582031 22.45632813 26.65164063 22.69140625 25.95703125 C24.35765449 22.19180761 26.55241986 19.02936554 28.9375 15.6875 C29.38029297 15.04232422 29.82308594 14.39714844 30.27929688 13.73242188 C31.4410425 12.09628236 32.71394559 10.54034718 34 9 C37 9 37 9 40 10 C38.2524535 13.92227103 35.7574459 17.29040047 33.25 20.75 C32.80261475 21.36891113 32.35522949 21.98782227 31.89428711 22.62548828 C31.00418077 23.8550733 30.11285304 25.08377522 29.22021484 26.31152344 C28.17114465 27.76317799 27.14037924 29.22802966 26.11328125 30.6953125 C25.60152344 31.41460937 25.08976562 32.13390625 24.5625 32.875 C23.91474609 33.79925781 23.91474609 33.79925781 23.25390625 34.7421875 C22.84011719 35.15726562 22.42632812 35.57234375 22 36 C21.01 36 20.02 36 19 36 C17.59301758 34.5222168 17.59301758 34.5222168 16.14453125 32.44921875 C15.60771729 31.69294189 15.07090332 30.93666504 14.51782227 30.1574707 C13.95506592 29.34238037 13.39230957 28.52729004 12.8125 27.6875 C11.65192593 26.02802706 10.49046886 24.3691713 9.328125 22.7109375 C8.76287109 21.90108398 8.19761719 21.09123047 7.61523438 20.25683594 C6.22796537 18.31851751 4.79948904 16.45066973 3.296875 14.6015625 C-1.98400124 8.0096995 -1.98400124 8.0096995 -2.03515625 4.78125 C-1.5 2.8125 -1.5 2.8125 0 0 Z " fill="#EBEBEB" transform="translate(328,318)"/>
<path d="M0 0 C0.66 0 1.32 0 2 0 C2 18.48 2 36.96 2 56 C1.67 56 1.34 56 1 56 C0.85704418 48.66765367 0.71468936 41.33529584 0.57275391 34.00292969 C0.52439008 31.50813533 0.47588828 29.01334364 0.42724609 26.51855469 C0.35738498 22.93425172 0.2880188 19.34993946 0.21875 15.765625 C0.19687622 14.64883362 0.17500244 13.53204224 0.15246582 12.38140869 C0.13244507 11.34063171 0.11242432 10.29985474 0.09179688 9.22753906 C0.07403198 8.31264709 0.05626709 7.39775513 0.03796387 6.45513916 C0.00469529 4.3036461 0 2.15175027 0 0 Z " fill="#353535" transform="translate(371,324)"/>
<path d="M0 0 C0.8125 1.6875 0.8125 1.6875 1 4 C-1.67235841 7.13047699 -4.64019009 9.63568932 -8 12 C-8.88661538 9.1355503 -9.5332677 7.02056405 -8.09375 4.265625 C-5.35795454 0.76247227 -4.57103354 0 0 0 Z " fill="#EDEDED" transform="translate(224,315)"/>
<path d="M0 0 C2.475 0.99 2.475 0.99 5 2 C3.70700306 4.88437779 2.34058637 6.87219421 0 9 C0 8.34 0 7.68 0 7 C-1.65 7 -3.3 7 -5 7 C-3.35 4.69 -1.7 2.38 0 0 Z " fill="#E2E2E2" transform="translate(363,326)"/>
<path d="M0 0 C0.66 0.33 1.32 0.66 2 1 C1.319375 1.474375 0.63875 1.94875 -0.0625 2.4375 C-3.97988226 5.85479091 -6.91343761 9.83714352 -10 14 C-10.69921875 12.22265625 -10.69921875 12.22265625 -11 10 C-9.70703125 8.18359375 -9.70703125 8.18359375 -7.8125 6.4375 C-6.84570312 5.53644531 -6.84570312 5.53644531 -5.859375 4.6171875 C-3.97063481 2.97445969 -2.07121242 1.40842445 0 0 Z " fill="#2B2B2B" transform="translate(394,197)"/>
<path d="M0 0 C0 5.07218473 -4.37765858 8.42053092 -7.8125 11.875 C-8.534375 12.57625 -9.25625 13.2775 -10 14 C-10.33 13.34 -10.66 12.68 -11 12 C-3.70159453 3.55353075 -3.70159453 3.55353075 0 0 Z " fill="#DDDDDD" transform="translate(385,140)"/>
<path d="M0 0 C0.556875 0.226875 1.11375 0.45375 1.6875 0.6875 C0.2025 2.1725 0.2025 2.1725 -1.3125 3.6875 C-0.9825 4.3475 -0.6525 5.0075 -0.3125 5.6875 C-1.6325 6.0175 -2.9525 6.3475 -4.3125 6.6875 C-4.6425 5.6975 -4.9725 4.7075 -5.3125 3.6875 C-5.9725 3.3575 -6.6325 3.0275 -7.3125 2.6875 C-2.88173077 -0.38942308 -2.88173077 -0.38942308 0 0 Z " fill="#D6D6D6" transform="translate(229.3125,311.3125)"/>
<path d="M0 0 C0.66 0.66 1.32 1.32 2 2 C-1.49359465 5.59634744 -5.11098131 8.83451967 -9 12 C-9 9 -9 9 -7.28515625 7.24609375 C-6.55167969 6.64925781 -5.81820312 6.05242187 -5.0625 5.4375 C-2.07351045 3.08714476 -2.07351045 3.08714476 0 0 Z " fill="#222222" transform="translate(561,255)"/>
<path d="M0 0 C0.66 0.33 1.32 0.66 2 1 C-1.3 3.97 -4.6 6.94 -8 10 C-8.99 9.67 -9.98 9.34 -11 9 C-7.37 6.03 -3.74 3.06 0 0 Z " fill="#2F2F2F" transform="translate(383,129)"/>
<path d="M0 0 C-0.96295779 2.40739448 -1.61601326 3.74842248 -3.8125 5.1875 C-6.19081966 6.07087587 -8.50012252 6.58335375 -11 7 C-8.21677024 3.90752249 -4.31039412 0 0 0 Z " fill="#3A3A3A" transform="translate(416,398)"/>
<path d="M0 0 C0.33 0 0.66 0 1 0 C1 3.3 1 6.6 1 10 C-2 7 -2 7 -3 5 C-1.625 2.375 -1.625 2.375 0 0 Z " fill="#F9F9F9" transform="translate(262,358)"/>
<path d="M0 0 C0 0.66 0 1.32 0 2 C-3.2491277 4.3208055 -6.05879291 5.43697042 -10 6 C-7.35570758 3.077361 -4.105808 0 0 0 Z " fill="#3A3A3A" transform="translate(322,453)"/>
<path d="M0 0 C0.66 0.33 1.32 0.66 2 1 C2 1.66 2 2.32 2 3 C0.46875 4.2890625 0.46875 4.2890625 -1.5 5.625 C-2.1496875 6.07101563 -2.799375 6.51703125 -3.46875 6.9765625 C-3.9740625 7.31429687 -4.479375 7.65203125 -5 8 C-3.8141763 4.62496331 -2.72426311 2.35277269 0 0 Z " fill="#262626" transform="translate(370,141)"/>
<path d="M0 0 C0.66 0.66 1.32 1.32 2 2 C0.625 4 0.625 4 -1 6 C-2.66666667 6 -4.33333333 6 -6 6 C-4.625 4.5 -4.625 4.5 -3 3 C-2.34 3 -1.68 3 -1 3 C-0.67 2.01 -0.34 1.02 0 0 Z " fill="#363636" transform="translate(548,245)"/>
</svg>
