<svg width="221" height="140" viewBox="0 0 221 140" fill="none" xmlns="http://www.w3.org/2000/svg">
<path d="M151.1 41.4815C151.1 63.8361 132.925 81.963 110.5 81.963C88.0744 81.963 69.8999 63.8361 69.8999 41.4815C69.8999 19.1269 88.0744 1 110.5 1C132.925 1 151.1 19.1269 151.1 41.4815Z" fill="black" stroke="url(#paint0_linear_1904_7)" stroke-width="2"/>
<path d="M103.22 46.6665C103.22 46.6665 104.34 49.7776 110.5 49.7776C116.66 49.7776 117.78 46.6665 117.78 46.6665" stroke="url(#paint1_linear_1904_7)" stroke-width="2" stroke-linecap="round"/>
<ellipse cx="102.181" cy="35.2593" rx="3.12" ry="3.11111" fill="url(#paint2_linear_1904_7)"/>
<ellipse cx="118.82" cy="35.2593" rx="3.12" ry="3.11111" fill="url(#paint3_linear_1904_7)"/>
<path d="M103 88.148C103 116.23 80.1692 139 52 139C23.8308 139 1 116.23 1 88.148C1 60.066 23.8308 37.2961 52 37.2961C80.1692 37.2961 103 60.066 103 88.148Z" fill="black" stroke="url(#paint4_linear_1904_7)" stroke-width="2"/>
<path d="M52.6503 102.407C46.1503 102.407 46.8003 94.6296 46.8003 94.6296H58.5003C58.5003 94.6296 59.1503 102.407 52.6503 102.407Z" stroke="url(#paint5_linear_1904_7)" stroke-width="2" stroke-linecap="round"/>
<path d="M44.0002 80.3703C44.0002 81.6856 42.9297 82.7592 41.6002 82.7592C40.2707 82.7592 39.2002 81.6856 39.2002 80.3703C39.2002 79.055 40.2707 77.9814 41.6002 77.9814C42.9297 77.9814 44.0002 79.055 44.0002 80.3703Z" fill="black" stroke="url(#paint6_linear_1904_7)" stroke-width="3"/>
<path d="M64.8 80.3703C64.8 81.6856 63.7295 82.7592 62.4 82.7592C61.0705 82.7592 60 81.6856 60 80.3703C60 79.055 61.0705 77.9814 62.4 77.9814C63.7295 77.9814 64.8 79.055 64.8 80.3703Z" fill="black" stroke="url(#paint7_linear_1904_7)" stroke-width="3"/>
<path d="M220 88.148C220 116.23 197.169 139 169 139C140.831 139 118 116.23 118 88.148C118 60.066 140.831 37.2961 169 37.2961C197.169 37.2961 220 60.066 220 88.148Z" fill="black" stroke="url(#paint8_linear_1904_7)" stroke-width="2"/>
<path d="M163.8 94.6296C163.8 94.6296 164.6 98.5185 169 98.5185C173.4 98.5185 174.2 94.6296 174.2 94.6296" stroke="url(#paint9_linear_1904_7)" stroke-width="2" stroke-linecap="round"/>
<path d="M161 80.3703C161 81.6856 159.93 82.7592 158.6 82.7592C157.271 82.7592 156.2 81.6856 156.2 80.3703C156.2 79.055 157.271 77.9814 158.6 77.9814C159.93 77.9814 161 79.055 161 80.3703Z" fill="black" stroke="url(#paint10_linear_1904_7)" stroke-width="3"/>
<path d="M181.8 80.3703C181.8 81.6856 180.73 82.7592 179.4 82.7592C178.07 82.7592 177 81.6856 177 80.3703C177 79.055 178.07 77.9814 179.4 77.9814C180.73 77.9814 181.8 79.055 181.8 80.3703Z" fill="black" stroke="url(#paint11_linear_1904_7)" stroke-width="3"/>
<defs>
<linearGradient id="paint0_linear_1904_7" x1="68.8999" y1="41.4815" x2="152.1" y2="41.4815" gradientUnits="userSpaceOnUse">
<stop stop-color="#FC2737"/>
<stop offset="1" stop-color="#0A05E4"/>
</linearGradient>
<linearGradient id="paint1_linear_1904_7" x1="103.22" y1="48.2639" x2="117.78" y2="48.2639" gradientUnits="userSpaceOnUse">
<stop stop-color="#2096D9"/>
<stop offset="1" stop-color="#5C35EE"/>
</linearGradient>
<linearGradient id="paint2_linear_1904_7" x1="99.0605" y1="35.343" x2="105.301" y2="35.343" gradientUnits="userSpaceOnUse">
<stop stop-color="#2096D9"/>
<stop offset="1" stop-color="#5C35EE"/>
</linearGradient>
<linearGradient id="paint3_linear_1904_7" x1="115.7" y1="35.343" x2="121.94" y2="35.343" gradientUnits="userSpaceOnUse">
<stop stop-color="#2096D9"/>
<stop offset="1" stop-color="#5C35EE"/>
</linearGradient>
<linearGradient id="paint4_linear_1904_7" x1="0" y1="89.5427" x2="104" y2="89.5427" gradientUnits="userSpaceOnUse">
<stop stop-color="#2096D9"/>
<stop offset="1" stop-color="#5C35EE"/>
</linearGradient>
<linearGradient id="paint5_linear_1904_7" x1="46.7822" y1="98.6231" x2="58.5183" y2="98.6231" gradientUnits="userSpaceOnUse">
<stop stop-color="#2096D9"/>
<stop offset="1" stop-color="#5C35EE"/>
</linearGradient>
<linearGradient id="paint6_linear_1904_7" x1="37.7002" y1="80.4749" x2="45.5002" y2="80.4749" gradientUnits="userSpaceOnUse">
<stop stop-color="#2096D9"/>
<stop offset="1" stop-color="#5C35EE"/>
</linearGradient>
<linearGradient id="paint7_linear_1904_7" x1="58.5" y1="80.4749" x2="66.3" y2="80.4749" gradientUnits="userSpaceOnUse">
<stop stop-color="#2096D9"/>
<stop offset="1" stop-color="#5C35EE"/>
</linearGradient>
<linearGradient id="paint8_linear_1904_7" x1="117" y1="89.5427" x2="221" y2="89.5427" gradientUnits="userSpaceOnUse">
<stop stop-color="#2096D9"/>
<stop offset="1" stop-color="#5C35EE"/>
</linearGradient>
<linearGradient id="paint9_linear_1904_7" x1="163.8" y1="96.6264" x2="174.2" y2="96.6264" gradientUnits="userSpaceOnUse">
<stop stop-color="#2096D9"/>
<stop offset="1" stop-color="#5C35EE"/>
</linearGradient>
<linearGradient id="paint10_linear_1904_7" x1="154.7" y1="80.4749" x2="162.5" y2="80.4749" gradientUnits="userSpaceOnUse">
<stop stop-color="#2096D9"/>
<stop offset="1" stop-color="#5C35EE"/>
</linearGradient>
<linearGradient id="paint11_linear_1904_7" x1="175.5" y1="80.4749" x2="183.3" y2="80.4749" gradientUnits="userSpaceOnUse">
<stop stop-color="#2096D9"/>
<stop offset="1" stop-color="#5C35EE"/>
</linearGradient>
</defs>
</svg>
