<?xml version="1.0" encoding="UTF-8"?>
<svg version="1.1" xmlns="http://www.w3.org/2000/svg" width="558" height="447">
<path d="M0 0 C1.05960937 0.26683594 2.11921875 0.53367188 3.2109375 0.80859375 C18.47112126 4.96542347 34.07393197 13.56794241 44 26 C45.66362861 27.33712206 47.33027378 28.67050013 49 30 C50.33886278 31.54363003 51.63088445 33.12903617 52.875 34.75 C55.96267011 38.71484912 59.1630588 42.50380845 62.5546875 46.2109375 C64 48 64 48 64.8828125 49.9765625 C66.39581698 52.71689928 68.50587478 54.16222352 71 56 C71.98226562 54.72769531 71.98226562 54.72769531 72.984375 53.4296875 C78.03920646 46.91737963 83.17643095 40.48272727 88.5 34.1875 C89.00370117 33.58341309 89.50740234 32.97932617 90.02636719 32.35693359 C93.6466062 28.11779793 93.6466062 28.11779793 97 27 C97.69211621 25.679698 98.35595774 24.3444076 99 23 C104.41567822 17.17712793 111.22809261 13.04822012 118 9 C118.85335937 8.46117187 119.70671875 7.92234375 120.5859375 7.3671875 C127.34989239 3.32506431 134.07455364 1.44969745 141.69140625 -0.23828125 C144.85705917 -0.83055314 144.85705917 -0.83055314 147 -2 C169.23235408 -6.01968902 192.02193063 -1.91119154 211.875 8.4375 C212.94609009 8.9946167 212.94609009 8.9946167 214.03881836 9.56298828 C220.67692687 13.14209295 225.67088032 17.67088032 231 23 C232.20176308 24.02855998 233.41043478 25.04908919 234.625 26.0625 C237.12255152 28.17916131 239.28342619 30.17270196 241 33 C241 33.66 241 34.32 241 35 C241.66 35 242.32 35 243 35 C244.51772635 37.09576062 245.86531779 39.15826203 247.1875 41.375 C247.58461182 42.03894775 247.98172363 42.70289551 248.39086914 43.38696289 C260.99363294 65.20128396 265.46944589 90.28331359 260 115 C257.22890832 125.30283586 253.59731375 134.88304575 248 144 C247.64808594 144.65484375 247.29617188 145.3096875 246.93359375 145.984375 C236.23504049 165.09175426 215.07150275 180.19369178 194.44140625 186.484375 C170.75316437 192.93197576 143.55549942 192.79295914 121.62890625 180.59765625 C120.76136719 180.07042969 119.89382813 179.54320312 119 179 C118.06027344 178.44183594 117.12054688 177.88367188 116.15234375 177.30859375 C105.75196942 170.91386566 96.5240467 163.67377433 89 154 C89 153.34 89 152.68 89 152 C88.44183594 151.79761719 87.88367188 151.59523438 87.30859375 151.38671875 C84.11979991 149.47128421 82.23172592 146.75998836 80.0625 143.8125 C79.62373535 143.22895752 79.1849707 142.64541504 78.73291016 142.04418945 C75.75886444 138.07456178 72.83813655 134.06799572 70 130 C66.76772364 132.98363972 64.23055871 136.27584159 61.62890625 139.796875 C43.42300743 164.42068059 21.00533708 184.30448576 -10.00341797 189.60449219 C-25.19009366 191.60892551 -40.4890643 191.00602742 -55 186 C-56.13308594 185.62617188 -57.26617187 185.25234375 -58.43359375 184.8671875 C-73.76694444 179.41292141 -88.66429488 169.74477924 -99 157 C-99.50853516 155.67742187 -99.50853516 155.67742187 -100.02734375 154.328125 C-100.34832031 153.55984375 -100.66929688 152.7915625 -101 152 C-101.99 151.67 -102.98 151.34 -104 151 C-105.4335395 148.83055726 -106.70245831 146.7153749 -107.9375 144.4375 C-108.46972168 143.47577881 -108.46972168 143.47577881 -109.01269531 142.49462891 C-110.01818581 140.66818825 -111.00996012 138.83484555 -112 137 C-112.41894531 136.24589844 -112.83789062 135.49179687 -113.26953125 134.71484375 C-119.93851432 122.20053687 -122.3862654 108.72109942 -122.3125 94.6875 C-122.30758545 93.58027588 -122.3026709 92.47305176 -122.29760742 91.33227539 C-122.18518885 83.50044789 -121.39430351 76.48341015 -119 69 C-118.67128906 67.75734375 -118.34257813 66.5146875 -118.00390625 65.234375 C-113.64245339 49.20857145 -105.68415336 36.68415336 -94 25 C-93.15929557 23.96427323 -92.32609496 22.92241635 -91.5 21.875 C-89.04462611 19.05132002 -87.2221798 17.79842594 -84 16 C-82.91428776 15.10705129 -81.83130632 14.21077897 -80.75 13.3125 C-58.64178233 -3.35177685 -26.20213562 -7.50954507 0 0 Z M-67.4375 58.9375 C-75.70038566 70.02896685 -81.18357312 84.00847494 -80 98 C-77.065812 114.00858452 -70.4502875 128.12338712 -57 137.8125 C-53.1044079 140.41350231 -49.38229941 142.36737865 -45 144 C-44.21625 144.350625 -43.4325 144.70125 -42.625 145.0625 C-29.27499961 149.83035728 -16.06968787 148.60259854 -3.0625 143.0625 C8.79372293 137.31728852 16.96044949 128.18550403 25 118 C26.01618953 116.8085237 27.03601912 115.62012164 28.0625 114.4375 C30.20741471 112.25801386 30.20741471 112.25801386 30 110 C30.66 110 31.32 110 32 110 C33.61715492 108.17417992 34.97548285 106.20972644 36.39453125 104.2265625 C37.41232641 102.81502177 38.46881589 101.42997572 39.57421875 100.0859375 C41.20806191 98.13454798 41.20806191 98.13454798 43 95 C41.89014424 88.49941627 35.92466303 82.45775891 31.875 77.3125 C31.39780518 76.705271 30.92061035 76.09804199 30.42895508 75.47241211 C26.54617669 70.58386536 22.45442568 65.95682157 18.1953125 61.390625 C16.38390548 59.41806077 14.71834632 57.41305934 13.0625 55.3125 C5.0395332 46.01569167 -5.19458389 40.99271841 -17.31982422 39.76513672 C-37.33918783 38.33717099 -54.06116234 43.09513361 -67.4375 58.9375 Z M134 49 C134 49.66 134 50.32 134 51 C132.88625 51.3403125 132.88625 51.3403125 131.75 51.6875 C128.42302592 53.27537399 127.18783693 55.06009412 125 58 C124.0925 58.886875 123.185 59.77375 122.25 60.6875 C119.76754835 62.70116241 119.76754835 62.70116241 120 65 C119.34 65 118.68 65 118 65 C116.3336631 66.96603778 114.78272387 68.93355221 113.25 71 C112.80116455 71.59506348 112.3523291 72.19012695 111.88989258 72.80322266 C110.58790625 74.5315397 109.29379733 76.26555021 108 78 C107.40058594 78.79148438 106.80117188 79.58296875 106.18359375 80.3984375 C103.04495231 84.54504995 100.00592347 88.75634334 97 93 C99.39279141 97.35829864 101.85021308 101.13897087 105 105 C105.53625 105.928125 106.0725 106.85625 106.625 107.8125 C107.305625 108.8953125 107.305625 108.8953125 108 110 C108.66 110 109.32 110 110 110 C110.22300781 110.53109375 110.44601562 111.0621875 110.67578125 111.609375 C112.45656444 114.82424023 114.79269791 117.48528544 117.1875 120.25 C117.68580322 120.8277417 118.18410645 121.4054834 118.69750977 122.00073242 C119.68860079 123.14963946 120.68068146 124.29769366 121.67382812 125.44482422 C122.7634472 126.72259916 123.81676098 128.03124653 124.859375 129.34765625 C133.03901809 139.53171683 143.50711645 144.15046342 156 147 C156.68964844 147.19207031 157.37929688 147.38414062 158.08984375 147.58203125 C166.30398187 149.3793989 174.18681809 147.56444928 182 145 C182.67546875 144.80664062 183.3509375 144.61328125 184.046875 144.4140625 C196.42415716 140.47583636 206.85725145 131.25422755 213.10791016 120.00634766 C219.9002819 106.57378808 221.42369091 92.55805882 217.375 78 C215.244629 72.08651466 212.67058291 66.12902785 209 61 C207.515 60.505 207.515 60.505 206 60 C205.33333333 58.66666667 204.66666667 57.33333333 204 56 C196.30699411 46.81802523 184.53498058 40.99682963 172.71142578 39.76074219 C158.74313355 38.76717004 145.50392866 40.31123213 134 49 Z " fill="#6220E1" transform="translate(214,130)"/>
<path d="M0 0 C0.71406006 0.37141113 1.42812012 0.74282227 2.16381836 1.12548828 C8.80192687 4.70459295 13.79588032 9.23338032 19.125 14.5625 C20.32676308 15.59105998 21.53543478 16.61158919 22.75 17.625 C25.24755152 19.74166131 27.40842619 21.73520196 29.125 24.5625 C29.125 25.2225 29.125 25.8825 29.125 26.5625 C29.785 26.5625 30.445 26.5625 31.125 26.5625 C32.64272635 28.65826062 33.99031779 30.72076203 35.3125 32.9375 C35.70961182 33.60144775 36.10672363 34.26539551 36.51586914 34.94946289 C49.11863294 56.76378396 53.59444589 81.84581359 48.125 106.5625 C45.35745769 116.85213941 41.74711833 126.4723902 36.125 135.5625 C35.691875 136.29855469 35.25875 137.03460938 34.8125 137.79296875 C32.25228638 142.05732456 29.39946419 145.82025521 26.125 149.5625 C25.125 147.5625 25.125 147.5625 25.68359375 145.6171875 C26.11865234 144.53824219 26.11865234 144.53824219 26.5625 143.4375 C26.84996094 142.71304688 27.13742187 141.98859375 27.43359375 141.2421875 C27.66175781 140.68789063 27.88992188 140.13359375 28.125 139.5625 C29.115 139.5625 30.105 139.5625 31.125 139.5625 C30.939375 139.005625 30.75375 138.44875 30.5625 137.875 C30.04948835 135.163367 30.4609276 133.21878961 31.125 130.5625 C28.12463147 130.5625 26.80985425 132.45374244 24.640625 134.328125 C22.91271724 135.73539008 21.13931419 136.62248671 19.125 137.5625 C18.5475 138.01625 17.97 138.47 17.375 138.9375 C12.11211886 142.73846971 6.28814757 144.99128746 0.10546875 146.8515625 C-2.14878655 147.57099741 -2.14878655 147.57099741 -4.875 149.5625 C-20.19130341 152.03539776 -38.57976115 153.08880632 -52.97265625 146.80859375 C-57.14772605 145.01606715 -61.40393034 144.25273426 -65.875 143.5625 C-66.37 141.0875 -66.37 141.0875 -66.875 138.5625 C-68.855 137.9025 -70.835 137.2425 -72.875 136.5625 C-72.875 135.9025 -72.875 135.2425 -72.875 134.5625 C-74.855 134.2325 -76.835 133.9025 -78.875 133.5625 C-78.875 132.9025 -78.875 132.2425 -78.875 131.5625 C-79.865 131.5625 -80.855 131.5625 -81.875 131.5625 C-82.89528865 130.24462715 -83.89471384 128.91039347 -84.875 127.5625 C-85.865 127.2325 -86.855 126.9025 -87.875 126.5625 C-89.95030387 123.64170195 -90.875 122.18703269 -90.875 118.5625 C-92.195 118.8925 -93.515 119.2225 -94.875 119.5625 C-95.875 117.89583333 -96.875 116.22916667 -97.875 114.5625 C-98.431875 113.675625 -98.98875 112.78875 -99.5625 111.875 C-100.875 109.5625 -100.875 109.5625 -100.875 107.5625 C-102.855 108.0575 -102.855 108.0575 -104.875 108.5625 C-105.05675781 107.49708984 -105.05675781 107.49708984 -105.2421875 106.41015625 C-105.49355469 105.03150391 -105.49355469 105.03150391 -105.75 103.625 C-105.91242188 102.70847656 -106.07484375 101.79195313 -106.2421875 100.84765625 C-106.45101562 100.09355469 -106.65984375 99.33945313 -106.875 98.5625 C-107.535 98.2325 -108.195 97.9025 -108.875 97.5625 C-109.2875 96.799375 -109.7 96.03625 -110.125 95.25 C-111.75749219 92.31915438 -111.75749219 92.31915438 -115.0625 90.625 C-115.990625 89.944375 -116.91875 89.26375 -117.875 88.5625 C-118.25 85.3125 -118.25 85.3125 -117.875 82.5625 C-118.535 82.5625 -119.195 82.5625 -119.875 82.5625 C-120.13023437 81.62277344 -120.13023437 81.62277344 -120.390625 80.6640625 C-120.63296875 79.84679687 -120.8753125 79.02953125 -121.125 78.1875 C-121.35703125 77.37539062 -121.5890625 76.56328125 -121.828125 75.7265625 C-123.11983585 73.05638411 -124.17570931 72.64735778 -126.875 71.5625 C-130.59268048 68.93292113 -132.7288635 66.56211802 -134.875 62.5625 C-135.41125 61.77875 -135.9475 60.995 -136.5 60.1875 C-138.23548956 56.87429266 -138.74157907 54.29828616 -138.875 50.5625 C-137.625 48 -137.625 48 -135.875 45.5625 C-135.400625 44.5725 -134.92625 43.5825 -134.4375 42.5625 C-132.875 39.5625 -132.875 39.5625 -130.8125 37 C-128.79608139 34.73508248 -128.79608139 34.73508248 -128.06640625 32.2734375 C-126.54492452 28.81144301 -124.4320474 26.52632908 -121.875 23.75 C-120.988125 22.77417969 -120.10125 21.79835937 -119.1875 20.79296875 C-116.875 18.5625 -116.875 18.5625 -114.875 18.5625 C-114.61589844 17.97082031 -114.35679687 17.37914062 -114.08984375 16.76953125 C-110.00107917 9.34138981 -100.91163305 4.7689721 -93.875 0.5625 C-93.02164063 0.02367187 -92.16828125 -0.51515625 -91.2890625 -1.0703125 C-84.52510761 -5.11243569 -77.80044636 -6.98780255 -70.18359375 -8.67578125 C-67.01794083 -9.26805314 -67.01794083 -9.26805314 -64.875 -10.4375 C-42.64264592 -14.45718902 -19.85306937 -10.34869154 0 0 Z M-77.875 40.5625 C-77.875 41.2225 -77.875 41.8825 -77.875 42.5625 C-78.98875 42.9028125 -78.98875 42.9028125 -80.125 43.25 C-83.45197408 44.83787399 -84.68716307 46.62259412 -86.875 49.5625 C-87.7825 50.449375 -88.69 51.33625 -89.625 52.25 C-92.10745165 54.26366241 -92.10745165 54.26366241 -91.875 56.5625 C-92.535 56.5625 -93.195 56.5625 -93.875 56.5625 C-95.5413369 58.52853778 -97.09227613 60.49605221 -98.625 62.5625 C-99.07383545 63.15756348 -99.5226709 63.75262695 -99.98510742 64.36572266 C-101.28709375 66.0940397 -102.58120267 67.82805021 -103.875 69.5625 C-104.47441406 70.35398438 -105.07382812 71.14546875 -105.69140625 71.9609375 C-108.83004769 76.10754995 -111.86907653 80.31884334 -114.875 84.5625 C-112.48220859 88.92079864 -110.02478692 92.70147087 -106.875 96.5625 C-106.33875 97.490625 -105.8025 98.41875 -105.25 99.375 C-104.569375 100.4578125 -104.569375 100.4578125 -103.875 101.5625 C-103.215 101.5625 -102.555 101.5625 -101.875 101.5625 C-101.65199219 102.09359375 -101.42898438 102.6246875 -101.19921875 103.171875 C-99.41843556 106.38674023 -97.08230209 109.04778544 -94.6875 111.8125 C-94.18919678 112.3902417 -93.69089355 112.9679834 -93.17749023 113.56323242 C-92.18639921 114.71213946 -91.19431854 115.86019366 -90.20117188 117.00732422 C-89.1115528 118.28509916 -88.05823902 119.59374653 -87.015625 120.91015625 C-78.83598191 131.09421683 -68.36788355 135.71296342 -55.875 138.5625 C-55.18535156 138.75457031 -54.49570312 138.94664062 -53.78515625 139.14453125 C-45.57101813 140.9418989 -37.68818191 139.12694928 -29.875 136.5625 C-29.19953125 136.36914062 -28.5240625 136.17578125 -27.828125 135.9765625 C-15.45084284 132.03833636 -5.01774855 122.81672755 1.23291016 111.56884766 C8.0252819 98.13628808 9.54869091 84.12055882 5.5 69.5625 C3.369629 63.64901466 0.79558291 57.69152785 -2.875 52.5625 C-4.36 52.0675 -4.36 52.0675 -5.875 51.5625 C-6.54166667 50.22916667 -7.20833333 48.89583333 -7.875 47.5625 C-15.56800589 38.38052523 -27.34001942 32.55932963 -39.16357422 31.32324219 C-53.13186645 30.32967004 -66.37107134 31.87373213 -77.875 40.5625 Z " fill="#5500FC" transform="translate(425.875,138.4375)"/>
<path d="M0 0 C0.99 0.845625 1.98 1.69125 3 2.5625 C-0.42709496 2.5625 -2.69514543 1.67284259 -5.9375 0.5625 C-20.61210508 -3.66269589 -36.10053648 -2.82495573 -50 3.5625 C-63.8090674 11.47646845 -72.50701499 24.04290636 -76.7421875 39.22265625 C-79.9963524 53.64351029 -76.57440704 68.08600803 -69.125 80.75 C-68.42375 81.678125 -67.7225 82.60625 -67 83.5625 C-66.59265625 84.11421875 -66.1853125 84.6659375 -65.765625 85.234375 C-60.10220627 92.42500777 -52.52334145 97.3871375 -44 100.5625 C-43.21625 100.913125 -42.4325 101.26375 -41.625 101.625 C-28.27499961 106.39285728 -15.06968787 105.16509854 -2.0625 99.625 C11.84222605 92.90016886 21.08660901 81.32541198 29.80859375 68.92578125 C30.20175781 68.47589844 30.59492188 68.02601563 31 67.5625 C31.66 67.5625 32.32 67.5625 33 67.5625 C33.3403125 66.4796875 33.3403125 66.4796875 33.6875 65.375 C35.25621997 62.0134572 37.35641222 60.14161003 40 57.5625 C42.00864359 55.1898026 42.00864359 55.1898026 43 52.5625 C42.33903214 49.91004398 42.33903214 49.91004398 41 47.5625 C40.67 46.5725 40.34 45.5825 40 44.5625 C40.66 44.5625 41.32 44.5625 42 44.5625 C43.2265625 46.1796875 43.2265625 46.1796875 44.625 48.4375 C48.997218 55.22086763 53.90336141 62.21263843 60 67.5625 C60.99 67.5625 61.98 67.5625 63 67.5625 C64.64826111 70.52937001 65.44271087 73.21876525 66 76.5625 C66.66 76.5625 67.32 76.5625 68 76.5625 C68.391875 77.51125 68.78375 78.46 69.1875 79.4375 C71.28646781 83.05641001 72.29925601 83.10168 76 84.5625 C76.625 87.0625 76.625 87.0625 77 89.5625 C77.99 90.2225 78.98 90.8825 80 91.5625 C84 97.2347408 84 97.2347408 84 100.5625 C84.66 100.5625 85.32 100.5625 86 100.5625 C86.91332685 102.01705758 87.82591569 103.47208488 88.734375 104.9296875 C90.14075227 106.7440878 91.49533535 107.66748024 93.4375 108.875 C97.80844352 111.75756189 99.97616868 115.81535649 102 120.5625 C102 121.2225 102 121.8825 102 122.5625 C100 122.5625 100 122.5625 97.6875 120.4375 C90 112.21366279 90 112.21366279 90 109.5625 C89.44183594 109.36011719 88.88367188 109.15773438 88.30859375 108.94921875 C85.11979991 107.03378421 83.23172592 104.32248836 81.0625 101.375 C80.62373535 100.79145752 80.1849707 100.20791504 79.73291016 99.60668945 C76.75886444 95.63706178 73.83813655 91.63049572 71 87.5625 C67.76772364 90.54613972 65.23055871 93.83834159 62.62890625 97.359375 C44.42300743 121.98318059 22.00533708 141.86698576 -9.00341797 147.16699219 C-24.19009366 149.17142551 -39.4890643 148.56852742 -54 143.5625 C-55.13308594 143.18867188 -56.26617187 142.81484375 -57.43359375 142.4296875 C-72.76694444 136.97542141 -87.66429488 127.30727924 -98 114.5625 C-98.33902344 113.68078125 -98.67804688 112.7990625 -99.02734375 111.890625 C-99.34832031 111.12234375 -99.66929688 110.3540625 -100 109.5625 C-101.485 109.0675 -101.485 109.0675 -103 108.5625 C-104.4335395 106.39305726 -105.70245831 104.2778749 -106.9375 102 C-107.46972168 101.03827881 -107.46972168 101.03827881 -108.01269531 100.05712891 C-109.01818581 98.23068825 -110.00996012 96.39734555 -111 94.5625 C-111.41894531 93.80839844 -111.83789062 93.05429687 -112.26953125 92.27734375 C-118.94001483 79.76022117 -121.38101336 66.28560416 -121.3125 52.25 C-121.31121094 51.15437744 -121.30992188 50.05875488 -121.30859375 48.92993164 C-121.21572693 41.1099654 -120.49173928 34.02288607 -118 26.5625 C-117.31292445 29.05314888 -117 30.94136292 -117 33.5625 C-116.59910156 32.67949219 -116.19820313 31.79648438 -115.78515625 30.88671875 C-107.29506849 12.74591801 -94.00204367 -0.86206599 -75.078125 -7.984375 C-71.42474932 -9.27237726 -67.72451168 -10.37273798 -64 -11.4375 C-63.236875 -11.68371094 -62.47375 -11.92992187 -61.6875 -12.18359375 C-41.91363233 -17.78361487 -16.28787218 -12.10120081 0 0 Z " fill="#4001D9" transform="translate(213,172.4375)"/>
<path d="M0 0 C1.20849609 -0.02900391 2.41699219 -0.05800781 3.66210938 -0.08789062 C15.09373445 -0.16748951 25.68801236 1.75974456 34.5625 9.3125 C35.6453125 10.42625 35.6453125 10.42625 36.75 11.5625 C38.41134882 13.4789859 38.41134882 13.4789859 40.6875 13.75 C41.30625 13.935625 41.925 14.12125 42.5625 14.3125 C43.29154086 15.95284193 43.94905243 17.62551918 44.5625 19.3125 C45.88631517 20.98673683 47.21826661 22.65461215 48.5625 24.3125 C48.5625 24.9725 48.5625 25.6325 48.5625 26.3125 C49.5525 26.3125 50.5425 26.3125 51.5625 26.3125 C51.61857422 27.18261719 51.61857422 27.18261719 51.67578125 28.0703125 C52.1064603 33.187793 53.07333031 36.74902223 55.5625 41.3125 C59.20197469 54.50869053 57.35514423 71.185423 51.05078125 83.19140625 C50.55964844 83.89136719 50.06851563 84.59132813 49.5625 85.3125 C48.9025 85.3125 48.2425 85.3125 47.5625 85.3125 C47.43875 85.869375 47.315 86.42625 47.1875 87 C46.98125 87.763125 46.775 88.52625 46.5625 89.3125 C46.35625 90.09625 46.15 90.88 45.9375 91.6875 C44.23774736 94.93248232 42.10784415 96.63721901 39.27734375 98.90625 C37.45263335 100.32503471 37.45263335 100.32503471 35.75 102.375 C23.4260321 113.29051443 3.15629966 112.83229332 -12.4375 112.3125 C-6.4975 114.6225 -0.5575 116.9325 5.5625 119.3125 C1.88619827 120.53793391 1.01046514 119.9294412 -2.5 118.5 C-7.75309911 116.47580581 -12.89247511 115.22664727 -18.4375 114.3125 C-18.7675 112.6625 -19.0975 111.0125 -19.4375 109.3125 C-22.4075 108.3225 -22.4075 108.3225 -25.4375 107.3125 C-25.4375 106.6525 -25.4375 105.9925 -25.4375 105.3125 C-27.4175 104.9825 -29.3975 104.6525 -31.4375 104.3125 C-31.4375 103.6525 -31.4375 102.9925 -31.4375 102.3125 C-32.4275 102.3125 -33.4175 102.3125 -34.4375 102.3125 C-35.45778865 100.99462715 -36.45721384 99.66039347 -37.4375 98.3125 C-38.9225 97.8175 -38.9225 97.8175 -40.4375 97.3125 C-42.51280387 94.39170195 -43.4375 92.93703269 -43.4375 89.3125 C-45.4175 89.8075 -45.4175 89.8075 -47.4375 90.3125 C-48.4375 88.64583333 -49.4375 86.97916667 -50.4375 85.3125 C-51.2728125 83.9821875 -51.2728125 83.9821875 -52.125 82.625 C-53.4375 80.3125 -53.4375 80.3125 -53.4375 78.3125 C-55.4175 78.8075 -55.4175 78.8075 -57.4375 79.3125 C-57.7675 76.0125 -58.0975 72.7125 -58.4375 69.3125 C-57.7775 69.6425 -57.1175 69.9725 -56.4375 70.3125 C-56.4375 70.9725 -56.4375 71.6325 -56.4375 72.3125 C-55.7775 72.3125 -55.1175 72.3125 -54.4375 72.3125 C-52.87890625 74.04296875 -52.87890625 74.04296875 -51 76.5 C-50.28328125 77.41007812 -49.5665625 78.32015625 -48.828125 79.2578125 C-47.61464105 80.80837532 -46.4014218 82.3591744 -45.19726562 83.91699219 C-35.1277911 96.84693766 -24.74622237 104.7403157 -8.4375 108.3125 C-7.74914062 108.50328125 -7.06078125 108.6940625 -6.3515625 108.890625 C1.8589926 110.70029837 9.7520188 108.87606285 17.5625 106.3125 C18.23796875 106.11914062 18.9134375 105.92578125 19.609375 105.7265625 C31.55024229 101.92719563 41.6711455 93.28899128 47.62304688 82.36621094 C54.39315931 68.85750429 56.00786885 54.94850714 51.9375 40.3125 C48.90754885 31.91857174 45.19495611 24.35973939 38.5625 18.3125 C38.5625 17.6525 38.5625 16.9925 38.5625 16.3125 C37.72525391 15.92191406 37.72525391 15.92191406 36.87109375 15.5234375 C34.30222022 14.17597423 32.01379089 12.58271237 29.625 10.9375 C17.5001486 3.29565287 4.63213258 1.73829619 -9.4375 3.3125 C-12.8716182 4.15357976 -15.97552345 5.15151429 -19.22265625 6.53515625 C-21.4375 7.3125 -21.4375 7.3125 -24.4375 6.3125 C-23.468125 5.85875 -22.49875 5.405 -21.5 4.9375 C-18.36670418 3.65463779 -18.36670418 3.65463779 -17.4375 1.3125 C-12.01005967 -0.65403232 -5.68171468 0.0441813 0 0 Z " fill="#710BE5" transform="translate(378.4375,167.6875)"/>
<path d="M0 0 C3.51463012 1.89980007 5.89550678 3.56635317 8 7 C8 7.66 8 8.32 8 9 C8.66 9 9.32 9 10 9 C11.51772635 11.09576062 12.86531779 13.15826203 14.1875 15.375 C14.58461182 16.03894775 14.98172363 16.70289551 15.39086914 17.38696289 C27.99363294 39.20128396 32.46944589 64.28331359 27 89 C24.23245769 99.28963941 20.62211833 108.9098902 15 118 C14.566875 118.73605469 14.13375 119.47210938 13.6875 120.23046875 C11.12728638 124.49482456 8.27446419 128.25775521 5 132 C4 130 4 130 4.55859375 128.0546875 C4.99365234 126.97574219 4.99365234 126.97574219 5.4375 125.875 C5.86869141 124.78832031 5.86869141 124.78832031 6.30859375 123.6796875 C6.53675781 123.12539063 6.76492188 122.57109375 7 122 C7.99 122 8.98 122 10 122 C9.7215625 121.2265625 9.7215625 121.2265625 9.4375 120.4375 C7.57287322 110.04886509 15.40898372 98.63141007 20.171875 89.8359375 C22.4722958 85.51848107 23.49586031 81.94056898 24 77 C24.33 76.67 24.66 76.34 25 76 C27.22461496 58.64558526 24.21081901 38.46532694 14 24 C13.75 20.625 13.75 20.625 14 18 C13.34 18 12.68 18 12 18 C10.4921875 16.3203125 10.4921875 16.3203125 8.875 14.125 C8.33617187 13.40570313 7.79734375 12.68640625 7.2421875 11.9453125 C6 10 6 10 6 8 C5.34 8 4.68 8 4 8 C3.71125 7.195625 3.4225 6.39125 3.125 5.5625 C2.26737432 2.8673532 2.26737432 2.8673532 0 2 C0 1.34 0 0.68 0 0 Z " fill="#4A08D9" transform="translate(447,156)"/>
<path d="M0 0 C1.20849609 -0.02900391 2.41699219 -0.05800781 3.66210938 -0.08789062 C15.09373445 -0.16748951 25.68801236 1.75974456 34.5625 9.3125 C35.284375 10.055 36.00625 10.7975 36.75 11.5625 C38.41134882 13.4789859 38.41134882 13.4789859 40.6875 13.75 C41.30625 13.935625 41.925 14.12125 42.5625 14.3125 C43.29154086 15.95284193 43.94905243 17.62551918 44.5625 19.3125 C45.88631517 20.98673683 47.21826661 22.65461215 48.5625 24.3125 C48.5625 24.9725 48.5625 25.6325 48.5625 26.3125 C49.5525 26.3125 50.5425 26.3125 51.5625 26.3125 C51.61857422 27.18261719 51.61857422 27.18261719 51.67578125 28.0703125 C52.1064603 33.187793 53.07333031 36.74902223 55.5625 41.3125 C59.20197469 54.50869053 57.35514423 71.185423 51.05078125 83.19140625 C50.55964844 83.89136719 50.06851563 84.59132813 49.5625 85.3125 C48.9025 85.3125 48.2425 85.3125 47.5625 85.3125 C47.4696875 86.17875 47.4696875 86.17875 47.375 87.0625 C46.2419098 90.20028826 44.18532275 91.32939011 41.5625 93.3125 C40.9025 94.3025 40.2425 95.2925 39.5625 96.3125 C38.5725 95.8175 38.5725 95.8175 37.5625 95.3125 C38.13097656 94.72726562 38.69945312 94.14203125 39.28515625 93.5390625 C49.41270013 82.27872156 54.57707377 69.28302529 54.18823242 54.0859375 C53.41317026 40.80387763 48.52960074 27.40015068 38.5625 18.3125 C38.5625 17.6525 38.5625 16.9925 38.5625 16.3125 C38.00433594 16.05210937 37.44617188 15.79171875 36.87109375 15.5234375 C34.30222022 14.17597423 32.01379089 12.58271237 29.625 10.9375 C17.5001486 3.29565287 4.63213258 1.73829619 -9.4375 3.3125 C-12.8716182 4.15357976 -15.97552345 5.15151429 -19.22265625 6.53515625 C-21.4375 7.3125 -21.4375 7.3125 -24.4375 6.3125 C-23.468125 5.85875 -22.49875 5.405 -21.5 4.9375 C-18.36670418 3.65463779 -18.36670418 3.65463779 -17.4375 1.3125 C-12.01005967 -0.65403232 -5.68171468 0.0441813 0 0 Z " fill="#390ABD" transform="translate(378.4375,167.6875)"/>
<path d="M0 0 C0.99 0.495 0.99 0.495 2 1 C-16.57753039 20.35159416 -39.68505775 31.72834129 -66.69360352 32.59790039 C-82.82566143 32.73012061 -100.05836535 30.83095456 -114 22 C-114 21.67 -114 21.34 -114 21 C-110.535 20.505 -110.535 20.505 -107 20 C-106.67 20.66 -106.34 21.32 -106 22 C-103.66628629 22.74678839 -101.3687055 23.3914393 -99 24 C-97.7625 24.37125 -96.525 24.7425 -95.25 25.125 C-92.07814679 26.12998674 -92.07814679 26.12998674 -89 26 C-89 26.66 -89 27.32 -89 28 C-86.03 27.34 -83.06 26.68 -80 26 C-80.495 27.485 -80.495 27.485 -81 29 C-76.96112995 28.90608167 -72.92278224 28.79990508 -68.88452148 28.68261719 C-67.51221419 28.64445712 -66.13981129 28.60958204 -64.76733398 28.578125 C-62.7886771 28.53219318 -60.81033558 28.47326363 -58.83203125 28.4140625 C-57.64327393 28.3826416 -56.4545166 28.3512207 -55.22973633 28.31884766 C-52.08158602 28.00805438 -49.86507059 27.28113167 -47 26 C-44.46484375 25.62109375 -44.46484375 25.62109375 -41.9375 25.4375 C-37.38273259 25.14705748 -37.38273259 25.14705748 -33 24 C-32.505 22.515 -32.505 22.515 -32 21 C-30 19 -30 19 -28.1875 18.5625 C-25.83694983 18.07140498 -25.83694983 18.07140498 -23.4375 16.4375 C-21 15 -21 15 -18 15 C-17.67 13.02 -17.34 11.04 -17 9 C-16.05125 8.9175 -15.1025 8.835 -14.125 8.75 C-10.90165132 8.36247285 -10.90165132 8.36247285 -9.75 6 C-9.37875 5.01 -9.37875 5.01 -9 4 C-8.34 3.67 -7.68 3.34 -7 3 C-6.01 3.33 -5.02 3.66 -4 4 C-4 3.34 -4 2.68 -4 2 C-2.125 0.9375 -2.125 0.9375 0 0 Z " fill="#370E9D" transform="translate(449,288)"/>
<path d="M0 0 C3.0504093 2.20307338 4.98203273 3.97136467 7 7.1875 C8.7010857 10.23328511 8.7010857 10.23328511 11.625 10.625 C12.40875 10.74875 13.1925 10.8725 14 11 C15.96543148 13.75160407 16.45000601 16.70003609 17 20 C17.66 20 18.32 20 19 20 C19.391875 20.94875 19.78375 21.8975 20.1875 22.875 C22.28646781 26.49391001 23.29925601 26.53918 27 28 C27.625 30.5 27.625 30.5 28 33 C28.99 33.66 29.98 34.32 31 35 C35 40.6722408 35 40.6722408 35 44 C35.66 44 36.32 44 37 44 C37.91332685 45.45455758 38.82591569 46.90958488 39.734375 48.3671875 C41.14075227 50.1815878 42.49533535 51.10498024 44.4375 52.3125 C48.80844352 55.19506189 50.97616868 59.25285649 53 64 C53 64.66 53 65.32 53 66 C51 66 51 66 48.6875 63.875 C41 55.65116279 41 55.65116279 41 53 C40.44183594 52.79761719 39.88367188 52.59523438 39.30859375 52.38671875 C36.11979991 50.47128421 34.23172592 47.75998836 32.0625 44.8125 C31.62373535 44.22895752 31.1849707 43.64541504 30.73291016 43.04418945 C27.75886444 39.07456178 24.83813655 35.06799572 22 31 C18.10167392 34.59845484 15.13825565 38.75368725 12 43 C10.77790585 44.6303256 9.54873734 46.2553726 8.3125 47.875 C7.75175781 48.61492187 7.19101562 49.35484375 6.61328125 50.1171875 C5 52 5 52 2 54 C3.45098617 48.34115395 6.29048285 43.48351309 10 39 C11.485 38.505 11.485 38.505 13 38 C13.3721042 36.67696283 13.70630173 35.34262065 14 34 C14.99 33.505 14.99 33.505 16 33 C16.72159424 31.35636866 17.39351421 29.68949614 18 28 C18.99 28 19.98 28 21 28 C17.30495757 22.97083194 17.30495757 22.97083194 12 20 C11.34 20.33 10.68 20.66 10 21 C10.103125 20.113125 10.20625 19.22625 10.3125 18.3125 C9.90206867 13.96192785 8.1308896 12.90180012 5 10 C4.1875 7.6875 4.1875 7.6875 4 6 C3.34 6 2.68 6 2 6 C1.34 4.02 0.68 2.04 0 0 Z " fill="#5309BF" transform="translate(262,229)"/>
<path d="M0 0 C8.54977881 1.98612118 18.96396982 5.44595473 24 13 C23.443125 12.80664062 22.88625 12.61328125 22.3125 12.4140625 C21.549375 12.15367187 20.78625 11.89328125 20 11.625 C19.2575 11.36976563 18.515 11.11453125 17.75 10.8515625 C2.20212322 6.03702111 -14.07646061 6.14193336 -29 13 C-41.89793299 20.39179785 -50.50801016 31.92006546 -55 46 C-55.82692454 49.31640261 -56.49889681 52.61942327 -57 56 C-57.33 56 -57.66 56 -58 56 C-57.61567109 46.58394181 -56.31566835 35.97350253 -51 28 C-50.34 28 -49.68 28 -49 28 C-48.71125 27.21625 -48.4225 26.4325 -48.125 25.625 C-46.739711 22.39265901 -45.26599571 21.19463101 -42.4375 19.125 C-39.97247195 16.97600118 -39.33913334 16.16524451 -39 13 C-38.26394531 12.88527344 -37.52789062 12.77054688 -36.76953125 12.65234375 C-33.9594309 11.99044423 -32.13032708 11.06749584 -29.6875 9.5625 C-26.63368474 7.78238658 -23.95170023 6.58092159 -20.5 5.8125 C-19.345 5.544375 -18.19 5.27625 -17 5 C-16.67 4.34 -16.34 3.68 -16 3 C-15.34 3 -14.68 3 -14 3 C-14 3.66 -14 4.32 -14 5 C-7.07 4.01 -7.07 4.01 0 3 C0 2.01 0 1.02 0 0 Z " fill="#22054E" transform="translate(192,163)"/>
<path d="M0 0 C0.66 0.33 1.32 0.66 2 1 C2.625 3.0625 2.625 3.0625 3 5 C2.236875 5.391875 1.47375 5.78375 0.6875 6.1875 C-2.24716071 8.16668978 -3.40126898 9.8866817 -5 13 C-2.60280568 13.67958603 -2.60280568 13.67958603 0 14 C0.66 13.34 1.32 12.68 2 12 C2.99 12.33 3.98 12.66 5 13 C4.03900391 13.80050781 4.03900391 13.80050781 3.05859375 14.6171875 C-7.37107286 23.60131164 -13.19718885 33.75941963 -19 46 C-19.33 46 -19.66 46 -20 46 C-19.59375026 33.40625813 -16.62085624 23.54948115 -10.625 12.5625 C-10.26212891 11.88791748 -9.89925781 11.21333496 -9.52539062 10.51831055 C-6.94418237 5.98475167 -4.1794563 3.12555882 0 0 Z " fill="#9366F6" transform="translate(115,162)"/>
<path d="M0 0 C0 4.34495195 -2.23350338 6.01504002 -5.0625 9.140625 C-7.47343994 11.45434962 -9.94868049 12.67333934 -13 14 C-14.175625 14.9590625 -14.175625 14.9590625 -15.375 15.9375 C-20.67181157 20.09928052 -26.61280182 22.361374 -33.01953125 24.2890625 C-35.27378655 25.00849741 -35.27378655 25.00849741 -38 27 C-46.2887438 28.39218546 -54.87207944 28.12679337 -63.25 28.0625 C-64.38824219 28.05798828 -65.52648437 28.05347656 -66.69921875 28.04882812 C-69.46620409 28.03720214 -72.23307158 28.02086431 -75 28 C-75 27.34 -75 26.68 -75 26 C-75.60585938 25.82984375 -76.21171875 25.6596875 -76.8359375 25.484375 C-83.05949532 23.68433058 -89.02642961 21.50381567 -95 19 C-95 18.67 -95 18.34 -95 18 C-86.42 18 -77.84 18 -69 18 C-70.32 19.32 -71.64 20.64 -73 22 C-73.33 22.66 -73.66 23.32 -74 24 C-68.53447181 25.71467551 -64.50117259 26.8337242 -59 25 C-57.96875 25.185625 -56.9375 25.37125 -55.875 25.5625 C-50.19300412 26.20401566 -45.36898751 24.7896625 -40 23 C-39.34386719 22.83242188 -38.68773437 22.66484375 -38.01171875 22.4921875 C-29.19076932 20.14981774 -20.96608152 16.05605017 -13.20703125 11.28125 C-11 10 -11 10 -9 10 C-8.731875 9.401875 -8.46375 8.80375 -8.1875 8.1875 C-6.19789594 4.52243989 -3.34204172 2.42009918 0 0 Z " fill="#6505EC" transform="translate(459,261)"/>
<path d="M0 0 C0.99 0.495 0.99 0.495 2 1 C2 1.66 2 2.32 2 3 C2.66 3 3.32 3 4 3 C5.55859375 4.73046875 5.55859375 4.73046875 7.4375 7.1875 C8.51257813 8.55261719 8.51257813 8.55261719 9.609375 9.9453125 C10.82285895 11.49587532 12.0360782 13.0466744 13.24023438 14.60449219 C22.46253812 26.4466081 32.02326667 34.72623859 47.00390625 38.24609375 C49.61681852 38.90358015 51.66770086 39.68273569 54 41 C51.24915453 40.88588196 48.49988053 40.75914051 45.75 40.625 C44.97269531 40.5940625 44.19539063 40.563125 43.39453125 40.53125 C36.27568856 40.16618114 36.27568856 40.16618114 33 38 C33 37.34 33 36.68 33 36 C31.02 35.67 29.04 35.34 27 35 C27 34.34 27 33.68 27 33 C26.01 33 25.02 33 24 33 C22.97971135 31.68212715 21.98028616 30.34789347 21 29 C20.01 28.67 19.02 28.34 18 28 C15.92469613 25.07920195 15 23.62453269 15 20 C13.68 20.33 12.36 20.66 11 21 C9.5 18.5 9.5 18.5 8 16 C7.443125 15.113125 6.88625 14.22625 6.3125 13.3125 C5 11 5 11 5 9 C3.68 9.33 2.36 9.66 1 10 C0.67 6.7 0.34 3.4 0 0 Z " fill="#380774" transform="translate(320,237)"/>
<path d="M0 0 C3.51463012 1.89980007 5.89550678 3.56635317 8 7 C8 7.66 8 8.32 8 9 C8.66 9 9.32 9 10 9 C11.51772635 11.09576062 12.86531779 13.15826203 14.1875 15.375 C14.58461182 16.03894775 14.98172363 16.70289551 15.39086914 17.38696289 C27.30818306 38.01482803 31.36389454 60.45273822 28 84 C27.67 84 27.34 84 27 84 C26.97494385 83.04109863 26.9498877 82.08219727 26.92407227 81.09423828 C26.8300138 77.54201523 26.72978942 73.98998844 26.62768555 70.43798828 C26.58433074 68.89962347 26.54265605 67.36121037 26.50268555 65.82275391 C26.44499602 63.6134586 26.38129821 61.40440652 26.31640625 59.1953125 C26.29969376 58.50567413 26.28298126 57.81603577 26.26576233 57.10549927 C26.19193005 53.42885736 26.19193005 53.42885736 25 50 C24.960008 48.00039988 24.95653201 45.99952758 25 44 C24.01 44 23.02 44 22 44 C21.75765625 43.05898437 21.5153125 42.11796875 21.265625 41.1484375 C20.93046875 39.90320313 20.5953125 38.65796875 20.25 37.375 C19.92515625 36.14523438 19.6003125 34.91546875 19.265625 33.6484375 C17.9729452 29.92200868 16.20895664 27.23980306 14 24 C13.75 20.625 13.75 20.625 14 18 C13.34 18 12.68 18 12 18 C10.4921875 16.3203125 10.4921875 16.3203125 8.875 14.125 C8.33617187 13.40570313 7.79734375 12.68640625 7.2421875 11.9453125 C6 10 6 10 6 8 C5.34 8 4.68 8 4 8 C3.71125 7.195625 3.4225 6.39125 3.125 5.5625 C2.26737432 2.8673532 2.26737432 2.8673532 0 2 C0 1.34 0 0.68 0 0 Z " fill="#2907A5" transform="translate(447,156)"/>
<path d="M0 0 C0 3.99833488 -1.35814212 4.81158018 -4.0625 7.6875 C-7.03755689 10.88206658 -9.94455198 14.09325733 -12.75 17.4375 C-18.58641725 24.07342647 -27.56242656 27.47369523 -36.35913086 28.19287109 C-59.03307999 28.89393014 -59.03307999 28.89393014 -70 23 C-66.22420549 21.74140183 -65.60859968 22.50949144 -62 24 C-48.040058 28.11887398 -33.78006708 25.83342362 -21 19 C-12.69186564 14.08294089 -6.12930763 7.37432324 0 0 Z " fill="#270683" transform="translate(236,251)"/>
<path d="M0 0 C0 0.99 0 1.98 0 3 C-1.01191406 3.40089844 -2.02382812 3.80179688 -3.06640625 4.21484375 C-17.34361236 10.35723743 -28.15318082 21.66084269 -34 36 C-35.72209168 40.93570209 -37.01885975 45.86718295 -38 51 C-38.33 51 -38.66 51 -39 51 C-38.61567109 41.58394181 -37.31566835 30.97350253 -32 23 C-31.34 23 -30.68 23 -30 23 C-29.71125 22.21625 -29.4225 21.4325 -29.125 20.625 C-27.739711 17.39265901 -26.26599571 16.19463101 -23.4375 14.125 C-20.97247195 11.97600118 -20.33913334 11.16524451 -20 8 C-19.26652344 7.88527344 -18.53304687 7.77054688 -17.77734375 7.65234375 C-14.95028676 6.98832333 -13.03910925 6.0502314 -10.5625 4.5625 C-7.12001796 2.57069601 -3.84888916 1.08558412 0 0 Z " fill="#26067D" transform="translate(173,168)"/>
<path d="M0 0 C-4.03573758 0.17546685 -7.44799106 -0.04514509 -11.375 -1 C-16.2547745 -2.0634439 -20.9660004 -2.1916927 -25.9375 -2.1875 C-26.68370605 -2.18814453 -27.42991211 -2.18878906 -28.19873047 -2.18945312 C-31.38581819 -2.15747323 -33.95690396 -2.01436535 -37 -1 C-37.99 -1.33 -38.98 -1.66 -40 -2 C-40.33 -1.34 -40.66 -0.68 -41 0 C-42.98567708 -0.06510417 -44.97135417 -0.13020833 -46.95703125 -0.1953125 C-49.31359719 -0.13254462 -49.31359719 -0.13254462 -52 2 C-52.66 1.67 -53.32 1.34 -54 1 C-54 1.66 -54 2.32 -54 3 C-54.66386719 2.98839844 -55.32773438 2.97679687 -56.01171875 2.96484375 C-62.56306787 2.88106591 -62.56306787 2.88106591 -69 4 C-65.18862107 0.40911407 -60.62235017 -0.39979582 -55.6875 -1.625 C-54.85798828 -1.8415625 -54.02847656 -2.058125 -53.17382812 -2.28125 C-38.00465831 -6.16034315 -13.80272774 -9.20181849 0 0 Z " fill="#6246A4" transform="translate(217,132)"/>
<path d="M0 0 C0.33 0 0.66 0 1 0 C0.50424044 6.50282026 -0.72647113 11.85259415 -3.1875 17.875 C-3.50211182 18.65875 -3.81672363 19.4425 -4.14086914 20.25 C-8.41828319 30.70470294 -13.64624117 39.39572888 -21 48 C-22 46 -22 46 -21.44140625 44.0546875 C-21.15136719 43.33539063 -20.86132812 42.61609375 -20.5625 41.875 C-20.27503906 41.15054688 -19.98757813 40.42609375 -19.69140625 39.6796875 C-19.34916016 38.84824219 -19.34916016 38.84824219 -19 38 C-18.01 38 -17.02 38 -16 38 C-16.2475 37.4225 -16.495 36.845 -16.75 36.25 C-16.8325 35.5075 -16.915 34.765 -17 34 C-15.125 31.9375 -15.125 31.9375 -13 30 C-12.67 29.01 -12.34 28.02 -12 27 C-11.34 27 -10.68 27 -10 27 C-9.87625 26.360625 -9.7525 25.72125 -9.625 25.0625 C-9.41875 24.051875 -9.2125 23.04125 -9 22 C-8.8659375 21.24074219 -8.731875 20.48148437 -8.59375 19.69921875 C-8.4390625 18.89097656 -8.284375 18.08273437 -8.125 17.25 C-7.98320312 16.47140625 -7.84140625 15.6928125 -7.6953125 14.890625 C-7.46585937 14.26671875 -7.23640625 13.6428125 -7 13 C-6.01 12.67 -5.02 12.34 -4 12 C-3.00791599 9.73801919 -3.00791599 9.73801919 -2.375 7.0625 C-1.04334365 2.08668731 -1.04334365 2.08668731 0 0 Z " fill="#4812C0" transform="translate(473,240)"/>
<path d="M0 0 C1.12892226 3.59031573 1.08428222 6.89757172 1.02734375 10.64453125 C1.01509766 11.96259766 1.00285156 13.28066406 0.99023438 14.63867188 C0.96575796 16.70705035 0.93811324 18.7752623 0.90405273 20.84350586 C0.76875653 29.63136733 1.19777554 38.01180505 2.56469727 46.7019043 C2.97983505 49.84721909 3.0767058 52.83220074 3 56 C-3.0324408 46.95133879 -3.36410099 36.25844563 -3.3125 25.6875 C-3.31121094 24.59187744 -3.30992188 23.49625488 -3.30859375 22.36743164 C-3.21572693 14.5474654 -2.49173928 7.46038607 0 0 Z " fill="#3610A2" transform="translate(95,199)"/>
<path d="M0 0 C-3.23432773 0.97505468 -6.06874194 1.07846336 -9.4375 0.9921875 C-10.49839844 0.97542969 -11.55929687 0.95867187 -12.65234375 0.94140625 C-14.85304793 0.89775167 -17.05360769 0.84590879 -19.25390625 0.78515625 C-26.01361478 0.69567756 -31.88742272 1.42769862 -38.39257812 3.29321289 C-40.79102145 3.94335272 -43.03265377 4.31525559 -45.5 4.5625 C-48.67412898 4.95926612 -50.25198098 5.57861085 -53 7 C-55.75 7.125 -55.75 7.125 -58 7 C-58.33 7.99 -58.66 8.98 -59 10 C-63.455 10.495 -63.455 10.495 -68 11 C-61.94539946 6.15631957 -56.17492867 3.4570974 -48.6875 1.8125 C-43.71491504 0.78845349 -43.71491504 0.78845349 -39 -1 C-26.51935219 -3.2565457 -12.28446784 -3.03052951 0 0 Z " fill="#290896" transform="translate(400,129)"/>
<path d="M0 0 C0.66 0 1.32 0 2 0 C3.5078125 1.828125 3.5078125 1.828125 5.125 4.25 C5.66382813 5.03890625 6.20265625 5.8278125 6.7578125 6.640625 C8 9 8 9 8 13 C6.125 15.125 6.125 15.125 4 17 C3.34 17.66 2.68 18.32 2 19 C1.319375 19.474375 0.63875 19.94875 -0.0625 20.4375 C-2.27907585 21.93730305 -2.27907585 21.93730305 -3 25 C-3.99 25.33 -4.98 25.66 -6 26 C-6.78375 26.78375 -7.5675 27.5675 -8.375 28.375 C-10.80212247 30.80212247 -13.00305716 32.37308817 -16 34 C-14.25731793 30.03935893 -11.85325271 26.25563451 -9 23 C-8.34 23 -7.68 23 -7 23 C-6.773125 22.278125 -6.54625 21.55625 -6.3125 20.8125 C-4.74378003 17.4509572 -2.64358778 15.57911003 0 13 C2.00864359 10.6273026 2.00864359 10.6273026 3 8 C2.33903214 5.34754398 2.33903214 5.34754398 1 3 C0.67 2.01 0.34 1.02 0 0 Z " fill="#290263" transform="translate(253,217)"/>
<path d="M0 0 C4.2627925 3.80066077 5.59849759 8.81735894 6.30029297 14.38037109 C6.43711555 16.82463389 6.46696887 19.23966751 6.4375 21.6875 C6.43210205 22.55383057 6.4267041 23.42016113 6.42114258 24.31274414 C6.20116446 33.71615637 4.50880631 43.1488666 -1 51 C-1.66 51 -2.32 51 -3 51 C-3.061875 51.5775 -3.12375 52.155 -3.1875 52.75 C-4.3205902 55.88778826 -6.37717725 57.01689011 -9 59 C-9.66 59.99 -10.32 60.98 -11 62 C-11.66 61.67 -12.32 61.34 -13 61 C-12.14728516 60.12214844 -12.14728516 60.12214844 -11.27734375 59.2265625 C-0.40341337 47.13634943 4.30288246 33.45722326 3.4453125 17.25 C3.07228826 12.91144119 2.22718651 8.88529837 0.65625 4.8125 C0 3 0 3 0 0 Z " fill="#2E098F" transform="translate(429,202)"/>
<path d="M0 0 C6.36702772 0.44560625 11.0002739 2.72638613 16.5625 5.75 C17.7990332 6.39582031 17.7990332 6.39582031 19.06054688 7.0546875 C26.92061516 11.25175034 33.99213071 16.48819607 39 24 C37.68 24 36.36 24 35 24 C35 23.34 35 22.68 35 22 C34.34 22 33.68 22 33 22 C33 21.34 33 20.68 33 20 C32.34 20 31.68 20 31 20 C31 19.34 31 18.68 31 18 C30.236875 18.0825 29.47375 18.165 28.6875 18.25 C26 18 26 18 24.4375 16.125 C23.963125 15.42375 23.48875 14.7225 23 14 C20.91665365 12.7483533 20.91665365 12.7483533 19 12 C19 11.34 19 10.68 19 10 C18.36191406 9.81824219 17.72382813 9.63648438 17.06640625 9.44921875 C16.24011719 9.19785156 15.41382813 8.94648438 14.5625 8.6875 C13.73878906 8.44386719 12.91507812 8.20023438 12.06640625 7.94921875 C11.38449219 7.63597656 10.70257813 7.32273438 10 7 C9.67 6.01 9.34 5.02 9 4 C8.2575 4.0825 7.515 4.165 6.75 4.25 C3.21842973 3.92894816 2.23369636 2.64734383 0 0 Z " fill="#2908AD" transform="translate(408,132)"/>
<path d="M0 0 C0.33 0.66 0.66 1.32 1 2 C3.31939207 2.7136591 5.65523449 3.3747292 8 4 C11.05769188 5.08717933 12.69879802 5.69879802 15 8 C17.39993356 8.42442445 17.39993356 8.42442445 20.0625 8.5625 C24.90277778 8.90277778 24.90277778 8.90277778 26 10 C28.07262076 10.08767112 30.14820294 10.10695873 32.22265625 10.09765625 C34.11274414 10.09282227 34.11274414 10.09282227 36.04101562 10.08789062 C37.38151109 10.07953403 38.72200588 10.07106907 40.0625 10.0625 C41.40689942 10.0574866 42.7513006 10.05292342 44.09570312 10.04882812 C47.39717941 10.03699488 50.69856803 10.02050971 54 10 C42.59270326 16.68726656 22.05363081 12.27575553 9.89794922 9.14160156 C3.91883058 7.45757565 -1.72708605 5.33998592 -7 2 C-7 1.67 -7 1.34 -7 1 C-2.25 0 -2.25 0 0 0 Z " fill="#390887" transform="translate(342,308)"/>
<path d="M0 0 C-1.28965176 1.37562854 -2.62689293 2.70766393 -4 4 C-4.66 4 -5.32 4 -6 4 C-6 4.66 -6 5.32 -6 6 C-8 7.33333333 -10 8.66666667 -12 10 C-13.02323436 11.31558703 -14.03126968 12.64377755 -15 14 C-15.66 14 -16.32 14 -17 14 C-17.309375 14.61875 -17.61875 15.2375 -17.9375 15.875 C-18.625 17.25 -19.3125 18.625 -20 20 C-20.66 20 -21.32 20 -22 20 C-22.28875 20.639375 -22.5775 21.27875 -22.875 21.9375 C-24 24 -24 24 -26 25 C-24.78338015 19.93075062 -23.33634709 16.1451585 -20 12 C-19.01 12 -18.02 12 -17 12 C-17 11.01 -17 10.02 -17 9 C-16.34 9 -15.68 9 -15 9 C-15 8.01 -15 7.02 -15 6 C-13.02 5.67 -11.04 5.34 -9 5 C-8.896875 4.360625 -8.79375 3.72125 -8.6875 3.0625 C-8.460625 2.381875 -8.23375 1.70125 -8 1 C-5.07175348 0.02391783 -3.04386724 -0.08226668 0 0 Z " fill="#590BB8" transform="translate(354,175)"/>
<path d="M0 0 C8.58 0 17.16 0 26 0 C24.68 1.32 23.36 2.64 22 4 C21.67 4.66 21.34 5.32 21 6 C23.31 6.66 25.62 7.32 28 8 C28 8.33 28 8.66 28 9 C20.94260926 9.52765538 15.94101552 7.77113458 9.5 5 C8.12328125 4.42765625 8.12328125 4.42765625 6.71875 3.84375 C4.47358469 2.90826445 2.23465307 1.96026235 0 1 C0 0.67 0 0.34 0 0 Z " fill="#7D03E7" transform="translate(364,279)"/>
<path d="M0 0 C1.08990234 0.00064453 2.17980469 0.00128906 3.30273438 0.00195312 C20.66192466 0.09589943 20.66192466 0.09589943 26 3.125 C26.92232422 3.63353516 26.92232422 3.63353516 27.86328125 4.15234375 C28.46527344 4.49394531 29.06726563 4.83554688 29.6875 5.1875 C31.0175563 5.86068086 32.35005892 6.52911289 33.6875 7.1875 C33.6875 7.8475 33.6875 8.5075 33.6875 9.1875 C31.7075 9.1875 29.7275 9.1875 27.6875 9.1875 C27.6875 8.1975 27.6875 7.2075 27.6875 6.1875 C26.0375 6.1875 24.3875 6.1875 22.6875 6.1875 C22.6875 5.5275 22.6875 4.8675 22.6875 4.1875 C20.0475 4.8475 17.4075 5.5075 14.6875 6.1875 C14.6875 5.5275 14.6875 4.8675 14.6875 4.1875 C14.0275 4.1875 13.3675 4.1875 12.6875 4.1875 C12.6875 3.5275 12.6875 2.8675 12.6875 2.1875 C11.615 2.373125 10.5425 2.55875 9.4375 2.75 C6.04982614 3.14522862 4.7921716 3.01461328 1.6875 2.1875 C-4.8570153 1.64000164 -10.95488426 2.70095937 -17.3125 4.1875 C-17.6425 3.5275 -17.9725 2.8675 -18.3125 2.1875 C-12.34240636 -0.45774289 -6.39459584 -0.07109264 0 0 Z " fill="#3509D6" transform="translate(383.3125,128.8125)"/>
<path d="M0 0 C0 3.53105585 -0.50159211 3.88979005 -2.8125 6.375 C-5.27107253 9.12011944 -7.1347924 11.81360368 -9 15 C-10.95669015 17.69992904 -12.9711684 20.35398338 -15 23 C-12.6163187 27.34170523 -10.21880117 31.2064129 -7 35 C-7.33 35.66 -7.66 36.32 -8 37 C-10 36 -10 36 -11.25 33.6875 C-13.3604498 30.44645209 -15.71311833 28.972129 -19 27 C-18.67 24.69 -18.34 22.38 -18 20 C-17.34 20 -16.68 20 -16 20 C-15.896875 19.443125 -15.79375 18.88625 -15.6875 18.3125 C-14.4672444 14.2080039 -12.28159834 10.75654261 -9 8 C-8.38125 7.731875 -7.7625 7.46375 -7.125 7.1875 C-3.94925638 5.41281974 -2.23460925 2.85533405 0 0 Z " fill="#4F0898" transform="translate(327,200)"/>
<path d="M0 0 C15.9247769 -0.35564018 15.9247769 -0.35564018 23.56640625 1.5 C26.44559819 2.09155147 29.25442369 2.26347322 32.1875 2.4375 C37.97355448 2.86141402 42.44558644 3.77518819 46.9375 7.6875 C47.288125 8.120625 47.63875 8.55375 48 9 C47.67 9.66 47.34 10.32 47 11 C46.01 11.33 45.02 11.66 44 12 C43.66548828 11.06220703 43.66548828 11.06220703 43.32421875 10.10546875 C41.52480462 7.24445336 40.05527147 7.08629236 36.8125 6.3125 C35.82765625 6.07402344 34.8428125 5.83554688 33.828125 5.58984375 C30.56540415 4.90935915 27.30784512 4.40504226 24 4 C23.236875 3.773125 22.47375 3.54625 21.6875 3.3125 C21.130625 3.209375 20.57375 3.10625 20 3 C19.34 3.66 18.68 4.32 18 5 C17.66355469 4.51917969 17.32710937 4.03835937 16.98046875 3.54296875 C14.02951258 1.24390033 10.91291058 1.43016048 7.3125 1.3125 C6.2596582 1.26125977 6.2596582 1.26125977 5.18554688 1.20898438 C3.45758613 1.12670053 1.72881928 1.0616676 0 1 C0 0.67 0 0.34 0 0 Z " fill="#7B56D9" transform="translate(184,129)"/>
<path d="M0 0 C3.21138182 2.26685776 5.44429668 4.52965906 7.625 7.75 C10.17636119 11.3351595 12.9176227 13.48638117 16.5625 15.9375 C21.74160584 19.50078127 24.78311138 23.09646236 27 29 C27 29.66 27 30.32 27 31 C25 31 25 31 22.6875 28.875 C15 20.65116279 15 20.65116279 15 18 C14.44699219 17.80277344 13.89398438 17.60554688 13.32421875 17.40234375 C10.04378474 15.42305668 8.06431169 12.58806197 5.8125 9.5625 C5.36197266 8.97662109 4.91144531 8.39074219 4.44726562 7.78710938 C2.49711047 5.21126726 1.02848232 3.08544696 0 0 Z " fill="#390576" transform="translate(288,264)"/>
<path d="M0 0 C2.475 0.495 2.475 0.495 5 1 C4 3 4 3 2.3125 4.625 C-0.81173341 7.83367215 -3.34176744 11.40319717 -6 15 C-7.22209415 16.6303256 -8.45126266 18.2553726 -9.6875 19.875 C-10.24824219 20.61492187 -10.80898438 21.35484375 -11.38671875 22.1171875 C-13 24 -13 24 -16 26 C-14.54901383 20.34115395 -11.70951715 15.48351309 -8 11 C-7.01 10.67 -6.02 10.34 -5 10 C-4.6278958 8.67696283 -4.29369827 7.34262065 -4 6 C-3.34 5.67 -2.68 5.34 -2 5 C-1.27840576 3.35636866 -0.60648579 1.68949614 0 0 Z " fill="#2E067D" transform="translate(280,257)"/>
<path d="M0 0 C0 3.94991499 -1.55508641 4.97981263 -4 8 C-4.70211894 9.65204456 -5.36971413 11.31923769 -6 13 C-6.8353125 14.2375 -6.8353125 14.2375 -7.6875 15.5 C-9.27120065 17.94986442 -9.27120065 17.94986442 -8.6875 20.8125 C-8.3471875 21.8953125 -8.3471875 21.8953125 -8 23 C-12.455 22.01 -12.455 22.01 -17 21 C-16.67 19.35 -16.34 17.7 -16 16 C-16.66 15.67 -17.32 15.34 -18 15 C-17.67 14.01 -17.34 13.02 -17 12 C-15 12 -15 12 -13.375 13.5 C-12.92125 13.995 -12.4675 14.49 -12 15 C-11.21753906 14.00097656 -10.43507813 13.00195312 -9.62890625 11.97265625 C-8.60680564 10.66924354 -7.58466832 9.36585961 -6.5625 8.0625 C-6.04623047 7.40314453 -5.52996094 6.74378906 -4.99804688 6.06445312 C-4.50498047 5.43603516 -4.01191406 4.80761719 -3.50390625 4.16015625 C-3.04830322 3.57886963 -2.5927002 2.99758301 -2.12329102 2.39868164 C-1 1 -1 1 0 0 Z " fill="#5109A4" transform="translate(297,171)"/>
<path d="M0 0 C0.66 0.33 1.32 0.66 2 1 C-3.51874642 6.99863741 -9.28542907 12.93548996 -17 16 C-19.29296875 15.6484375 -19.29296875 15.6484375 -21 15 C-20.01 15 -19.02 15 -18 15 C-17.67 13.02 -17.34 11.04 -17 9 C-15.576875 8.87625 -15.576875 8.87625 -14.125 8.75 C-10.90165132 8.36247285 -10.90165132 8.36247285 -9.75 6 C-9.5025 5.34 -9.255 4.68 -9 4 C-8.34 3.67 -7.68 3.34 -7 3 C-6.01 3.33 -5.02 3.66 -4 4 C-4 3.34 -4 2.68 -4 2 C-2.125 0.9375 -2.125 0.9375 0 0 Z " fill="#4711CB" transform="translate(449,288)"/>
<path d="M0 0 C1.60080151 4.00200378 0.29279692 7.04556236 -1 11 C-1.66 11 -2.32 11 -3 11 C-2.95359375 11.70125 -2.9071875 12.4025 -2.859375 13.125 C-2.59787152 19.99880578 -3.44181398 24.10675441 -7 30 C-7.33 30 -7.66 30 -8 30 C-7.64732194 19.06698009 -5.92731024 9.34821501 0 0 Z " fill="#7C54DB" transform="translate(103,178)"/>
<path d="M0 0 C0.66 0.33 1.32 0.66 2 1 C-0.75503843 4.28521764 -3.49103347 7.50344729 -6.5625 10.5 C-8.59553481 12.5851639 -9.94601097 14.39679743 -11.5 16.8125 C-12.73046875 18.6171875 -12.73046875 18.6171875 -14 20 C-16.8125 20.4375 -16.8125 20.4375 -19 20 C-17.59728106 15.09048372 -14.91739783 13.11792889 -11 10 C-10.484375 9.29875 -9.96875 8.5975 -9.4375 7.875 C-7.62550259 5.51152512 -5.56593356 4.4754118 -3 3 C-1.24850835 1.41754725 -1.24850835 1.41754725 0 0 Z " fill="#684CAC" transform="translate(133,143)"/>
<path d="M0 0 C7.2274605 -0.24091535 13.90294338 0.65504172 21 2 C21 2.33 21 2.66 21 3 C16.38 3 11.76 3 7 3 C12.94 5.31 18.88 7.62 25 10 C21.32369827 11.22543391 20.44796514 10.6169412 16.9375 9.1875 C11.68440089 7.16330581 6.54502489 5.91414727 1 5 C0.67 3.35 0.34 1.7 0 0 Z " fill="#6400CB" transform="translate(359,277)"/>
<path d="M0 0 C7.61541045 14.40664229 7.24926386 32.25515296 5 48 C4.67 48 4.34 48 4 48 C3.97494385 47.04109863 3.9498877 46.08219727 3.92407227 45.09423828 C3.8300138 41.54201523 3.72978942 37.98998844 3.62768555 34.43798828 C3.58433074 32.89962347 3.54265605 31.36121037 3.50268555 29.82275391 C3.44499602 27.6134586 3.38129821 25.40440652 3.31640625 23.1953125 C3.29133751 22.16085495 3.29133751 22.16085495 3.26576233 21.10549927 C3.19193005 17.42885736 3.19193005 17.42885736 2 14 C1.960008 12.00039988 1.95653201 9.99952758 2 8 C1.34 8 0.68 8 0 8 C0 5.36 0 2.72 0 0 Z " fill="#14025D" transform="translate(470,192)"/>
<path d="M0 0 C0.33 0 0.66 0 1 0 C0.50712018 6.61116137 -0.80938182 12.00626666 -3.3125 18.125 C-3.60833984 18.88425781 -3.90417969 19.64351563 -4.20898438 20.42578125 C-6.11488798 25.20906416 -8.34854892 29.58676796 -11 34 C-11.33 33.34 -11.66 32.68 -12 32 C-11.00390625 29.93359375 -11.00390625 29.93359375 -9.5625 27.4375 C-6.84471445 22.27971361 -6.53526293 18.76273972 -7 13 C-6.01 12.67 -5.02 12.34 -4 12 C-3.00791599 9.73801919 -3.00791599 9.73801919 -2.375 7.0625 C-1.04334365 2.08668731 -1.04334365 2.08668731 0 0 Z " fill="#2F077F" transform="translate(473,240)"/>
<path d="M0 0 C3.08917348 0.3432415 4.77105979 0.82193539 7.25 2.75 C9.17806461 5.22894021 9.6567585 6.91082652 10 10 C10.66 10 11.32 10 12 10 C12 10.66 12 11.32 12 12 C12.99 12.33 13.98 12.66 15 13 C16.16796875 14.7421875 16.16796875 14.7421875 17.1875 16.875 C17.53167969 17.57367188 17.87585938 18.27234375 18.23046875 18.9921875 C19 21 19 21 19 24 C16.86538835 21.3910302 14.730979 18.78189903 12.59765625 16.171875 C10.881473 14.07381343 9.15984847 11.98040632 7.43359375 9.890625 C6.22896484 8.42882812 6.22896484 8.42882812 5 6.9375 C3.88625 5.58978516 3.88625 5.58978516 2.75 4.21484375 C1 2 1 2 0 0 Z " fill="#3716A3" transform="translate(232,191)"/>
<path d="M0 0 C0.66 0 1.32 0 2 0 C2.33 0.99 2.66 1.98 3 3 C2.21625 3.4125 1.4325 3.825 0.625 4.25 C-2.13999076 6.09332717 -2.64822635 7.10334219 -4 10 C-4.99 10.33 -5.98 10.66 -7 11 C-7.78375 11.78375 -8.5675 12.5675 -9.375 13.375 C-11.80212247 15.80212247 -14.00305716 17.37308817 -17 19 C-14.2862188 12.83231546 -10.92212237 8.2571673 -5 5 C-4.113125 4.113125 -3.22625 3.22625 -2.3125 2.3125 C-1.549375 1.549375 -0.78625 0.78625 0 0 Z " fill="#350584" transform="translate(254,232)"/>
<path d="M0 0 C-20.38271208 10.86086118 -20.38271208 10.86086118 -31 10 C-31 9.34 -31 8.68 -31 8 C-29.2365625 7.814375 -29.2365625 7.814375 -27.4375 7.625 C-23.45879574 7.13564065 -19.82233441 6.1944795 -16 5 C-16 4.34 -16 3.68 -16 3 C-13.18207306 1.47870459 -10.56006978 0.51521029 -7.4375 -0.1875 C-6.67308594 -0.36667969 -5.90867188 -0.54585938 -5.12109375 -0.73046875 C-3 -1 -3 -1 0 0 Z " fill="#290791" transform="translate(236,308)"/>
<path d="M0 0 C-1.7578125 0.94401042 -3.515625 1.88802083 -5.2734375 2.83203125 C-7.30502365 4.04763493 -7.30502365 4.04763493 -9 7 C-9.99 7 -10.98 7 -12 7 C-16.57627372 9.3761418 -16.57627372 9.3761418 -18.875 13.75 C-18.91625 14.4925 -18.9575 15.235 -19 16 C-20.98 15.67 -22.96 15.34 -25 15 C-21.41119288 10.27644625 -17.86270798 7.25350924 -12.8125 4.1875 C-12.18408203 3.79369141 -11.55566406 3.39988281 -10.90820312 2.99414062 C-4.12271099 -1.2368133 -4.12271099 -1.2368133 0 0 Z " fill="#420BC8" transform="translate(136,168)"/>
<path d="M0 0 C3.65972473 3.54882398 7.02230742 7.27681821 10.3515625 11.13671875 C11.65184126 12.60646512 13.0319956 14.00553418 14.4375 15.375 C16 17 16 17 16 19 C13.69 18.34 11.38 17.68 9 17 C9 16.01 9 15.02 9 14 C8.34 14 7.68 14 7 14 C7 12.35 7 10.7 7 9 C4.03 8.505 4.03 8.505 1 8 C0.17361624 5.10765685 0 3.11257569 0 0 Z " fill="#301890" transform="translate(259,157)"/>
<path d="M0 0 C0.99 0 1.98 0 3 0 C3 0.66 3 1.32 3 2 C5.97 1.34 8.94 0.68 12 0 C11.67 0.99 11.34 1.98 11 3 C18.59 3 26.18 3 34 3 C32 5 32 5 29.86108398 5.24291992 C28.56666382 5.23675659 28.56666382 5.23675659 27.24609375 5.23046875 C25.84133789 5.22756836 25.84133789 5.22756836 24.40820312 5.22460938 C23.42787109 5.21236328 22.44753906 5.20011719 21.4375 5.1875 C20.45330078 5.18685547 19.46910156 5.18621094 18.45507812 5.18554688 C11.14017532 5.14017532 11.14017532 5.14017532 10 4 C8.31816052 3.76712992 6.6287584 3.58735834 4.9375 3.4375 C3.55884766 3.31181641 3.55884766 3.31181641 2.15234375 3.18359375 C1.08693359 3.09271484 1.08693359 3.09271484 0 3 C0 2.01 0 1.02 0 0 Z " fill="#4B10BC" transform="translate(357,314)"/>
<path d="M0 0 C0.66 0.33 1.32 0.66 2 1 C1.21625 1.886875 0.4325 2.77375 -0.375 3.6875 C-2.14432878 5.7848504 -3.08667081 7.21667702 -4.125 9.8125 C-4.41375 10.534375 -4.7025 11.25625 -5 12 C-5.99 12.33 -6.98 12.66 -8 13 C-8.33 13.99 -8.66 14.98 -9 16 C-10.97300116 17.05226728 -12.97676387 18.04788888 -15 19 C-16.35863401 19.96534522 -17.70343137 20.95277149 -19 22 C-17.42491141 18.33620697 -15.15806427 15.70148695 -12.5 12.75 C-11.7059375 11.85796875 -10.911875 10.9659375 -10.09375 10.046875 C-8 8 -8 8 -6 8 C-5.7525 7.4225 -5.505 6.845 -5.25 6.25 C-3.83316683 3.6997003 -2.12372463 1.98214299 0 0 Z " fill="#480998" transform="translate(317,149)"/>
<path d="M0 0 C3.54552111 0.53720017 6.44987751 1.64109516 9.703125 3.109375 C13.95770876 4.75911156 18.39132826 5.84771477 22.79296875 7.03515625 C25.41367992 7.82360407 27.62269074 8.67271815 30 10 C27.24915453 9.88588196 24.49988053 9.75914051 21.75 9.625 C20.97269531 9.5940625 20.19539063 9.563125 19.39453125 9.53125 C12.27568856 9.16618114 12.27568856 9.16618114 9 7 C9 6.34 9 5.68 9 5 C6.03 4.505 6.03 4.505 3 4 C3 3.34 3 2.68 3 2 C2.01 2 1.02 2 0 2 C0 1.34 0 0.68 0 0 Z " fill="#5E0FB1" transform="translate(344,268)"/>
<path d="M0 0 C1.31712811 3.62210231 0.68301982 5.67244777 -0.75 9.1875 C-1.26820313 10.50814453 -1.26820313 10.50814453 -1.796875 11.85546875 C-3 14 -3 14 -6 15 C-6.12375 15.598125 -6.2475 16.19625 -6.375 16.8125 C-7.2845666 19.99598308 -9.41231816 21.04346007 -12 23 C-12.66 23.99 -13.32 24.98 -14 26 C-14.66 25.67 -15.32 25.34 -16 25 C-15.40832031 24.34515625 -14.81664062 23.6903125 -14.20703125 23.015625 C-8.50711452 16.43236066 -4.85486751 10.22029691 -2 2 C-1.34 2 -0.68 2 0 2 C0 1.34 0 0.68 0 0 Z " fill="#3B0993" transform="translate(432,238)"/>
<path d="M0 0 C-7.44501883 4.96334588 -19.56881112 3.12912069 -28.25 3.0625 C-29.38824219 3.05798828 -30.52648437 3.05347656 -31.69921875 3.04882812 C-34.46620409 3.03720214 -37.23307158 3.02086431 -40 3 C-40 2.67 -40 2.34 -40 2 C-38.64455078 1.90912109 -38.64455078 1.90912109 -37.26171875 1.81640625 C-36.08222656 1.73261719 -34.90273438 1.64882813 -33.6875 1.5625 C-31.92986328 1.44068359 -31.92986328 1.44068359 -30.13671875 1.31640625 C-26.97409042 1.1132629 -26.97409042 1.1132629 -24 0 C-21.66585471 0.32759934 -19.33247761 0.66073053 -17 1 C-16.34 0.67 -15.68 0.34 -15 0 C-13.21439008 -0.25508713 -11.4208497 -0.45648863 -9.625 -0.625 C-8.66851562 -0.72039062 -7.71203125 -0.81578125 -6.7265625 -0.9140625 C-4.21530604 -0.99321385 -2.37698275 -0.75477651 0 0 Z " fill="#6903E0" transform="translate(424,286)"/>
<path d="M0 0 C0 4.01744904 -1.40717217 4.86174733 -4.125 7.75 C-6.93388361 10.74264235 -9.55277277 13.70937807 -12 17 C-15.23200126 20.8802275 -19.14613902 21.47146847 -24 22 C-22.16376239 20.08298948 -20.56522412 18.71689012 -18.3125 17.25 C-11.16016303 12.57619564 -5.43305108 6.53663958 0 0 Z " fill="#23066F" transform="translate(236,251)"/>
<path d="M0 0 C1.60488281 0.07250977 1.60488281 0.07250977 3.2421875 0.14648438 C4.90894531 0.2305957 4.90894531 0.2305957 6.609375 0.31640625 C8.29933594 0.3947168 8.29933594 0.3947168 10.0234375 0.47460938 C12.80237472 0.60413611 15.58093924 0.73909678 18.359375 0.87890625 C18.359375 1.20890625 18.359375 1.53890625 18.359375 1.87890625 C17.05484375 1.9046875 15.7503125 1.93046875 14.40625 1.95703125 C5.2243794 2.22592324 -2.86316433 2.57408043 -11.42578125 6.13671875 C-13.640625 6.87890625 -13.640625 6.87890625 -16.640625 5.87890625 C-15.67125 5.42515625 -14.701875 4.97140625 -13.703125 4.50390625 C-10.56982918 3.22104404 -10.56982918 3.22104404 -9.640625 0.87890625 C-6.41045504 -0.31603527 -3.40546796 -0.16302772 0 0 Z " fill="#300693" transform="translate(370.640625,168.12109375)"/>
<path d="M0 0 C0 0.99 0 1.98 0 3 C-0.969375 3.37125 -1.93875 3.7425 -2.9375 4.125 C-6.93067581 5.8097476 -10.29164924 8.15747833 -13.7890625 10.6953125 C-16.20842052 12.1229902 -18.23568826 12.60232708 -21 13 C-20.67 11.35 -20.34 9.7 -20 8 C-19.26652344 7.88527344 -18.53304687 7.77054688 -17.77734375 7.65234375 C-14.95028676 6.98832333 -13.03910925 6.0502314 -10.5625 4.5625 C-7.12001796 2.57069601 -3.84888916 1.08558412 0 0 Z " fill="#30077F" transform="translate(173,168)"/>
<path d="M0 0 C0 4.23884182 -2.15494861 6.29829809 -4.58984375 9.6484375 C-6.08850111 12.14758356 -6.44203488 14.17202292 -7 17 C-9.375 18.6875 -9.375 18.6875 -12 20 C-12.99 20.66 -13.98 21.32 -15 22 C-14 20 -14 20 -13 18 C-12.62875 17.13375 -12.2575 16.2675 -11.875 15.375 C-8.73656347 9.72581424 -4.57105877 4.57105877 0 0 Z " fill="#780AE6" transform="translate(303,166)"/>
<path d="M0 0 C1.65 0.33 3.3 0.66 5 1 C5.33 1.99 5.66 2.98 6 4 C4.890625 5.9375 4.890625 5.9375 3.25 8 C2.71890625 8.680625 2.1878125 9.36125 1.640625 10.0625 C0.16607624 11.80387186 -1.35806315 13.41741026 -3 15 C-3 12.36 -3 9.72 -3 7 C-2.34 7 -1.68 7 -1 7 C-0.67 4.69 -0.34 2.38 0 0 Z " fill="#8F5FFA" transform="translate(103,182)"/>
<path d="M0 0 C3.51463012 1.89980007 5.89550678 3.56635317 8 7 C8 7.66 8 8.32 8 9 C8.66 9 9.32 9 10 9 C11.76171875 11.3359375 11.76171875 11.3359375 13.6875 14.375 C14.65236328 15.87160156 14.65236328 15.87160156 15.63671875 17.3984375 C16.08660156 18.25695312 16.53648437 19.11546875 17 20 C16.67 20.66 16.34 21.32 16 22 C15.34 20.68 14.68 19.36 14 18 C13.34 18 12.68 18 12 18 C10.4921875 16.3203125 10.4921875 16.3203125 8.875 14.125 C8.33617187 13.40570313 7.79734375 12.68640625 7.2421875 11.9453125 C6 10 6 10 6 8 C5.34 8 4.68 8 4 8 C3.71125 7.195625 3.4225 6.39125 3.125 5.5625 C2.26737432 2.8673532 2.26737432 2.8673532 0 2 C0 1.34 0 0.68 0 0 Z " fill="#22078A" transform="translate(447,156)"/>
<path d="M0 0 C2.31284456 0.14026283 4.62527591 0.28735558 6.9375 0.4375 C8.86916016 0.55931641 8.86916016 0.55931641 10.83984375 0.68359375 C14 1 14 1 15 2 C17.07262076 2.08767112 19.14820294 2.10695873 21.22265625 2.09765625 C23.11274414 2.09282227 23.11274414 2.09282227 25.04101562 2.08789062 C26.38151109 2.07953403 27.72200588 2.07106907 29.0625 2.0625 C30.40689942 2.0574866 31.7513006 2.05292342 33.09570312 2.04882812 C36.39717941 2.03699488 39.69856803 2.02050971 43 2 C37.87809295 5.04826661 32.35439989 4.33837474 26.5625 4.3125 C25.39283691 4.31121094 24.22317383 4.30992187 23.01806641 4.30859375 C14.97084668 4.21894362 7.66723732 3.60748152 0 1 C0 0.67 0 0.34 0 0 Z " fill="#20035E" transform="translate(353,316)"/>
<path d="M0 0 C-2 2 -2 2 -4.8125 2.875 C-8.10104453 3.82111678 -8.10104453 3.82111678 -10.5625 6.1875 C-13 8 -13 8 -15.8125 7.75 C-16.534375 7.5025 -17.25625 7.255 -18 7 C-18 6.01 -18 5.02 -18 4 C-12.20906558 0.75707672 -6.59189297 -0.26905686 0 0 Z " fill="#8661DB" transform="translate(160,134)"/>
<path d="M0 0 C4.65954056 3.25748061 7.30837304 7.04130915 10.3125 11.75 C10.76689453 12.44738281 11.22128906 13.14476562 11.68945312 13.86328125 C12.80043539 15.57068558 13.90126295 17.28469011 15 19 C14.67 19.66 14.34 20.32 14 21 C13.01 21 12.02 21 11 21 C10.87625 20.443125 10.7525 19.88625 10.625 19.3125 C9.2880378 14.36573987 8.14352147 12.03858241 4 9 C4 8.01 4 7.02 4 6 C3.34 6 2.68 6 2 6 C1.34 4.02 0.68 2.04 0 0 Z " fill="#3B0292" transform="translate(262,229)"/>
<path d="M0 0 C0.66 0 1.32 0 2 0 C0.46798474 3.44703434 -1.65269416 6.06586771 -4 9 C-4.309375 9.721875 -4.61875 10.44375 -4.9375 11.1875 C-6.42392435 13.72316507 -8.32647684 13.93059074 -11 15 C-12.34410262 17.01735205 -12.34410262 17.01735205 -13 19 C-13.66 18.67 -14.32 18.34 -15 18 C-13.88266271 16.49428343 -12.75589965 14.99555708 -11.625 13.5 C-10.99851563 12.6646875 -10.37203125 11.829375 -9.7265625 10.96875 C-9.15679687 10.3190625 -8.58703125 9.669375 -8 9 C-7.34 9 -6.68 9 -6 9 C-5.7525 8.443125 -5.505 7.88625 -5.25 7.3125 C-3.77075182 4.57589087 -2.06532561 2.32349131 0 0 Z " fill="#3908B1" transform="translate(240,248)"/>
<path d="M0 0 C8.7755042 2.61974611 16.21229351 7.94609962 23 14 C19.01265607 14 16.54416155 12.80316991 13 11 C11.66172696 9.33729713 10.32810215 7.67083819 9 6 C5.87866256 4.65227097 5.87866256 4.65227097 3 4 C3 3.34 3 2.68 3 2 C2.01 1.67 1.02 1.34 0 1 C0 0.67 0 0.34 0 0 Z " fill="#39237B" transform="translate(229,136)"/>
<path d="M0 0 C2.3125 -0.3125 2.3125 -0.3125 5 0 C6.01866229 1.65532623 7.01810813 3.32260138 8 5 C9.66321482 5.35015049 11.33034549 5.68197057 13 6 C15.83212798 8.50281077 17.90305891 10.85458837 20 14 C11.85158137 12.1195957 5.58694941 5.94739776 0 0 Z " fill="#330870" transform="translate(315,295)"/>
<path d="M0 0 C0 3 0 3 -1 6 C0.13864307 7.95732845 0.13864307 7.95732845 1.8125 9.875 C4.15143767 12.81630908 5.86518523 15.36859274 7 19 C4 18 4 18 2.6875 15.6875 C0.62842917 12.40823905 -1.71218683 10.9726879 -5 9 C-4.75 5.625 -4.75 5.625 -4 2 C-1.9375 0.5625 -1.9375 0.5625 0 0 Z " fill="#350679" transform="translate(313,218)"/>
<path d="M0 0 C0.66 0.33 1.32 0.66 2 1 C-6.86099425 6.02921295 -15.89890021 7.52752359 -26 7 C-26 6.67 -26 6.34 -26 6 C-25.37351562 5.86722656 -24.74703125 5.73445313 -24.1015625 5.59765625 C-23.28429687 5.42105469 -22.46703125 5.24445313 -21.625 5.0625 C-20.81289063 4.88847656 -20.00078125 4.71445312 -19.1640625 4.53515625 C-16.970537 4.07669307 -16.970537 4.07669307 -15 3 C-13.39913938 2.82149696 -11.79395275 2.68051527 -10.1875 2.5625 C-6.41488709 2.23042296 -3.48536777 1.5248484 0 0 Z " fill="#2E0C86" transform="translate(417,311)"/>
<path d="M0 0 C1.17539996 0.92652701 2.34010577 1.86663387 3.5 2.8125 C4.1496875 3.33457031 4.799375 3.85664063 5.46875 4.39453125 C7 6 7 6 7 9 C8.32 9.33 9.64 9.66 11 10 C11.66 12.31 12.32 14.62 13 17 C12.319375 16.29875 11.63875 15.5975 10.9375 14.875 C8.83960971 12.75313383 6.63306531 10.87392931 4.3125 9 C1.46606763 6.61147197 -0.02595328 4.67973205 -1 1 C-0.67 0.67 -0.34 0.34 0 0 Z " fill="#522DC4" transform="translate(219,174)"/>
<path d="M0 0 C1.62723299 0.45034123 3.25173664 0.91055354 4.875 1.375 C6.23238281 1.75785156 6.23238281 1.75785156 7.6171875 2.1484375 C10 3 10 3 12 5 C4.74 5 -2.52 5 -10 5 C-10 4.67 -10 4.34 -10 4 C-6.7 3.67 -3.4 3.34 0 3 C0 2.01 0 1.02 0 0 Z " fill="#31046F" transform="translate(192,163)"/>
<path d="M0 0 C-6.99897565 4.25427931 -12.06530905 5.15831187 -20.3125 5.0625 C-21.05306641 5.05798828 -21.79363281 5.05347656 -22.55664062 5.04882812 C-24.37112899 5.03712175 -26.18557534 5.01918898 -28 5 C-28 4.67 -28 4.34 -28 4 C-26.54980469 3.83564453 -26.54980469 3.83564453 -25.0703125 3.66796875 C-18.09499073 2.81849887 -11.60418587 1.87497146 -4.953125 -0.51171875 C-3 -1 -3 -1 0 0 Z " fill="#430883" transform="translate(402,274)"/>
<path d="M0 0 C1.68099513 3.16668793 2.60155908 6.20061049 3.42578125 9.6953125 C4.45892966 13.84196256 5.74471235 17.91613084 7 22 C6.34 21.67 5.68 21.34 5 21 C5 20.34 5 19.68 5 19 C4.34 19 3.68 19 3 19 C-0.02093215 15.97906785 0.53323166 12.43627928 0.375 8.375 C0.33632812 7.57320312 0.29765625 6.77140625 0.2578125 5.9453125 C0.16346069 3.96392444 0.08063785 1.98199355 0 0 Z " fill="#190362" transform="translate(134,228)"/>
<path d="M0 0 C0.33 0.99 0.66 1.98 1 3 C-0.58203125 5.4453125 -0.58203125 5.4453125 -2.8125 8.125 C-3.90498047 9.45917969 -3.90498047 9.45917969 -5.01953125 10.8203125 C-7 13 -7 13 -9 14 C-8.44271087 10.65626525 -7.64826111 7.96687001 -6 5 C-5.01 5 -4.02 5 -3 5 C-3 4.34 -3 3.68 -3 3 C-2.34 3 -1.68 3 -1 3 C-0.67 2.01 -0.34 1.02 0 0 Z " fill="#750CE5" transform="translate(328,195)"/>
<path d="M0 0 C0.70703125 1.71875 0.70703125 1.71875 1 4 C-0.36328125 6.21875 -0.36328125 6.21875 -2.3125 8.5 C-4.62765875 11.24250043 -6.5295086 13.71565372 -8 17 C-8.66 16.67 -9.32 16.34 -10 16 C-8.55797524 11.84848662 -6.4989562 8.70021555 -3.875 5.1875 C-3.15054688 4.21167969 -2.42609375 3.23585937 -1.6796875 2.23046875 C-0.84824219 1.12638672 -0.84824219 1.12638672 0 0 Z " fill="#450CD7" transform="translate(110,183)"/>
<path d="M0 0 C-1.28965176 1.37562854 -2.62689293 2.70766393 -4 4 C-4.66 4 -5.32 4 -6 4 C-6 4.66 -6 5.32 -6 6 C-7.98 6.99 -9.96 7.98 -12 9 C-12.33 7.68 -12.66 6.36 -13 5 C-11.68 5 -10.36 5 -9 5 C-8.8453125 4.0409375 -8.8453125 4.0409375 -8.6875 3.0625 C-8.460625 2.381875 -8.23375 1.70125 -8 1 C-5.07175348 0.02391783 -3.04386724 -0.08226668 0 0 Z " fill="#4707A2" transform="translate(354,175)"/>
<path d="M0 0 C0.86238281 -0.00773438 1.72476562 -0.01546875 2.61328125 -0.0234375 C3.43699219 -0.02085937 4.26070313 -0.01828125 5.109375 -0.015625 C5.85670898 -0.01336914 6.60404297 -0.01111328 7.37402344 -0.00878906 C9.25 0.25 9.25 0.25 11.25 2.25 C8.00184714 3.33271762 7.37541652 3.11686081 4.25 2.25 C-2.2945153 1.70250164 -8.39238426 2.76345937 -14.75 4.25 C-15.08 3.59 -15.41 2.93 -15.75 2.25 C-10.41829947 0.0545939 -5.66490893 -0.05173433 0 0 Z " fill="#3F08ED" transform="translate(380.75,128.75)"/>
<path d="M0 0 C0 3.6987636 -0.84352062 4.35773852 -3.25 7.0625 C-4.15492188 8.10083984 -4.15492188 8.10083984 -5.078125 9.16015625 C-6.97018869 10.97146113 -8.60605599 11.9778071 -11 13 C-11 12.01 -11 11.02 -11 10 C-10.34 10 -9.68 10 -9 10 C-8.731875 9.401875 -8.46375 8.80375 -8.1875 8.1875 C-6.19789594 4.52243989 -3.34204172 2.42009918 0 0 Z " fill="#5605E8" transform="translate(459,261)"/>
<path d="M0 0 C-1.010625 0.78375 -2.02125 1.5675 -3.0625 2.375 C-7.6318006 6.25424296 -10.75349353 11.00689278 -14 16 C-14.33 15.34 -14.66 14.68 -15 14 C-14.65066406 13.55269531 -14.30132812 13.10539063 -13.94140625 12.64453125 C-10.95364305 8.81986777 -10.95364305 8.81986777 -9.625 4.25 C-9.41875 3.5075 -9.2125 2.765 -9 2 C-2.7826087 -1.39130435 -2.7826087 -1.39130435 0 0 Z " fill="#1D0468" transform="translate(156,181)"/>
<path d="M0 0 C2 0 2 0 3.625 1.5 C4.07875 1.995 4.5325 2.49 5 3 C5.66 2.67 6.32 2.34 7 2 C6.67 4.31 6.34 6.62 6 9 C4.02 9 2.04 9 0 9 C0.33 7.35 0.66 5.7 1 4 C0.34 3.67 -0.32 3.34 -1 3 C-0.67 2.01 -0.34 1.02 0 0 Z " fill="#420FB5" transform="translate(280,183)"/>
<path d="M0 0 C1.32 0.33 2.64 0.66 4 1 C1.78310162 5.43379675 -0.77728219 7.46636932 -5 10 C-4.67 8.02 -4.34 6.04 -4 4 C-3.01 4 -2.02 4 -1 4 C-0.67 2.68 -0.34 1.36 0 0 Z " fill="#2B0883" transform="translate(260,282)"/>
<path d="M0 0 C6.32942689 2.47339255 9.21866552 4.74199741 12 11 C12 11.66 12 12.32 12 13 C12.66 13 13.32 13 14 13 C14.33 14.32 14.66 15.64 15 17 C12.14884267 14.23270024 9.48375322 11.42661646 6.9375 8.375 C4.81418741 5.84567932 2.67147604 3.95223249 0 2 C0 1.34 0 0.68 0 0 Z " fill="#480B9D" transform="translate(285,260)"/>
<path d="M0 0 C0.4846875 0.37511719 0.969375 0.75023437 1.46875 1.13671875 C6.1555558 4.71491472 10.94671516 7.96265326 16 11 C12.45064295 12.18311902 11.75125428 11.78103361 8.4375 10.3125 C7.65246094 9.97863281 6.86742187 9.64476562 6.05859375 9.30078125 C3.61815512 7.75872041 3.06495712 6.64521608 2 4 C1.62875 3.2575 1.2575 2.515 0.875 1.75 C0.58625 1.1725 0.2975 0.595 0 0 Z " fill="#220482" transform="translate(148,260)"/>
<path d="M0 0 C0.66 0 1.32 0 2 0 C3.3440093 1.99284138 4.67541292 3.99419671 6 6 C6.9075 6.9075 7.815 7.815 8.75 8.75 C9.4925 9.4925 10.235 10.235 11 11 C11 11.66 11 12.32 11 13 C11.66 13 12.32 13 13 13 C12.67 13.99 12.34 14.98 12 16 C6.03364425 11.35950108 3.3215728 6.80131574 0 0 Z " fill="#6905EB" transform="translate(288,195)"/>
<path d="M0 0 C1.65 0.33 3.3 0.66 5 1 C4 3 4 3 2.3125 4.625 C-0.80881471 7.83067457 -3.36993152 11.38803929 -6 15 C-6 11.49623879 -4.78844066 9.73308707 -3.0234375 6.78515625 C-1.77357449 4.60505169 -0.85780447 2.3589623 0 0 Z " fill="#1E0356" transform="translate(280,257)"/>
<path d="M0 0 C0.33 0.66 0.66 1.32 1 2 C0.0625 4.625 0.0625 4.625 -1 7 C-1.99 7 -2.98 7 -4 7 C-4 7.99 -4 8.98 -4 10 C-4.66 10 -5.32 10 -6 10 C-6.33 11.65 -6.66 13.3 -7 15 C-7.66 15 -8.32 15 -9 15 C-7.53205148 9.1282059 -4.26622657 4.26622657 0 0 Z " fill="#503B89" transform="translate(113,163)"/>
<path d="M0 0 C0.33 0.99 0.66 1.98 1 3 C-0.65234375 5.48046875 -0.65234375 5.48046875 -2.9375 8.1875 C-3.68902344 9.08855469 -4.44054687 9.98960937 -5.21484375 10.91796875 C-5.80394531 11.60503906 -6.39304687 12.29210937 -7 13 C-8 11 -8 11 -7.58203125 9.08984375 C-7.32808594 8.37957031 -7.07414062 7.66929687 -6.8125 6.9375 C-6.57144531 6.22464844 -6.33039063 5.51179688 -6.08203125 4.77734375 C-5 3 -5 3 -2.94921875 2.37890625 C-2.30597656 2.25386719 -1.66273438 2.12882812 -1 2 C-0.67 1.34 -0.34 0.68 0 0 Z " fill="#2E0B82" transform="translate(459,275)"/>
<path d="M0 0 C0.99 0 1.98 0 3 0 C3 3 3 3 1 6 C0.34 6 -0.32 6 -1 6 C-1.28875 6.639375 -1.5775 7.27875 -1.875 7.9375 C-3 10 -3 10 -5 11 C-3 3 -3 3 0 0 Z " fill="#4C099A" transform="translate(333,189)"/>
<path d="M0 0 C7.2274605 -0.24091535 13.90294338 0.65504172 21 2 C21 2.33 21 2.66 21 3 C17.87501937 3.02895976 14.7500731 3.04678483 11.625 3.0625 C10.73554688 3.07087891 9.84609375 3.07925781 8.9296875 3.08789062 C7.65351563 3.09272461 7.65351563 3.09272461 6.3515625 3.09765625 C5.17327881 3.10551147 5.17327881 3.10551147 3.97119141 3.11352539 C2 3 2 3 0 2 C0 1.34 0 0.68 0 0 Z " fill="#720CCD" transform="translate(359,277)"/>
<path d="M0 0 C-5.66507011 3.08900201 -10.50857435 5.57664615 -17 6 C-14.64350301 3.31127557 -12.36421235 2.0806149 -9.0625 0.75 C-8.20785156 0.39421875 -7.35320312 0.0384375 -6.47265625 -0.328125 C-3.82854634 -1.04658772 -2.54131429 -0.91982605 0 0 Z " fill="#7A06F1" transform="translate(412,272)"/>
<path d="M0 0 C0.66 0 1.32 0 2 0 C6 6.5 6 6.5 6 11 C5.34 11 4.68 11 4 11 C3.67 11.99 3.34 12.98 3 14 C2.01 13.67 1.02 13.34 0 13 C0.53625 12.278125 1.0725 11.55625 1.625 10.8125 C3.34318487 8.09292329 3.34318487 8.09292329 2.25 5.375 C1.8375 4.59125 1.425 3.8075 1 3 C0.67 2.01 0.34 1.02 0 0 Z " fill="#1D044D" transform="translate(253,217)"/>
<path d="M0 0 C0 0.66 0 1.32 0 2 C-0.66 2 -1.32 2 -2 2 C-2 2.66 -2 3.32 -2 4 C-3.390625 5.32421875 -3.390625 5.32421875 -5.25 6.6875 C-5.85328125 7.14511719 -6.4565625 7.60273438 -7.078125 8.07421875 C-9 9 -9 9 -11.234375 8.64453125 C-11.81703125 8.43183594 -12.3996875 8.21914062 -13 8 C-11.2126038 6.66094733 -9.41995047 5.32890934 -7.625 4 C-6.62726563 3.2575 -5.62953125 2.515 -4.6015625 1.75 C-2 0 -2 0 0 0 Z " fill="#380992" transform="translate(332,140)"/>
<path d="M0 0 C0.99 0.33 1.98 0.66 3 1 C3.433125 1.9590625 3.433125 1.9590625 3.875 2.9375 C4.841811 5.2581949 4.841811 5.2581949 7.5 5.875 C10 7 10 7 11.3125 10.125 C11.6528125 11.548125 11.6528125 11.548125 12 13 C10 13 10 13 7.6875 10.875 C0 2.65116279 0 2.65116279 0 0 Z " fill="#2D055F" transform="translate(303,282)"/>
<path d="M0 0 C5.33333333 4 10.66666667 8 16 12 C11.91339351 12 8.60975932 10.90305303 5 9 C3.125 6.5625 3.125 6.5625 2 4 C1.3381686 2.66425998 0.67231035 1.33049653 0 0 Z " fill="#290454" transform="translate(338,259)"/>
<path d="M0 0 C6.04801071 0.54981916 11.30601106 1.90429574 17 4 C17 4.66 17 5.32 17 6 C17.99 6 18.98 6 20 6 C20 6.66 20 7.32 20 8 C19.33613281 7.72414062 18.67226563 7.44828125 17.98828125 7.1640625 C14.42744445 5.77696529 10.81608323 4.56948099 7.1875 3.375 C6.14819336 3.03082031 6.14819336 3.03082031 5.08789062 2.6796875 C3.39238197 2.11841567 1.69625347 1.55901687 0 1 C0 0.67 0 0.34 0 0 Z " fill="#1E0471" transform="translate(389,170)"/>
<path d="M0 0 C0.58265625 0.23589844 1.1653125 0.47179687 1.765625 0.71484375 C-0.45365694 3.62286836 -2.16406643 5.66797137 -5.234375 7.71484375 C-7.421875 7.33984375 -7.421875 7.33984375 -9.234375 6.71484375 C-8.16721428 5.51278911 -7.07999163 4.32852042 -5.984375 3.15234375 C-5.38109375 2.49105469 -4.7778125 1.82976562 -4.15625 1.1484375 C-2.234375 -0.28515625 -2.234375 -0.28515625 0 0 Z " fill="#906CEB" transform="translate(137.234375,143.28515625)"/>
<path d="M0 0 C1.33333333 0.66666667 2.66666667 1.33333333 4 2 C5.010625 2.4125 6.02125 2.825 7.0625 3.25 C10.59502349 5.35448208 11.49626684 7.24066711 13 11 C9.54691313 9.48729451 7.04375621 7.45279358 4.25 4.9375 C3.45078125 4.22464844 2.6515625 3.51179688 1.828125 2.77734375 C1.22484375 2.19082031 0.6215625 1.60429687 0 1 C0 0.67 0 0.34 0 0 Z " fill="#270790" transform="translate(120,291)"/>
<path d="M0 0 C1.60876172 4.02190431 0.49934552 7.07314269 -1 11 C-3.125 12.9375 -3.125 12.9375 -5 14 C-4.53411505 8.29290936 -3.06242216 4.84060277 0 0 Z " fill="#51398B" transform="translate(103,178)"/>
<path d="M0 0 C0.515625 0.2475 1.03125 0.495 1.5625 0.75 C0.634375 1.1521875 0.634375 1.1521875 -0.3125 1.5625 C-2.7370233 2.70556848 -2.7370233 2.70556848 -4.4375 5.75 C-6.6015625 6.26171875 -6.6015625 6.26171875 -9.0625 6.4375 C-10.28839844 6.53611328 -10.28839844 6.53611328 -11.5390625 6.63671875 C-12.16554688 6.67410156 -12.79203125 6.71148437 -13.4375 6.75 C-4.43181818 -0.45454545 -4.43181818 -0.45454545 0 0 Z " fill="#300890" transform="translate(345.4375,133.25)"/>
<path d="M0 0 C6.16618181 -0.40214229 11.17745757 1.03181664 17 3 C17 3.33 17 3.66 17 4 C11.08739655 4.25706972 5.76081841 3.2982126 0 2 C0 1.34 0 0.68 0 0 Z " fill="#59409B" transform="translate(200,128)"/>
<path d="M0 0 C0.33 0.66 0.66 1.32 1 2 C1.99 2.33 2.98 2.66 4 3 C4 3.99 4 4.98 4 6 C3.34 6 2.68 6 2 6 C1.67 7.32 1.34 8.64 1 10 C1 9.01 1 8.02 1 7 C0.34 7 -0.32 7 -1 7 C-1.625 5.1875 -1.625 5.1875 -2 3 C-1.34 2.01 -0.68 1.02 0 0 Z " fill="#7603EA" transform="translate(307,214)"/>
<path d="M0 0 C9 2 9 2 18 4 C18 4.33 18 4.66 18 5 C15.55987895 4.93997242 13.12586474 4.85299796 10.6875 4.75 C9.99720703 4.73582031 9.30691406 4.72164063 8.59570312 4.70703125 C3.44325817 4.45812087 3.44325817 4.45812087 1.01953125 1.953125 C0.68308594 1.30859375 0.34664063 0.6640625 0 0 Z " fill="#36056E" transform="translate(356,273)"/>
<path d="M0 0 C1.32 0.33 2.64 0.66 4 1 C2.75803878 2.15454162 1.50607155 3.29832562 0.25 4.4375 C-0.79414063 5.39462891 -0.79414063 5.39462891 -1.859375 6.37109375 C-3.98792725 7.99081325 -5.39023405 8.58267256 -8 9 C-7.525625 8.566875 -7.05125 8.13375 -6.5625 7.6875 C-4.76313043 5.97690387 -4.76313043 5.97690387 -4 3 C-2.68 3 -1.36 3 0 3 C0 2.01 0 1.02 0 0 Z " fill="#290787" transform="translate(244,298)"/>
<path d="M0 0 C0.66 0.33 1.32 0.66 2 1 C-0.97 3.97 -3.94 6.94 -7 10 C-8.24546405 7.50907189 -7.7767578 6.58919267 -7 4 C-6.01 4 -5.02 4 -4 4 C-4 3.34 -4 2.68 -4 2 C-2.125 0.9375 -2.125 0.9375 0 0 Z " fill="#310D8D" transform="translate(449,288)"/>
<path d="M0 0 C2 1.375 2 1.375 4 4 C4.35791096 7.3580469 4.23115823 10.63536357 4 14 C1.59960958 9.32024725 0 5.32695729 0 0 Z " fill="#340BCB" transform="translate(466,186)"/>
<path d="M0 0 C3.5218253 1.95656961 6.34442785 3.95100975 9 7 C9 7.66 9 8.32 9 9 C6.69 8.34 4.38 7.68 2 7 C2 6.01 2 5.02 2 4 C1.34 4 0.68 4 0 4 C0 2.68 0 1.36 0 0 Z " fill="#3D1BB4" transform="translate(266,167)"/>
<path d="M0 0 C0.33 0.66 0.66 1.32 1 2 C0.443125 2.226875 -0.11375 2.45375 -0.6875 2.6875 C-3.23018882 3.97748266 -3.23018882 3.97748266 -5.5 6.6875 C-6.325 7.450625 -7.15 8.21375 -8 9 C-10.15625 8.64453125 -10.15625 8.64453125 -12 8 C-10.37615858 6.85252535 -8.75088944 5.7070709 -7.125 4.5625 C-6.22007812 3.92441406 -5.31515625 3.28632813 -4.3828125 2.62890625 C-2 1 -2 1 0 0 Z " fill="#3B0779" transform="translate(415,264)"/>
<path d="M0 0 C0.66 0 1.32 0 2 0 C0.9154334 6.26638478 0.9154334 6.26638478 -1.69140625 8.35546875 C-3.41659751 9.32087881 -5.20599015 10.16943988 -7 11 C-5.25731793 7.03935893 -2.85325271 3.25563451 0 0 Z " fill="#1E0456" transform="translate(244,240)"/>
<path d="M0 0 C3 1 3 1 4.16796875 2.7421875 C4.50441406 3.44601563 4.84085938 4.14984375 5.1875 4.875 C5.53167969 5.57367188 5.87585938 6.27234375 6.23046875 6.9921875 C7 9 7 9 7 12 C5.82455195 10.56967163 4.65989738 9.13046758 3.5 7.6875 C2.8503125 6.88699219 2.200625 6.08648437 1.53125 5.26171875 C0 3 0 3 0 0 Z " fill="#2F1090" transform="translate(244,203)"/>
<path d="M0 0 C0.515625 0.2475 1.03125 0.495 1.5625 0.75 C-0.1953125 1.69401042 -1.953125 2.63802083 -3.7109375 3.58203125 C-5.74252365 4.79763493 -5.74252365 4.79763493 -7.4375 7.75 C-8.0975 6.43 -8.7575 5.11 -9.4375 3.75 C-3.0375 -0.31153846 -3.0375 -0.31153846 0 0 Z " fill="#3A08B2" transform="translate(134.4375,167.25)"/>
<path d="M0 0 C4.87685861 1.35468295 6.48592381 3.71675909 9 8 C7.68 8 6.36 8 5 8 C5 7.34 5 6.68 5 6 C4.34 6 3.68 6 3 6 C3 5.34 3 4.68 3 4 C2.34 4 1.68 4 1 4 C0.67 2.68 0.34 1.36 0 0 Z " fill="#250899" transform="translate(438,148)"/>
<path d="M0 0 C2.97 0.33 5.94 0.66 9 1 C9.33 1.99 9.66 2.98 10 4 C10.66 4 11.32 4 12 4 C12 4.66 12 5.32 12 6 C7.76570244 4.68938409 3.92592596 3.05643741 0 1 C0 0.67 0 0.34 0 0 Z " fill="#7444E5" transform="translate(196,163)"/>
<path d="M0 0 C0.99 0.495 0.99 0.495 2 1 C2 1.66 2 2.32 2 3 C2.66 3 3.32 3 4 3 C4 4.98 4 6.96 4 9 C3.01 9.33 2.02 9.66 1 10 C0.67 6.7 0.34 3.4 0 0 Z " fill="#470897" transform="translate(320,237)"/>
<path d="M0 0 C0.66 0 1.32 0 2 0 C2 0.66 2 1.32 2 2 C2.66 2 3.32 2 4 2 C6.92092737 4.30133672 7.90305826 5.57991912 8.75 9.25 C8.87375 10.61125 8.87375 10.61125 9 12 C6.61360394 9.85224355 5.12931218 8.32708374 3.9375 5.3125 C3.628125 4.549375 3.31875 3.78625 3 3 C2.01 2.67 1.02 2.34 0 2 C0 1.34 0 0.68 0 0 Z " fill="#4818C0" transform="translate(252,214)"/>
<path d="M0 0 C3.24299151 2.38957269 5.50902342 4.2047869 7 8 C4.69 8 2.38 8 0 8 C0 6 0 6 2 4 C1.34 2.68 0.68 1.36 0 0 Z " fill="#3A018F" transform="translate(277,250)"/>
<path d="M0 0 C0.625 1.8125 0.625 1.8125 1 4 C0.01 5.485 0.01 5.485 -1 7 C-2.32 7 -3.64 7 -5 7 C-3.75023244 3.34683329 -3.32901247 2.21934164 0 0 Z " fill="#6347A2" transform="translate(119,156)"/>
<path d="M0 0 C0.99 0 1.98 0 3 0 C3 0.66 3 1.32 3 2 C3.99 2.33 4.98 2.66 6 3 C6.33 4.65 6.66 6.3 7 8 C7.66 8 8.32 8 9 8 C9.33 8.99 9.66 9.98 10 11 C9.34 11 8.68 11 8 11 C8 10.34 8 9.68 8 9 C7.34 9 6.68 9 6 9 C5.9071875 7.824375 5.9071875 7.824375 5.8125 6.625 C5.544375 5.75875 5.27625 4.8925 5 4 C2.52363988 2.62533375 2.52363988 2.62533375 0 2 C0 1.34 0 0.68 0 0 Z " fill="#3806E6" transform="translate(444,156)"/>
<path d="M0 0 C1.9375 0.3125 1.9375 0.3125 4 1 C4.33 1.99 4.66 2.98 5 4 C4.67 4.66 4.34 5.32 4 6 C3.01 6 2.02 6 1 6 C0.67 4.02 0.34 2.04 0 0 Z " fill="#5805B2" transform="translate(314,289)"/>
<path d="M0 0 C5.78898419 -0.20674944 10.42932723 0.40837921 16 2 C13.33874255 3.79570284 12.21888938 4.03345719 8.984375 3.5390625 C7.38335937 3.08660156 7.38335937 3.08660156 5.75 2.625 C4.67234375 2.32851562 3.5946875 2.03203125 2.484375 1.7265625 C1.66453125 1.48679688 0.8446875 1.24703125 0 1 C0 0.67 0 0.34 0 0 Z " fill="#31077E" transform="translate(176,160)"/>
<path d="M0 0 C1.8125 0.1875 1.8125 0.1875 4 1 C5.75 3.5625 5.75 3.5625 7 6 C5.68 6.33 4.36 6.66 3 7 C0 2.25 0 2.25 0 0 Z " fill="#510BAA" transform="translate(328,251)"/>
<path d="M0 0 C1.32 0 2.64 0 4 0 C5.4606285 2.64738916 6 3.89448334 6 7 C3.00675737 5.9024777 2.15389099 5.32317108 0.75 2.375 C0.5025 1.59125 0.255 0.8075 0 0 Z " fill="#550ACE" transform="translate(272,240)"/>
<path d="M0 0 C3.37462715 0.54723683 5.08235 1.0549 8 3 C7.67 3.99 7.34 4.98 7 6 C6.01 5.34 5.02 4.68 4 4 C4 3.34 4 2.68 4 2 C2.35 2.33 0.7 2.66 -1 3 C-0.67 2.01 -0.34 1.02 0 0 Z " fill="#6A42E8" transform="translate(244,148)"/>
<path d="M0 0 C2.875 0.25 2.875 0.25 6 1 C7.375 3.0625 7.375 3.0625 8 5 C5 4 2 3 -1 2 C-0.67 1.34 -0.34 0.68 0 0 Z " fill="#784CEA" transform="translate(232,140)"/>
<path d="M0 0 C-2.71182212 2.60334924 -3.89133813 2.99456691 -7.75 3.1875 C-8.8225 3.125625 -9.895 3.06375 -11 3 C-7.74003139 -0.25996861 -4.40088745 -1.46696248 0 0 Z " fill="#4816CD" transform="translate(416,311)"/>
<path d="M0 0 C1.98 0.66 3.96 1.32 6 2 C5.01 3.485 5.01 3.485 4 5 C2.68 4.67 1.36 4.34 0 4 C0 2.68 0 1.36 0 0 Z " fill="#5605BA" transform="translate(322,296)"/>
<path d="M0 0 C0.66 0.99 1.32 1.98 2 3 C0.60667426 6.36720387 -0.9789286 7.9859524 -4 10 C-2.8905928 6.51329166 -1.73662334 3.22515763 0 0 Z " fill="#1D035F" transform="translate(268,273)"/>
<path d="M0 0 C3.53586014 3.17320782 5.58578031 5.16743695 6 10 C5.34 9.67 4.68 9.34 4 9 C4 8.34 4 7.68 4 7 C3.34 7 2.68 7 2 7 C0 5 0 5 -0.125 2.375 C-0.08375 1.59125 -0.0425 0.8075 0 0 Z " fill="#27088A" transform="translate(135,240)"/>
<path d="M0 0 C0.66 0 1.32 0 2 0 C2.185625 1.7015625 2.185625 1.7015625 2.375 3.4375 C2.684375 5.2009375 2.684375 5.2009375 3 7 C3.66 7.33 4.32 7.66 5 8 C4.34 8.66 3.68 9.32 3 10 C2.67 9.01 2.34 8.02 2 7 C1.34 7 0.68 7 0 7 C0 4.69 0 2.38 0 0 Z " fill="#5213F0" transform="translate(254,209)"/>
<path d="M0 0 C2.875 0.5625 2.875 0.5625 6 2 C7.375 5.625 7.375 5.625 8 9 C5.06799526 6.14723863 2.35684596 3.34920216 0 0 Z " fill="#341990" transform="translate(224,182)"/>
<path d="M0 0 C7.75 -0.125 7.75 -0.125 10 1 C10 1.66 10 2.32 10 3 C2.25 2.25 2.25 2.25 0 0 Z " fill="#2A0596" transform="translate(153,313)"/>
<path d="M0 0 C1.32 0 2.64 0 4 0 C4.33 1.98 4.66 3.96 5 6 C4.01 5.67 3.02 5.34 2 5 C0.8125 2.4375 0.8125 2.4375 0 0 Z " fill="#2D079D" transform="translate(108,276)"/>
<path d="M0 0 C0.66 0 1.32 0 2 0 C0.55746343 3.36591866 -1.33264727 5.51047079 -4 8 C-4.66 7.67 -5.32 7.34 -6 7 C-5.04882866 5.8274869 -4.08882991 4.66212985 -3.125 3.5 C-2.59132812 2.8503125 -2.05765625 2.200625 -1.5078125 1.53125 C-0.76144531 0.77328125 -0.76144531 0.77328125 0 0 Z " fill="#340799" transform="translate(240,248)"/>
<path d="M0 0 C2.62374802 5.24749603 3.09534716 8.08847633 3 14 C2.67 14 2.34 14 2 14 C2 12.02 2 10.04 2 8 C1.34 8 0.68 8 0 8 C0 5.36 0 2.72 0 0 Z " fill="#20077C" transform="translate(470,192)"/>
<path d="M0 0 C4.55737263 0.43820891 7.57653445 0.85041169 11 4 C4.6 4.49230769 4.6 4.49230769 1.5625 2 C1.046875 1.34 0.53125 0.68 0 0 Z " fill="#170473" transform="translate(408,132)"/>
<path d="M0 0 C0 0.99 0 1.98 0 3 C-4.455 3.495 -4.455 3.495 -9 4 C-6.01353231 2.00902154 -3.40312738 1.05875074 0 0 Z " fill="#4E0CD8" transform="translate(400,313)"/>
<path d="M0 0 C0.99 0 1.98 0 3 0 C3 0.66 3 1.32 3 2 C4.32 2.33 5.64 2.66 7 3 C7 3.66 7 4.32 7 5 C4.625 4.75 4.625 4.75 2 4 C0.6875 1.9375 0.6875 1.9375 0 0 Z " fill="#410AE2" transform="translate(130,297)"/>
<path d="M0 0 C2.475 0.495 2.475 0.495 5 1 C5 1.66 5 2.32 5 3 C6.32 3.33 7.64 3.66 9 4 C5.79937313 5.60031344 3.27728194 4.03173691 0 3 C0 2.01 0 1.02 0 0 Z " fill="#4105EA" transform="translate(161,273)"/>
<path d="M0 0 C1.65 0.33 3.3 0.66 5 1 C3.68 2.32 2.36 3.64 1 5 C0.01 4.67 -0.98 4.34 -2 4 C-1.34 2.68 -0.68 1.36 0 0 Z " fill="#8D5EFA" transform="translate(121,169)"/>
<path d="M0 0 C1.32 0.33 2.64 0.66 4 1 C1.69 2.65 -0.62 4.3 -3 6 C-3.66 5.67 -4.32 5.34 -5 5 C-2.75 2.4375 -2.75 2.4375 0 0 Z " fill="#640CE4" transform="translate(319,149)"/>
<path d="M0 0 C2.97 0.495 2.97 0.495 6 1 C6.33 1.99 6.66 2.98 7 4 C7.66 4.33 8.32 4.66 9 5 C4.68607774 4.5206753 2.83430453 3.2542015 0 0 Z " fill="#520AB3" transform="translate(330,304)"/>
<path d="M0 0 C3.37462715 0.54723683 5.08235 1.0549 8 3 C8 3.66 8 4.32 8 5 C2.25 3.375 2.25 3.375 0 0 Z " fill="#280886" transform="translate(133,302)"/>
<path d="M0 0 C0.33 0.99 0.66 1.98 1 3 C-0.28965176 4.37562854 -1.62689293 5.70766393 -3 7 C-3.66 7 -4.32 7 -5 7 C-3.70700306 4.11562221 -2.34058637 2.12780579 0 0 Z " fill="#4B13CB" transform="translate(451,283)"/>
<path d="M0 0 C2.3125 0.1875 2.3125 0.1875 5 1 C6.8125 3.5625 6.8125 3.5625 8 6 C4.63408134 4.55746343 2.48952921 2.66735273 0 0 Z " fill="#22067F" transform="translate(409,178)"/>
<path d="M0 0 C-3.08888522 2.05925681 -3.70935927 2.2390374 -7.1875 2.125 C-9.0746875 2.063125 -9.0746875 2.063125 -11 2 C-6.98764085 -0.6749061 -4.6342454 -1.48957888 0 0 Z " fill="#5902DF" transform="translate(424,286)"/>
<path d="M0 0 C0 0.66 0 1.32 0 2 C-2.30368736 3.06652192 -4.64018187 4.06421005 -7 5 C-7.66 4.67 -8.32 4.34 -9 4 C-2.25 0 -2.25 0 0 0 Z " fill="#7313D5" transform="translate(404,273)"/>
<path d="M0 0 C0.66 0.99 1.32 1.98 2 3 C1.25 5.625 1.25 5.625 0 8 C-0.99 8.495 -0.99 8.495 -2 9 C-1.51421457 5.87709365 -1.0013988 3.00419641 0 0 Z " fill="#480FE1" transform="translate(98,201)"/>
<path d="" fill="#000000" transform="translate(0,0)"/>
<path d="" fill="#000000" transform="translate(0,0)"/>
<path d="" fill="#000000" transform="translate(0,0)"/>
<path d="" fill="#000000" transform="translate(0,0)"/>
<path d="" fill="#000000" transform="translate(0,0)"/>
<path d="" fill="#000000" transform="translate(0,0)"/>
<path d="" fill="#000000" transform="translate(0,0)"/>
<path d="" fill="#000000" transform="translate(0,0)"/>
<path d="" fill="#000000" transform="translate(0,0)"/>
<path d="" fill="#000000" transform="translate(0,0)"/>
<path d="" fill="#000000" transform="translate(0,0)"/>
<path d="" fill="#000000" transform="translate(0,0)"/>
<path d="" fill="#000000" transform="translate(0,0)"/>
<path d="" fill="#000000" transform="translate(0,0)"/>
<path d="" fill="#000000" transform="translate(0,0)"/>
<path d="" fill="#000000" transform="translate(0,0)"/>
<path d="" fill="#000000" transform="translate(0,0)"/>
<path d="" fill="#000000" transform="translate(0,0)"/>
<path d="" fill="#000000" transform="translate(0,0)"/>
<path d="" fill="#000000" transform="translate(0,0)"/>
<path d="" fill="#000000" transform="translate(0,0)"/>
<path d="" fill="#000000" transform="translate(0,0)"/>
<path d="" fill="#000000" transform="translate(0,0)"/>
<path d="" fill="#000000" transform="translate(0,0)"/>
<path d="" fill="#000000" transform="translate(0,0)"/>
<path d="" fill="#000000" transform="translate(0,0)"/>
<path d="" fill="#000000" transform="translate(0,0)"/>
<path d="" fill="#000000" transform="translate(0,0)"/>
<path d="" fill="#000000" transform="translate(0,0)"/>
<path d="" fill="#000000" transform="translate(0,0)"/>
<path d="" fill="#000000" transform="translate(0,0)"/>
<path d="" fill="#000000" transform="translate(0,0)"/>
<path d="" fill="#000000" transform="translate(0,0)"/>
<path d="" fill="#000000" transform="translate(0,0)"/>
<path d="" fill="#000000" transform="translate(0,0)"/>
<path d="" fill="#000000" transform="translate(0,0)"/>
<path d="" fill="#000000" transform="translate(0,0)"/>
<path d="" fill="#000000" transform="translate(0,0)"/>
<path d="" fill="#000000" transform="translate(0,0)"/>
<path d="" fill="#000000" transform="translate(0,0)"/>
<path d="" fill="#000000" transform="translate(0,0)"/>
<path d="" fill="#000000" transform="translate(0,0)"/>
<path d="" fill="#000000" transform="translate(0,0)"/>
<path d="" fill="#000000" transform="translate(0,0)"/>
<path d="" fill="#000000" transform="translate(0,0)"/>
<path d="" fill="#000000" transform="translate(0,0)"/>
<path d="" fill="#000000" transform="translate(0,0)"/>
<path d="" fill="#000000" transform="translate(0,0)"/>
<path d="" fill="#000000" transform="translate(0,0)"/>
<path d="" fill="#000000" transform="translate(0,0)"/>
<path d="" fill="#000000" transform="translate(0,0)"/>
<path d="" fill="#000000" transform="translate(0,0)"/>
<path d="" fill="#000000" transform="translate(0,0)"/>
<path d="" fill="#000000" transform="translate(0,0)"/>
<path d="" fill="#000000" transform="translate(0,0)"/>
<path d="" fill="#000000" transform="translate(0,0)"/>
<path d="" fill="#000000" transform="translate(0,0)"/>
<path d="" fill="#000000" transform="translate(0,0)"/>
<path d="" fill="#000000" transform="translate(0,0)"/>
<path d="" fill="#000000" transform="translate(0,0)"/>
<path d="" fill="#000000" transform="translate(0,0)"/>
<path d="" fill="#000000" transform="translate(0,0)"/>
<path d="" fill="#000000" transform="translate(0,0)"/>
<path d="" fill="#000000" transform="translate(0,0)"/>
<path d="" fill="#000000" transform="translate(0,0)"/>
<path d="" fill="#000000" transform="translate(0,0)"/>
<path d="" fill="#000000" transform="translate(0,0)"/>
<path d="" fill="#000000" transform="translate(0,0)"/>
</svg>
