<svg width="120" height="80" viewBox="0 0 120 80" fill="none" xmlns="http://www.w3.org/2000/svg">
<path d="M0.5 67.5863C0.5 61.0065 5.83399 55.6725 12.4138 55.6725H107.586C114.166 55.6725 119.5 61.0065 119.5 67.5863C119.5 74.1661 114.166 79.5001 107.586 79.5001H12.4138C5.83398 79.5001 0.5 74.1661 0.5 67.5863Z" fill="black" stroke="url(#paint0_linear_1865_176)"/>
<path fill-rule="evenodd" clip-rule="evenodd" d="M13.2332 60.0002C9.04344 60.0002 5.64697 63.3967 5.64697 67.5865C5.64697 71.7762 9.04344 75.1727 13.2332 75.1727H13.7142C13.937 75.1727 14.1176 74.9921 14.1176 74.7693V60.4036C14.1176 60.1808 13.937 60.0002 13.7142 60.0002H13.2332ZM18.647 60.0005C18.0947 60.0005 17.647 60.4483 17.647 61.0005V74.173C17.647 74.7252 18.0947 75.173 18.647 75.173H25.1176C25.6699 75.173 26.1176 74.7252 26.1176 74.173V61.0005C26.1176 60.4483 25.6699 60.0005 25.1176 60.0005H18.647ZM30.647 60.0005C30.0947 60.0005 29.647 60.4483 29.647 61.0005V74.173C29.647 74.7252 30.0947 75.173 30.647 75.173H37.1176C37.6699 75.173 38.1176 74.7252 38.1176 74.173V61.0005C38.1176 60.4483 37.6699 60.0005 37.1176 60.0005H30.647ZM41.647 61.0005C41.647 60.4483 42.0947 60.0005 42.647 60.0005H49.1176C49.6699 60.0005 50.1176 60.4483 50.1176 61.0005V74.173C50.1176 74.7252 49.6699 75.173 49.1176 75.173H42.647C42.0947 75.173 41.647 74.7252 41.647 74.173V61.0005Z" fill="url(#paint1_linear_1865_176)"/>
<path d="M79.2648 19.3103C79.2648 29.6881 70.6507 38.1207 60.0001 38.1207C49.3494 38.1207 40.7354 29.6881 40.7354 19.3103C40.7354 8.93258 49.3494 0.5 60.0001 0.5C70.6507 0.5 79.2648 8.93258 79.2648 19.3103Z" fill="black" stroke="url(#paint2_linear_1865_176)"/>
<path fill-rule="evenodd" clip-rule="evenodd" d="M64.4919 15.7094C64.7676 15.4401 64.7676 15.0034 64.4919 14.7341C64.2163 14.4648 63.7693 14.4648 63.4937 14.7341L59.9996 18.1478L56.5058 14.7343C56.2302 14.465 55.7832 14.465 55.5076 14.7343C55.2319 15.0036 55.2319 15.4403 55.5076 15.7096L59.0014 19.1231L55.5075 22.5367C55.2319 22.806 55.2319 23.2427 55.5075 23.512C55.7832 23.7813 56.2301 23.7813 56.5058 23.512L59.9996 20.0984L63.4937 23.5122C63.7694 23.7815 64.2163 23.7815 64.492 23.5122C64.7676 23.2429 64.7676 22.8062 64.492 22.5369L60.9979 19.1231L64.4919 15.7094Z" fill="url(#paint3_linear_1865_176)"/>
<defs>
<linearGradient id="paint0_linear_1865_176" x1="0" y1="67.9202" x2="120" y2="67.9202" gradientUnits="userSpaceOnUse">
<stop stop-color="#2096D9"/>
<stop offset="1" stop-color="#5C35EE"/>
</linearGradient>
<linearGradient id="paint1_linear_1865_176" x1="5.64697" y1="67.7907" x2="50.1176" y2="67.7907" gradientUnits="userSpaceOnUse">
<stop stop-color="#2096D9"/>
<stop offset="1" stop-color="#5C35EE"/>
</linearGradient>
<linearGradient id="paint2_linear_1865_176" x1="40.2354" y1="19.8298" x2="79.7648" y2="19.8298" gradientUnits="userSpaceOnUse">
<stop stop-color="#2096D9"/>
<stop offset="1" stop-color="#5C35EE"/>
</linearGradient>
<linearGradient id="paint3_linear_1865_176" x1="55.3139" y1="18.9714" x2="64.6691" y2="18.9952" gradientUnits="userSpaceOnUse">
<stop offset="0.0001" stop-color="#FF2734"/>
<stop offset="1" stop-color="#0003EA"/>
</linearGradient>
</defs>
</svg>
