<svg xmlns="http://www.w3.org/2000/svg" width="120" height="51" viewBox="0 0 120 51" fill="none">
<path opacity="0.5" fill-rule="evenodd" clip-rule="evenodd" d="M102.504 30.453C114.011 25.2305 120.794 19.4172 119.926 14.4233L119.925 14.4251C118.295 5.01749 90.1458 2.07918 57.0472 7.87086C42.6029 10.3956 29.6043 14.1639 19.6754 18.3912C20.2015 18.2673 20.7812 18.2113 21.3919 18.2113C23.1478 18.2113 25.5742 18.6342 25.5742 21.3484V22.2221L25.574 22.2235H22.4806V21.4546C22.4806 20.7743 22.0522 20.3234 21.3277 20.3234C20.5519 20.3234 20.281 20.7616 20.1946 21.1574C20.193 21.165 20.1915 21.1729 20.19 21.1812C20.1635 21.3285 20.1514 21.5784 20.2075 21.8137C20.3562 22.4329 21.2921 22.9296 22.3595 23.4962C23.8044 24.2631 25.4904 25.1579 25.7911 26.6576C25.8406 26.9241 25.9549 27.628 25.8037 28.7041C25.7965 28.755 25.7884 28.8052 25.7794 28.8546C25.4209 30.8188 23.6078 31.5517 21.4177 31.5517C19.084 31.5517 16.906 30.7123 16.906 27.9357L16.9087 26.9716L16.909 26.9702H20.2372V28.1755C20.2372 28.8577 20.7088 29.3059 21.4873 29.3059C22.3108 29.3059 22.5907 28.8821 22.6951 28.4692C22.7029 28.4374 22.7104 28.4027 22.7171 28.3659C22.7596 28.1313 22.7726 27.8067 22.6678 27.5472C22.6677 27.5468 22.6675 27.5465 22.6674 27.5461L22.6663 27.5467C22.3921 26.8556 21.4267 26.3253 20.3701 25.7448C18.9606 24.9706 17.3888 24.1071 17.0781 22.654C16.9494 22.0288 16.9621 21.5309 17.0512 20.9707C17.1929 20.1009 17.6055 19.4696 18.2049 19.0321C6.2711 24.3341 -0.809546 30.2806 0.0740657 35.3745C1.70578 44.7849 29.8607 47.7205 62.9566 41.9333C77.7194 39.3519 90.9675 35.4712 100.975 31.1306C100.461 31.2526 99.9046 31.3077 99.3313 31.3077C97.129 31.3077 95.1742 30.4981 94.9636 28.2321C94.9285 27.8164 94.924 27.6448 94.9186 27.4108L94.9213 22.1666C94.9213 21.957 94.9455 21.595 94.9695 21.38C94.9709 21.3671 94.9723 21.3548 94.9737 21.343C95.2491 19.0146 97.1292 18.2646 99.3316 18.2646C101.532 18.2646 103.459 19.0091 103.687 21.343C103.726 21.7387 103.714 22.1643 103.714 22.1643V22.5799L103.713 22.5823H100.586V21.8847C100.586 21.8848 100.586 21.8854 100.586 21.8847L100.586 21.8824C100.586 21.8824 100.586 21.8824 100.586 21.8824C100.588 21.854 100.579 21.5783 100.546 21.4113C100.494 21.1348 100.257 20.5023 99.3088 20.5023C98.4034 20.5023 98.1397 21.1005 98.0731 21.4113C98.0642 21.4506 98.0566 21.4934 98.0501 21.5384C98.0299 21.6805 98.0211 21.8446 98.0211 21.9962V27.6939C98.0184 27.8512 98.0283 28.0255 98.0535 28.1674C98.103 28.4936 98.4153 29.0637 99.3136 29.0637L99.3145 29.0646C99.7682 29.0646 100.073 28.9191 100.271 28.7323C100.464 28.5497 100.555 28.3279 100.583 28.1643C100.605 28.0224 100.613 27.8481 100.61 27.6909V25.8829H99.3385V24.065H99.3397V24.0635H103.74V27.4084C103.737 27.6424 103.733 27.8141 103.695 28.2297C103.648 28.7459 103.51 29.1865 103.299 29.5591C103.096 29.9176 102.826 30.2132 102.504 30.453ZM81.2477 18.604V30.9295H84.3012L84.1305 20.8149L84.197 20.8144L87.2625 30.9295H91.6776L91.6779 18.6035H88.6071L88.7754 28.3824H88.7079L85.8558 18.6035L81.2477 18.604ZM69.0697 18.5995L72.2045 18.5989V27.815C72.2045 27.9767 72.2099 28.1584 72.2342 28.2903C72.3035 28.5966 72.5645 29.1965 73.4321 29.1965C73.6638 29.1965 73.8525 29.1532 74.0058 29.0839C74.4218 28.8959 74.5767 28.5168 74.6201 28.293C74.6453 28.1584 74.6525 27.9795 74.6498 27.8177V18.5995L77.7881 18.5989V27.534C77.7953 27.7635 77.7728 28.2334 77.7611 28.3508C77.6385 29.6437 77.0183 30.451 76.1001 30.913C76.0114 30.9577 75.9199 30.9991 75.8259 31.0374C75.1418 31.316 74.3203 31.431 73.4303 31.431C71.1488 31.431 69.3154 30.6765 69.0967 28.3508C69.0868 28.2334 69.0643 27.7608 69.0697 27.534V18.5995ZM63.0376 28.4354C63.0925 28.2013 63.1321 27.8228 63.0106 27.5237C62.7396 26.8398 61.7833 26.3146 60.7376 25.7398C59.342 24.9726 57.7856 24.1171 57.481 22.678C57.3523 22.0555 57.3622 21.5676 57.4513 21.0146C57.6325 19.8812 58.2774 19.157 59.1955 18.7402C59.225 18.7268 59.2548 18.7137 59.2849 18.7009C59.9827 18.4044 60.8292 18.2773 61.7455 18.2773C63.487 18.2773 65.8927 18.6983 65.8927 21.3827V22.2492L62.8207 22.2498V21.4872C62.8207 20.8095 62.4013 20.3713 61.6822 20.3713C61.4438 20.3713 61.2538 20.4122 61.1025 20.4807C60.7667 20.6331 60.6216 20.9211 60.5602 21.1975C60.5305 21.3321 60.5134 21.5933 60.5728 21.8426C60.7204 22.4562 61.647 22.9486 62.7037 23.5101C64.1336 24.27 65.8019 25.1564 66.1015 26.6413C66.1564 26.9033 66.2626 27.5982 66.1114 28.6661C65.9524 29.7912 65.3326 30.5282 64.4403 30.965C64.3478 31.0103 64.2523 31.0525 64.1541 31.0914C63.4683 31.3636 62.6496 31.483 61.7695 31.483C59.461 31.483 57.3028 30.6545 57.3028 27.905L57.3082 26.9536L60.6034 26.953L60.6052 28.1484C60.6052 28.8161 61.0741 29.2643 61.8409 29.2643C62.1074 29.2643 62.3166 29.2201 62.4811 29.1462C62.8206 28.9932 62.9691 28.7134 63.0376 28.4354ZM40.7492 18.604L40.4738 31.0587H43.5824L43.6589 19.8608L43.7264 19.8603L45.8028 31.0587H48.9501L51.0236 19.8608L51.0885 19.8603L51.1704 31.0587H54.2709L54.0027 18.6035H48.9429L47.4102 28.1258H47.3418L45.8118 18.6035L40.7492 18.604ZM32.9416 19.7596L31.2425 31.0596H27.8917L30.1911 18.6049L35.7101 18.6044L38.0015 31.0596H34.6634L33.0119 19.7591H32.9426L32.9416 19.7596Z" fill="white"/>
</svg>