<svg width="171" height="128" viewBox="0 0 171 128" fill="none" xmlns="http://www.w3.org/2000/svg">
<mask id="mask0_1943_281" style="mask-type:alpha" maskUnits="userSpaceOnUse" x="18" y="0" width="153" height="128">
<rect x="18" width="153" height="128" fill="url(#paint0_linear_1943_281)"/>
</mask>
<g mask="url(#mask0_1943_281)">
<path d="M148.09 314.174H41.2061C28.3327 314.174 18 303.82 18 290.92V23.2533C18 10.3537 28.502 0 41.2061 0H148.09C160.963 0 171.296 10.3537 171.296 23.2533V290.92C171.296 303.82 160.794 314.174 148.09 314.174Z" fill="#D8E0EB"/>
<path d="M148.125 7.97742L127.29 7.80768C124.58 7.80768 122.209 10.1839 122.209 13.0694V16.8035C122.209 19.6889 120.007 22.0652 117.127 22.0652L76.6433 21.8954C73.9331 21.8954 71.5616 19.5192 71.5616 16.6337V12.8996C71.5616 10.0142 69.3596 7.63794 66.48 7.63794H59.1964H41.0719C32.0944 7.63794 24.6413 14.9364 24.6413 23.9322L23.625 286.677C23.625 295.673 30.9086 303.141 39.8862 303.141L146.939 303.65C155.917 303.65 163.37 296.352 163.37 287.356L164.555 24.4414C164.386 15.4456 157.102 7.97742 148.125 7.97742Z" fill="#1F232E"/>
<mask id="mask1_1943_281" style="mask-type:alpha" maskUnits="userSpaceOnUse" x="23" y="7" width="142" height="297">
<path d="M148.125 7.97742L127.29 7.80768C124.58 7.80768 122.209 10.1839 122.209 13.0694V16.8035C122.209 19.6889 120.007 22.0652 117.127 22.0652L76.6433 21.8954C73.9331 21.8954 71.5616 19.5192 71.5616 16.6337V12.8996C71.5616 10.0142 69.3596 7.63794 66.48 7.63794H59.1964H41.0719C32.0944 7.63794 24.6413 14.9364 24.6413 23.9322L23.625 286.677C23.625 295.673 30.9086 303.141 39.8862 303.141L146.939 303.65C155.917 303.65 163.37 296.352 163.37 287.356L164.555 24.4414C164.386 15.4456 157.102 7.97742 148.125 7.97742Z" fill="#1B1E27"/>
</mask>
<g mask="url(#mask1_1943_281)">
<path opacity="0.3" d="M143.945 230.785C144.339 232.02 144.689 233.169 145.061 234.317C145.17 234.296 145.28 234.296 145.389 234.274C145.389 232.54 145.389 230.785 145.389 229.051C145.498 229.03 145.608 228.986 145.739 228.965C146.089 229.68 146.439 230.417 146.767 231.132C146.833 231.132 146.898 231.11 146.964 231.11C146.964 230.482 147.03 229.853 146.942 229.246C146.702 227.253 146.395 225.237 146.198 223.243C146.133 222.485 146.352 221.683 146.308 220.925C146.22 219.754 146.089 218.584 145.827 217.435C145.542 216.157 145.105 214.9 144.755 213.643C143.967 210.739 143.398 207.748 142.392 204.931C141.495 202.417 141.342 199.86 141.167 197.281C141.145 197.021 141.254 196.696 141.429 196.479C142.064 195.612 142.282 194.746 141.648 193.684C143.048 193.207 142.939 192.015 143.158 190.931C143.639 188.721 143.486 186.727 141.845 184.95C140.882 183.91 140.139 182.718 139.242 181.634C138.957 181.288 138.563 181.071 138.213 180.811C139.132 178.189 138.87 175.545 138.192 172.901C138.06 172.402 137.732 171.926 137.404 171.514C135.873 169.542 134.298 167.591 132.788 165.619C132.547 165.316 132.307 164.796 132.394 164.471C132.985 162.499 132.241 160.7 131.738 158.879C131.541 158.121 131.344 157.341 131.322 156.561C131.235 151.576 130.579 146.657 129.791 141.759C129.725 141.412 129.9 140.936 130.141 140.632C130.797 139.744 131.519 138.877 132.285 138.075C132.547 137.793 132.985 137.685 133.488 137.403C133.204 140.069 131.454 141.824 130.469 144.1C130.754 144.035 130.994 144.056 131.169 143.948C133.488 142.388 135.785 140.762 136.879 138.053C136.945 137.88 137.098 137.728 137.12 137.576C137.229 135.929 138.41 135.084 139.614 134.239C139.81 134.087 140.029 133.936 140.204 133.741C142.72 130.923 145.236 128.106 147.774 125.267C148.145 124.855 148.495 124.444 148.889 124.097C149.414 123.642 149.655 123.23 149.305 122.515C149.174 122.255 149.349 121.713 149.567 121.496C150.749 120.304 151.361 118.809 151.93 117.27C152.039 116.967 152.193 116.599 152.105 116.339C151.668 114.908 152.411 113.846 153.111 112.741C155.343 109.057 155.955 104.983 156.371 100.887C156.415 100.497 156.087 100.063 155.912 99.6082C154.118 100.583 153.352 102.664 151.121 102.902C150.639 101.364 151.733 100.085 151.777 98.568C150.968 99.0231 150.18 99.4782 149.196 100.02C149.567 98.503 149.852 97.1811 150.202 95.8808C150.902 93.2802 150.639 90.8097 149.217 88.4908C148.189 86.8005 147.073 85.1534 146.067 83.4414C144.908 81.4476 143.858 79.4105 142.764 77.3951C143.136 77.07 143.354 76.875 143.551 76.6799C144.361 75.8348 144.842 74.9462 144.383 73.6676C143.464 71.0454 142.676 68.3798 141.779 65.7576C141.364 64.5006 140.904 64.3489 139.614 64.7824C138.782 65.0641 137.973 65.3458 137.098 65.6492C137.01 65.4325 136.945 65.2808 136.901 65.1074C136.376 63.3737 136.441 63.4387 137.907 62.2685C139.745 60.8165 140.598 58.7794 140.664 56.4822C140.751 53.6216 140.182 50.8694 138.06 48.8106C136.463 47.2719 134.582 45.8416 132.263 45.6466C130.95 45.5382 129.922 45.4082 129.003 44.3679C128.019 43.241 126.641 43.0893 125.197 43.4361C124.825 43.5228 124.431 43.5011 123.884 43.5228C124.125 43.046 124.278 42.7426 124.431 42.4175C122.856 39.9903 120.384 38.9501 117.693 38.3C117.387 38.2133 117.059 37.9966 116.84 37.7365C116.031 36.8697 115.243 36.0678 113.909 36.1545C113.143 36.2195 112.377 36.1545 111.612 36.1545C110.452 36.1545 109.905 35.8078 109.861 34.7025C109.774 32.3187 108.68 30.3682 107.389 28.4612C106.23 26.7491 105.224 24.9287 104.086 23.065C104.086 23.065 103.867 23.195 103.539 23.3684C101.898 21.0062 99.5356 19.5326 96.9323 18.2973C94.0884 16.9537 91.2007 16.4336 88.1598 17.3004C86.2347 17.8422 85.0533 19.3592 83.9376 20.8762C83.4782 21.5263 83.0844 22.2198 82.5813 22.8483C82.0562 23.4984 81.4437 24.1052 80.7655 24.8204C81.1593 25.3188 80.8093 25.6439 80.1967 26.0556C78.381 27.2909 76.6308 28.6129 74.7057 29.9998C75.6245 30.5199 76.5433 31.0617 77.6153 31.6469C77.2653 32.3187 76.8934 33.0772 76.5215 33.8357C77.2215 34.3558 77.8778 34.8325 78.556 35.3527C78.4904 35.6561 78.4028 36.0028 78.3153 36.4362C77.9872 36.5012 77.6153 36.5663 77.0903 36.6529C78.381 38.3867 79.6061 40.0337 80.9624 41.8541C80.3717 41.9408 79.9998 42.0058 79.256 42.1141C80.2624 43.0893 81.1155 43.9128 81.9906 44.7797C81.8156 44.8664 81.5531 44.9964 81.2906 45.1264C81.3124 45.2348 81.2906 45.3648 81.3562 45.4298C82.3188 46.4917 83.2594 47.597 84.2876 48.5939C85.0096 49.2873 85.644 49.9158 84.7908 51.0644C85.6002 51.1944 86.2565 51.2811 87.1097 51.4111C86.716 51.8229 86.3878 52.1046 86.1472 52.408C84.6814 54.1851 83.1719 55.9188 81.7718 57.7608C80.9405 58.8661 81.0718 59.1045 82.3625 59.8413C81.6625 61.1199 80.7655 62.3118 80.2842 63.6555C78.9716 67.1662 78.2497 70.807 78.5997 74.5778C78.9498 78.2836 77.8997 81.7944 77.2653 85.3702C77.0684 86.4754 76.3683 87.494 75.8433 88.7075C73.7213 89.466 72.1243 91.0914 70.921 93.2369C70.1772 94.5588 69.1272 95.7291 68.0115 96.8777C68.0771 96.5526 68.1646 96.2492 68.2302 95.9241C67.027 94.7972 66.8958 94.7755 65.4957 95.5557C64.4675 96.1408 63.3518 96.5959 62.3892 97.2894C61.7548 97.7445 61.3829 98.568 60.8141 99.1531C60.0265 99.955 59.1952 100.757 58.3201 101.472C56.92 102.599 55.4762 103.617 54.1636 104.874C52.7854 106.175 52.3259 107.497 52.2166 109.165C52.1291 110.531 52.3697 112.048 51.8228 113.218C51.1009 114.778 51.3415 116.317 51.1446 117.856C51.1009 118.224 51.2977 118.614 51.3853 118.982C51.4728 118.982 51.5603 118.982 51.6478 118.982C52.0634 118.202 52.4791 117.4 52.8947 116.62C53.0041 116.599 53.1135 116.577 53.2229 116.555C53.5073 117.314 54.0104 118.094 54.0323 118.852C54.0542 119.914 54.5136 120.608 55.1918 121.301C55.8481 121.951 56.4825 122.623 57.1388 123.273C57.2263 123.23 57.3138 123.187 57.4232 123.143C57.2263 122.385 57.0513 121.626 56.8325 120.716C57.7295 121.085 58.4514 121.301 58.7358 122.32C59.1514 123.924 60.3765 124.747 62.1704 124.877C61.8423 123.728 61.5141 122.558 61.186 121.41C61.2954 121.345 61.4047 121.28 61.5141 121.193C61.8423 121.28 62.1923 121.366 62.5204 121.453C62.7611 121.518 63.1111 121.713 63.2205 121.626C64.0737 120.933 65.0581 121.496 65.9332 121.28C66.3488 121.171 66.9833 120.911 67.0051 120.651C67.0489 120.261 66.7864 119.698 66.4582 119.394C65.605 118.614 65.6269 118.376 66.3926 117.487C67.5739 116.1 68.8428 114.735 69.0834 112.806C69.1053 112.698 69.1053 112.524 69.149 112.524C70.4616 112.134 70.4616 110.682 71.2711 109.945C72.168 109.144 73.1962 108.472 74.1588 107.735C74.4651 107.497 74.9245 107.258 74.9901 106.955C75.2964 105.763 76.2152 105.264 77.1996 104.744C78.5122 104.051 79.7592 103.271 81.2468 102.642C80.5905 103.812 79.8686 104.961 79.2779 106.153C78.9716 106.781 78.906 107.518 78.731 108.212C78.4904 109.209 78.5122 110.357 77.9872 111.181C74.5963 116.62 72.5837 122.623 70.396 128.605C68.2521 134.391 67.0489 140.307 66.5457 146.397C66.502 146.83 66.502 147.307 66.3051 147.654C65.2988 149.409 65.08 151.359 64.905 153.267C64.7737 154.74 65.1894 156.257 65.3863 157.731C65.4738 158.381 65.7582 159.031 65.6707 159.638C65.1456 163.3 65.6269 166.898 66.0207 170.517C66.0426 170.755 65.9551 170.994 65.8894 171.232C65.4081 173.009 64.9269 174.765 64.4456 176.542C64.4237 176.607 64.38 176.693 64.4237 176.758C65.08 178.232 63.833 179.077 63.308 180.182C62.236 182.458 61.2516 184.755 60.2015 187.117C60.5297 187.291 60.7922 187.421 61.0547 187.551C61.0766 187.659 61.1203 187.746 61.1203 187.789C60.3984 189.674 61.2516 191.191 62.2579 192.708C62.4548 193.012 62.6298 193.489 62.5642 193.835C62.1048 195.916 61.4485 197.823 59.8296 199.448C57.6201 201.68 55.3012 203.739 52.5666 205.321C51.6696 205.841 50.9915 206.73 50.1164 207.272C49.7226 207.532 49.0007 207.553 48.5413 207.38C46.2224 206.535 44.1222 208.377 43.7284 210.089C43.3565 211.801 43.2253 213.578 43.0503 215.333C43.0065 215.767 43.2472 216.222 43.3128 216.482C41.9783 218.042 40.6657 219.581 39.375 221.12C39.4625 221.206 39.55 221.315 39.6594 221.401C41.1908 220.469 42.4377 218.974 44.7785 218.996C42.5471 220.101 41.8908 222.073 41.0157 223.915C42.8315 222.051 45.041 220.925 47.4256 220.296C46.463 221.986 45.4786 223.72 44.4941 225.432C44.5816 225.497 44.6691 225.562 44.7566 225.627C46.9881 223.395 49.0663 220.903 52.7854 221.076C52.3478 222.311 51.954 223.46 51.5384 224.609C53.9229 221.51 57.2044 220.231 61.011 219.494C60.7266 220.383 60.4859 221.12 60.2672 221.856C62.3017 219.603 64.6862 218.064 67.7708 217.392C67.6177 218.259 67.4864 219.017 67.3114 219.971C70.1554 215.745 73.8306 214.25 78.9498 215.853C77.9872 214.857 77.2215 214.055 76.3246 213.123C77.9434 212.343 79.6279 212.083 81.4875 213.21C80.503 211.606 80.3061 211.454 77.5278 210.392C77.6809 209.395 77.8122 208.355 77.9872 207.337C78.2278 206.015 77.7684 204.953 76.784 204.043C76.5215 203.782 76.434 203.327 76.3465 202.937C76.2371 202.482 76.3246 201.962 76.1058 201.594C75.8433 201.117 75.0995 200.77 75.0557 200.337C74.9245 198.386 74.7276 196.328 76.2152 194.724C76.6965 194.204 77.5059 194.009 78.1184 193.575C78.5997 193.25 78.9498 192.665 79.4529 192.448C80.7874 191.863 80.678 190.325 81.5312 189.479C82.5156 188.482 83.1063 187.291 83.1719 185.925C83.2157 184.625 83.4782 183.173 82.1437 182.219C82.0562 182.154 81.9469 181.959 81.9687 181.851C82.2312 180.637 81.7937 179.207 83.1501 178.34C83.6314 178.037 84.0033 177.56 84.3533 177.083C84.9658 176.216 85.6002 175.198 85.0971 174.179C83.697 171.34 83.7626 168.22 83.2157 165.229C83.0626 164.362 83.0844 163.647 83.7189 162.954C83.9376 162.715 83.9814 162.238 84.0033 161.848C84.1126 160.461 84.3533 159.096 85.5565 158.186C87.4379 156.756 88.0067 154.675 88.4442 152.551C89.2974 148.39 89.9974 144.186 90.8725 140.025C91.4194 137.446 92.6883 135.214 94.7447 133.481C95.8385 134.477 96.9104 135.431 97.9605 136.406C98.0918 136.536 98.2449 136.753 98.3762 136.731C99.6013 136.645 99.6669 137.641 99.995 138.378C100.629 139.787 101.351 141.174 101.876 142.626C102.292 143.774 102.358 145.053 102.817 146.158C103.998 148.976 105.311 151.75 106.624 154.502C108.068 157.514 109.489 160.548 111.065 163.495C113.274 167.591 115.637 171.601 117.89 175.653C118.218 176.238 118.546 176.997 118.459 177.625C118.153 179.749 118.59 181.526 120.209 183.021C121.018 183.78 121.565 184.452 120.647 185.752C120.056 186.575 120.406 188.049 120.318 189.219C120.318 189.328 120.318 189.436 120.362 189.544C120.953 190.715 119.728 191.972 120.647 193.164C121.39 194.117 122.025 195.179 122.615 196.241C123.512 197.823 125.109 198.3 126.597 199.015C126.991 199.188 127.472 199.492 127.603 199.838C128.238 201.702 128.894 203.587 129.31 205.516C129.528 206.491 129.244 207.553 129.157 208.572C129.025 209.894 128.85 211.216 128.697 212.538C128.653 212.863 128.719 213.275 128.544 213.47C127.56 214.553 127.581 215.918 127.45 217.24C127.166 220.318 126.925 223.417 126.684 226.516C126.619 227.296 126.684 228.076 126.684 229.008C126.903 228.748 127.035 228.575 127.253 228.293C127.013 230.178 126.772 231.955 126.531 233.732C126.641 233.754 126.728 233.797 126.838 233.819C127.494 232.54 128.128 231.262 128.741 230.026C128.96 230.048 129.003 230.048 129.025 230.07C130.557 230.547 130.797 231.522 130.513 233.039C130.25 234.469 130.447 235.986 130.447 237.785C131.322 235.661 132.066 233.797 132.788 232.064C133.094 231.999 133.16 231.955 133.226 231.977C135.435 232.454 135.413 232.454 135.676 234.751C135.785 235.791 135.982 236.81 136.157 237.85C136.179 237.98 136.266 238.11 136.42 238.5C136.77 236.766 137.12 235.271 137.338 233.776C137.47 232.822 137.951 232.454 138.87 232.367C140.729 232.172 140.751 232.129 141.342 233.884C141.736 235.054 142.086 236.224 142.458 237.395C142.479 237.438 142.567 237.46 142.72 237.568C142.72 235.964 142.786 234.447 142.698 232.93C142.676 231.955 142.851 231.24 143.945 230.785ZM116.206 98.1779C116.534 98.2213 116.731 98.2863 116.884 98.2646C118.153 98.1129 119.531 98.2863 120.187 96.6826C120.931 94.8839 121.937 93.1935 122.747 91.4381C122.944 91.0047 122.878 90.4413 122.9 90.0295C124.147 87.7757 125.416 85.5002 126.619 83.3331C127.166 83.7448 127.603 84.1132 128.085 84.4383C128.369 84.6333 128.785 84.6983 128.96 84.9584C129.922 86.3887 130.863 87.8624 131.738 89.336C132.285 90.2679 133.072 91.1998 133.182 92.1966C133.444 94.4288 133.357 96.7043 133.379 98.9364C133.401 101.559 133.379 104.181 133.379 106.868C132.438 106.911 132.241 107.692 132.351 108.667C132.416 109.425 132.526 110.184 132.526 110.921C132.526 112.481 132.482 114.041 132.438 115.298C127.735 117.335 124.212 119.914 123.862 125.289C122.812 123.793 121.85 122.537 121.04 121.171C120.428 120.131 119.859 119.004 119.553 117.856C118.721 114.67 118.021 111.462 117.321 108.428C117.387 108.017 117.518 107.713 117.474 107.453C117.234 106.326 116.949 105.221 116.687 104.094C116.424 103.011 117.234 101.624 115.79 100.844C115.746 100.822 115.768 100.713 115.768 100.627C115.965 99.8466 116.074 99.0231 116.206 98.1779Z" fill="black"/>
<path d="M37.6222 17.9462C36.3244 19.2441 36.2059 21.2815 37.2665 22.7146L36.1748 23.8064C35.9626 24.0186 35.9626 24.3628 36.1748 24.5753C36.387 24.7875 36.7312 24.7875 36.9436 24.5753L38.0353 23.4835C39.4684 24.5442 41.5058 24.4257 42.8036 23.1278C44.2321 21.6992 44.2321 19.3748 42.8036 17.9464C41.3751 16.518 39.0505 16.5178 37.6222 17.9462ZM42.0348 22.3589C41.162 23.2317 39.8139 23.3461 38.8164 22.7025L39.2473 22.2715C39.4595 22.0593 39.4595 21.7151 39.2473 21.5026C39.0351 21.2904 38.6909 21.2904 38.4785 21.5026L38.0475 21.9336C37.4039 20.936 37.5183 19.5878 38.3911 18.715C39.3956 17.7105 41.0302 17.7105 42.0348 18.715C43.0393 19.7196 43.0393 21.3543 42.0348 22.3589ZM38.7316 24.8934C38.9438 25.1056 38.9438 25.4498 38.7316 25.6623L36.4281 27.9658C36.2159 28.1781 35.8717 28.1781 35.6593 27.9658C35.447 27.7536 35.447 27.4094 35.6593 27.197L37.9629 24.8934C38.1751 24.6812 38.5193 24.6812 38.7316 24.8934ZM32.7842 25.0906C32.5719 24.8784 32.5719 24.5342 32.7842 24.3217L35.0878 22.018C35.3001 21.8057 35.6443 21.8057 35.8567 22.018C36.0689 22.2302 36.0689 22.5744 35.8567 22.7868L33.553 25.0906C33.3406 25.3031 32.9966 25.3031 32.7842 25.0906Z" fill="white"/>
<path d="M156.375 21.9375C156.375 25.3548 153.605 28.125 150.187 28.125C146.77 28.125 144 25.3548 144 21.9375C144 18.5202 146.77 15.75 150.187 15.75C153.605 15.75 156.375 18.5202 156.375 21.9375Z" fill="#2632A5"/>
<path fill-rule="evenodd" clip-rule="evenodd" d="M150.187 26.6971C152.816 26.6971 154.947 24.5662 154.947 21.9375C154.947 19.3088 152.816 17.1779 150.187 17.1779C147.559 17.1779 145.428 19.3088 145.428 21.9375C145.428 24.5662 147.559 26.6971 150.187 26.6971ZM150.187 28.125C153.605 28.125 156.375 25.3548 156.375 21.9375C156.375 18.5202 153.605 15.75 150.187 15.75C146.77 15.75 144 18.5202 144 21.9375C144 25.3548 146.77 28.125 150.187 28.125Z" fill="white"/>
</g>
</g>
<path d="M111.375 126.75C111.375 126.129 111.784 125.625 112.289 125.625H125.086C125.591 125.625 126 126.129 126 126.75C126 127.371 125.591 127.875 125.086 127.875H112.289C111.784 127.875 111.375 127.371 111.375 126.75Z" fill="white"/>
<path opacity="0.3" d="M129.375 126.75C129.375 126.129 129.816 125.625 130.359 125.625H136.266C136.809 125.625 137.25 126.129 137.25 126.75C137.25 127.371 136.809 127.875 136.266 127.875H130.359C129.816 127.875 129.375 127.371 129.375 126.75Z" fill="white"/>
<path opacity="0.3" d="M139.5 126.75C139.5 126.129 139.941 125.625 140.484 125.625H146.391C146.934 125.625 147.375 126.129 147.375 126.75C147.375 127.371 146.934 127.875 146.391 127.875H140.484C139.941 127.875 139.5 127.371 139.5 126.75Z" fill="white"/>
<path opacity="0.3" d="M149.625 126.75C149.625 126.129 150.003 125.625 150.469 125.625H155.531C155.997 125.625 156.375 126.129 156.375 126.75C156.375 127.371 155.997 127.875 155.531 127.875H150.469C150.003 127.875 149.625 127.371 149.625 126.75Z" fill="white"/>
<path d="M31.5 120.562C31.5 116.524 34.6049 113.25 38.4349 113.25H58.3151C62.1451 113.25 65.25 116.524 65.25 120.562C65.25 124.601 62.1451 127.875 58.3151 127.875H38.4349C34.6049 127.875 31.5 124.601 31.5 120.562Z" fill="white"/>
<path d="M31.5 84H99V91.875H31.5V84Z" fill="#6151A1"/>
<path d="M31.5 96.375H138.375V106.5H31.5V96.375Z" fill="#6151A1"/>
<path d="M0 11.9785C0 10.8739 0.895431 9.97852 2 9.97852H44.6178C45.7224 9.97852 46.6178 10.8739 46.6178 11.9785V30.3761C46.6178 31.4807 45.7224 32.3761 44.6178 32.3761H2C0.895431 32.3761 0 31.4807 0 30.3761L0 11.9785Z" fill="url(#paint1_linear_1943_281)"/>
<path d="M6.40552 27.2077V14.959H10.8147C12.3941 14.959 13.594 15.2478 14.4146 15.8255C15.2408 16.4031 15.6539 17.2416 15.6539 18.3408C15.6539 18.9746 15.5078 19.5158 15.2155 19.9645C14.9232 20.4131 14.4933 20.744 13.9256 20.9571C14.5663 21.1254 15.0581 21.4395 15.401 21.8994C15.7438 22.3592 15.9152 22.9201 15.9152 23.5819C15.9152 24.7821 15.533 25.685 14.7687 26.2907C14.0099 26.8908 12.883 27.1965 11.388 27.2077H6.40552ZM9.36466 22.0003V24.9363H11.3037C11.8376 24.9363 12.2479 24.8157 12.5346 24.5745C12.8212 24.3278 12.9645 23.9829 12.9645 23.5398C12.9645 22.5191 12.4559 22.0059 11.4386 22.0003H9.36466ZM9.36466 20.0654H10.9075C11.5538 20.0598 12.0147 19.942 12.2901 19.7121C12.5655 19.4821 12.7032 19.1428 12.7032 18.6942C12.7032 18.1782 12.5542 17.808 12.2564 17.5837C11.9585 17.3538 11.4779 17.2388 10.8147 17.2388H9.36466V20.0654Z" fill="white"/>
<path d="M21.8335 27.3759C20.434 27.3759 19.3015 26.9609 18.436 26.1309C17.5704 25.2952 17.1377 24.21 17.1377 22.8752V22.6397C17.1377 21.7087 17.3091 20.887 17.6519 20.1748C18.0004 19.4625 18.5062 18.9129 19.1694 18.5259C19.8326 18.1333 20.6195 17.937 21.53 17.937C22.8115 17.937 23.8231 18.3352 24.565 19.1316C25.3069 19.9224 25.6779 21.0272 25.6779 22.4462V23.5482H20.0294C20.1305 24.0586 20.3525 24.4596 20.6954 24.7512C21.0382 25.0428 21.4822 25.1887 22.0274 25.1887C22.9267 25.1887 23.6292 24.8746 24.1351 24.2465L25.4334 25.7775C25.0793 26.2655 24.5763 26.6553 23.9243 26.9469C23.278 27.2329 22.581 27.3759 21.8335 27.3759ZM21.5131 20.1243C20.6813 20.1243 20.1867 20.6739 20.0294 21.7732H22.8958V21.5544C22.907 21.1002 22.7918 20.7496 22.5501 20.5029C22.3084 20.2505 21.9628 20.1243 21.5131 20.1243Z" fill="white"/>
<path d="M30.1376 15.8423V18.1053H31.6383V20.0738H30.1376V24.238C30.1376 24.5802 30.1995 24.8185 30.3231 24.9531C30.4468 25.0877 30.6913 25.155 31.0566 25.155C31.3376 25.155 31.5737 25.1382 31.7648 25.1045V27.132C31.2533 27.2946 30.7194 27.3759 30.1629 27.3759C29.185 27.3759 28.4628 27.146 27.9963 26.6861C27.5298 26.2262 27.2965 25.528 27.2965 24.5914V20.0738H26.1331V18.1053H27.2965V15.8423H30.1376Z" fill="white"/>
<path d="M37.9022 27.2077C37.8011 27.0226 37.7111 26.7506 37.6325 26.3917C37.1098 27.0478 36.3791 27.3759 35.4405 27.3759C34.5806 27.3759 33.8499 27.1179 33.2485 26.602C32.6472 26.0804 32.3465 25.427 32.3465 24.6418C32.3465 23.6548 32.7118 22.9089 33.4424 22.4041C34.1731 21.8994 35.2353 21.647 36.6292 21.647H37.506V21.1675C37.506 20.3318 37.1435 19.914 36.4184 19.914C35.744 19.914 35.4068 20.2449 35.4068 20.9067H32.5657C32.5657 20.0262 32.9394 19.3111 33.6869 18.7615C34.4401 18.2118 35.3983 17.937 36.5618 17.937C37.7252 17.937 38.6441 18.2203 39.3186 18.7867C39.993 19.3531 40.3387 20.1299 40.3555 21.117V25.1466C40.3668 25.9822 40.496 26.6216 40.7433 27.0647V27.2077H37.9022ZM36.1234 25.3569C36.4775 25.3569 36.7697 25.2812 37.0002 25.1298C37.2362 24.9783 37.4048 24.8073 37.506 24.6166V23.1612H36.6798C35.6906 23.1612 35.196 23.6043 35.196 24.4904C35.196 24.7484 35.2831 24.9587 35.4574 25.1214C35.6316 25.2784 35.8536 25.3569 36.1234 25.3569Z" fill="white"/>
<defs>
<linearGradient id="paint0_linear_1943_281" x1="94.5" y1="32.5549" x2="94.5" y2="128" gradientUnits="userSpaceOnUse">
<stop stop-color="white"/>
<stop offset="1" stop-color="white" stop-opacity="0"/>
</linearGradient>
<linearGradient id="paint1_linear_1943_281" x1="9.29148e-07" y1="32.4738" x2="46.6178" y2="32.4734" gradientUnits="userSpaceOnUse">
<stop stop-color="#2096D9"/>
<stop offset="1" stop-color="#5C35EE"/>
</linearGradient>
</defs>
</svg>
